G04*
G04 #@! TF.GenerationSoftware,Altium Limited,Altium Designer,24.5.2 (23)*
G04*
G04 Layer_Physical_Order=2*
G04 Layer_Color=16711680*
%FSLAX44Y44*%
%MOMM*%
G71*
G04*
G04 #@! TF.SameCoordinates,4DB7235B-6A34-4685-BFB2-834AB5D4ADCE*
G04*
G04*
G04 #@! TF.FilePolarity,Positive*
G04*
G01*
G75*
%ADD10C,0.2000*%
%ADD23C,0.5000*%
%ADD24R,1.5080X1.5080*%
%ADD25C,1.5080*%
%ADD26R,1.5080X1.5080*%
%ADD27C,0.5000*%
%ADD28C,1.0000*%
G36*
X1123390Y687630D02*
X789590D01*
Y888440D01*
X1123390D01*
Y687630D01*
D02*
G37*
%LPC*%
G36*
X1090636Y873823D02*
X822523D01*
X820555Y873564D01*
X818721Y872804D01*
X817146Y871596D01*
X800189Y854639D01*
X798980Y853064D01*
X798221Y851229D01*
X797962Y849261D01*
Y804253D01*
X798221Y802284D01*
X798980Y800450D01*
X800189Y798875D01*
X810567Y788497D01*
Y786471D01*
X811254Y783907D01*
X812581Y781609D01*
X814457Y779732D01*
X816756Y778405D01*
X819320Y777718D01*
X821974D01*
X824537Y778405D01*
X826836Y779732D01*
X828713Y781609D01*
X830040Y783907D01*
X830727Y786471D01*
Y789125D01*
X830040Y791689D01*
X828713Y793987D01*
X826836Y795864D01*
X824537Y797191D01*
X822961Y797613D01*
X813172Y807403D01*
Y828518D01*
X830727D01*
Y837923D01*
X835356Y842552D01*
X836494Y841895D01*
X835967Y839925D01*
Y837271D01*
X836654Y834707D01*
X837981Y832409D01*
X839857Y830532D01*
X842156Y829205D01*
X844720Y828518D01*
X847374D01*
X849937Y829205D01*
X852236Y830532D01*
X854113Y832409D01*
X855440Y834707D01*
X856127Y837271D01*
Y839925D01*
X855440Y842489D01*
X854113Y844787D01*
X854000Y844900D01*
X854486Y846073D01*
X1047508D01*
X1057298Y836284D01*
X1057720Y834707D01*
X1059047Y832409D01*
X1060924Y830532D01*
X1063223Y829205D01*
X1065786Y828518D01*
X1068440D01*
X1071004Y829205D01*
X1073303Y830532D01*
X1075179Y832409D01*
X1076506Y834707D01*
X1077193Y837271D01*
Y839925D01*
X1076506Y842489D01*
X1075179Y844787D01*
X1073303Y846664D01*
X1071004Y847991D01*
X1068440Y848678D01*
X1066414D01*
X1057652Y857440D01*
X1058138Y858613D01*
X1087486D01*
X1096248Y849851D01*
X1095762Y848678D01*
X1082433D01*
Y828518D01*
X1099988D01*
Y821638D01*
X1098815Y821152D01*
X1098702Y821264D01*
X1096404Y822591D01*
X1093840Y823278D01*
X1091186D01*
X1088623Y822591D01*
X1086324Y821264D01*
X1084447Y819387D01*
X1083120Y817089D01*
X1082433Y814525D01*
Y811871D01*
X1083120Y809307D01*
X1084447Y807009D01*
X1084646Y806810D01*
X1084160Y805637D01*
X1079813D01*
X1077847Y805246D01*
X1076180Y804132D01*
X1069612Y797564D01*
X1068440Y797878D01*
X1065786D01*
X1063223Y797191D01*
X1060924Y795864D01*
X1059047Y793987D01*
X1057720Y791689D01*
X1057033Y789125D01*
Y786471D01*
X1057720Y783907D01*
X1059047Y781609D01*
X1060924Y779732D01*
X1063223Y778405D01*
X1065786Y777718D01*
X1068440D01*
X1071004Y778405D01*
X1073303Y779732D01*
X1075179Y781609D01*
X1076506Y783907D01*
X1077193Y786471D01*
Y789125D01*
X1076879Y790297D01*
X1081942Y795359D01*
X1084160D01*
X1084646Y794186D01*
X1084447Y793987D01*
X1083120Y791689D01*
X1082433Y789125D01*
Y786471D01*
X1083120Y783907D01*
X1084447Y781609D01*
X1086324Y779732D01*
X1088623Y778405D01*
X1091186Y777718D01*
X1093840D01*
X1096404Y778405D01*
X1098702Y779732D01*
X1100579Y781609D01*
X1101906Y783907D01*
X1102593Y786471D01*
Y789125D01*
X1101906Y791689D01*
X1100579Y793987D01*
X1100380Y794186D01*
X1100867Y795359D01*
X1103012D01*
X1104978Y795751D01*
X1106646Y796864D01*
X1109361Y799579D01*
X1109562Y799606D01*
X1111396Y800366D01*
X1112971Y801574D01*
X1114179Y803149D01*
X1114939Y804984D01*
X1115198Y806952D01*
Y849261D01*
X1114939Y851229D01*
X1114180Y853064D01*
X1112971Y854639D01*
X1096014Y871596D01*
X1094439Y872804D01*
X1092605Y873564D01*
X1090636Y873823D01*
D02*
G37*
G36*
X847374Y823278D02*
X844720D01*
X842156Y822591D01*
X839857Y821264D01*
X837981Y819387D01*
X836654Y817089D01*
X835967Y814525D01*
Y811871D01*
X836654Y809307D01*
X837981Y807009D01*
X839857Y805132D01*
X842156Y803805D01*
X844720Y803118D01*
X847374D01*
X849937Y803805D01*
X852236Y805132D01*
X854113Y807009D01*
X855440Y809307D01*
X856127Y811871D01*
Y814525D01*
X855440Y817089D01*
X854113Y819387D01*
X852236Y821264D01*
X849937Y822591D01*
X847374Y823278D01*
D02*
G37*
G36*
Y797878D02*
X844720D01*
X842156Y797191D01*
X839857Y795864D01*
X837981Y793987D01*
X836654Y791689D01*
X835967Y789125D01*
Y786471D01*
X836654Y783907D01*
X837981Y781609D01*
X839857Y779732D01*
X842156Y778405D01*
X844720Y777718D01*
X847374D01*
X849937Y778405D01*
X852236Y779732D01*
X854113Y781609D01*
X855440Y783907D01*
X856127Y786471D01*
Y789125D01*
X855440Y791689D01*
X854113Y793987D01*
X852236Y795864D01*
X849937Y797191D01*
X847374Y797878D01*
D02*
G37*
G36*
X1093840Y772478D02*
X1091186D01*
X1088623Y771791D01*
X1086324Y770464D01*
X1084447Y768587D01*
X1083120Y766289D01*
X1082433Y763725D01*
Y761071D01*
X1083120Y758507D01*
X1084447Y756209D01*
X1086324Y754332D01*
X1088623Y753005D01*
X1091186Y752318D01*
X1093840D01*
X1096404Y753005D01*
X1098702Y754332D01*
X1100579Y756209D01*
X1101906Y758507D01*
X1102593Y761071D01*
Y763725D01*
X1101906Y766289D01*
X1100579Y768587D01*
X1098702Y770464D01*
X1096404Y771791D01*
X1093840Y772478D01*
D02*
G37*
G36*
X847374D02*
X844720D01*
X842156Y771791D01*
X839857Y770464D01*
X837981Y768587D01*
X836654Y766289D01*
X835967Y763725D01*
Y761071D01*
X836654Y758507D01*
X837981Y756209D01*
X839857Y754332D01*
X842156Y753005D01*
X844720Y752318D01*
X847374D01*
X849937Y753005D01*
X852236Y754332D01*
X854113Y756209D01*
X855440Y758507D01*
X856127Y761071D01*
Y763725D01*
X855440Y766289D01*
X854113Y768587D01*
X852236Y770464D01*
X849937Y771791D01*
X847374Y772478D01*
D02*
G37*
G36*
X942936Y812263D02*
X940969Y811872D01*
X939302Y810758D01*
X938803Y810010D01*
X938581Y809788D01*
X938460Y809498D01*
X938188Y809090D01*
X938093Y808610D01*
X937813Y807935D01*
Y807205D01*
X937797Y807124D01*
Y774382D01*
X938188Y772415D01*
X939302Y770748D01*
X941246Y768804D01*
X941667Y768523D01*
X942025Y768165D01*
X942493Y767972D01*
X942914Y767691D01*
X943183Y767637D01*
X943463Y767125D01*
X943567Y766225D01*
X906865Y729523D01*
X854486D01*
X854000Y730696D01*
X854113Y730809D01*
X855440Y733107D01*
X856127Y735671D01*
Y738325D01*
X855440Y740889D01*
X854113Y743187D01*
X852236Y745064D01*
X849937Y746391D01*
X847374Y747078D01*
X844720D01*
X842156Y746391D01*
X839857Y745064D01*
X837981Y743187D01*
X836654Y740889D01*
X835967Y738325D01*
Y735671D01*
X836654Y733107D01*
X837981Y730809D01*
X838093Y730696D01*
X837607Y729523D01*
X829086D01*
X828600Y730696D01*
X828713Y730809D01*
X830040Y733107D01*
X830727Y735671D01*
Y738325D01*
X830040Y740889D01*
X828713Y743187D01*
X826836Y745064D01*
X824537Y746391D01*
X821974Y747078D01*
X819320D01*
X819144Y747031D01*
X818509Y748131D01*
X822961Y752583D01*
X824537Y753005D01*
X826836Y754332D01*
X828713Y756209D01*
X830040Y758507D01*
X830727Y761071D01*
Y763725D01*
X830040Y766289D01*
X828713Y768587D01*
X826836Y770464D01*
X824537Y771791D01*
X821974Y772478D01*
X819320D01*
X816756Y771791D01*
X814457Y770464D01*
X812581Y768587D01*
X811254Y766289D01*
X810567Y763725D01*
Y761699D01*
X800189Y751321D01*
X798980Y749746D01*
X798221Y747912D01*
X797962Y745944D01*
Y730752D01*
X798221Y728783D01*
X798980Y726949D01*
X800189Y725374D01*
X809023Y716541D01*
X810598Y715332D01*
X812432Y714572D01*
X814400Y714313D01*
X910015D01*
X911983Y714572D01*
X913818Y715332D01*
X915393Y716541D01*
X953645Y754793D01*
X1006600D01*
X1007306Y753737D01*
X1007150Y753361D01*
Y751356D01*
X1007917Y749503D01*
X1009335Y748085D01*
X1011188Y747318D01*
X1013193D01*
X1015045Y748085D01*
X1016211Y749252D01*
X1017690D01*
X1019071Y749527D01*
X1020152Y750249D01*
X1021377D01*
X1037180Y734446D01*
X1038351Y733663D01*
X1039732Y733389D01*
X1057645D01*
X1057720Y733107D01*
X1059047Y730809D01*
X1060924Y728932D01*
X1063223Y727605D01*
X1065786Y726918D01*
X1068440D01*
X1071004Y727605D01*
X1073303Y728932D01*
X1075179Y730809D01*
X1076506Y733107D01*
X1077193Y735671D01*
Y738325D01*
X1076506Y740889D01*
X1075179Y743187D01*
X1073303Y745064D01*
X1071004Y746391D01*
X1068440Y747078D01*
X1065786D01*
X1063223Y746391D01*
X1060924Y745064D01*
X1059047Y743187D01*
X1057720Y740889D01*
X1057645Y740607D01*
X1041227D01*
X1028215Y753620D01*
X1028701Y754793D01*
X1060463D01*
X1060924Y754332D01*
X1063223Y753005D01*
X1065786Y752318D01*
X1068440D01*
X1071004Y753005D01*
X1073303Y754332D01*
X1075179Y756209D01*
X1076506Y758507D01*
X1077193Y761071D01*
Y763725D01*
X1076506Y766289D01*
X1075179Y768587D01*
X1073303Y770464D01*
X1071004Y771791D01*
X1068440Y772478D01*
X1065786D01*
X1063223Y771791D01*
X1060924Y770464D01*
X1060463Y770003D01*
X950731D01*
X950722Y770007D01*
X950126Y770572D01*
X949820Y771195D01*
X949920Y771435D01*
Y771942D01*
X950019Y772438D01*
X949920Y772934D01*
Y773440D01*
X949726Y773908D01*
X949628Y774405D01*
X949346Y774825D01*
X949153Y775293D01*
X948795Y775651D01*
X948514Y776072D01*
X948075Y776511D01*
Y807124D01*
X947684Y809090D01*
X946570Y810758D01*
X944902Y811872D01*
X942936Y812263D01*
D02*
G37*
G36*
X1093840Y747078D02*
X1091186D01*
X1088623Y746391D01*
X1086324Y745064D01*
X1084447Y743187D01*
X1083120Y740889D01*
X1082433Y738325D01*
Y735671D01*
X1083120Y733107D01*
X1084447Y730809D01*
X1086324Y728932D01*
X1088623Y727605D01*
X1091186Y726918D01*
X1093840D01*
X1096404Y727605D01*
X1098702Y728932D01*
X1100579Y730809D01*
X1101906Y733107D01*
X1102593Y735671D01*
Y738325D01*
X1101906Y740889D01*
X1100579Y743187D01*
X1098702Y745064D01*
X1096404Y746391D01*
X1093840Y747078D01*
D02*
G37*
G36*
X985965Y730878D02*
X983311D01*
X980747Y730191D01*
X978449Y728864D01*
X976572Y726987D01*
X975245Y724689D01*
X974558Y722125D01*
Y719471D01*
X975245Y716907D01*
X976572Y714609D01*
X978449Y712732D01*
X980747Y711405D01*
X983311Y710718D01*
X985965D01*
X988529Y711405D01*
X990827Y712732D01*
X992704Y714609D01*
X994031Y716907D01*
X994718Y719471D01*
Y722125D01*
X994031Y724689D01*
X992704Y726987D01*
X990827Y728864D01*
X988529Y730191D01*
X985965Y730878D01*
D02*
G37*
G36*
X960965D02*
X958311D01*
X955747Y730191D01*
X953449Y728864D01*
X951572Y726987D01*
X950245Y724689D01*
X949558Y722125D01*
Y719471D01*
X950245Y716907D01*
X951572Y714609D01*
X953449Y712732D01*
X955747Y711405D01*
X958311Y710718D01*
X960965D01*
X963529Y711405D01*
X965827Y712732D01*
X967704Y714609D01*
X969031Y716907D01*
X969718Y719471D01*
Y722125D01*
X969031Y724689D01*
X967704Y726987D01*
X965827Y728864D01*
X963529Y730191D01*
X960965Y730878D01*
D02*
G37*
%LPD*%
D10*
X1012190Y752358D02*
X1012693Y752861D01*
X1017690D02*
X1018687Y753858D01*
X1012693Y752861D02*
X1017690D01*
X1022872Y753858D02*
X1039732Y736998D01*
X1067113D01*
X1018687Y753858D02*
X1022872D01*
D23*
X1103012Y800498D02*
X1106932Y804418D01*
X1067113Y787798D02*
X1079813Y800498D01*
X1103012D01*
X942936Y774382D02*
X944880Y772438D01*
X942936Y774382D02*
Y807124D01*
D24*
X934638Y720798D02*
D03*
D25*
X959638D02*
D03*
X984638D02*
D03*
X1067113Y736998D02*
D03*
X1092513D02*
D03*
X1067113Y762398D02*
D03*
X1092513D02*
D03*
X1067113Y787798D02*
D03*
X1092513D02*
D03*
X1067113Y813198D02*
D03*
X1092513D02*
D03*
X1067113Y838598D02*
D03*
X846047Y736998D02*
D03*
X820647D02*
D03*
X846047Y762398D02*
D03*
X820647D02*
D03*
X846047Y787798D02*
D03*
X820647D02*
D03*
X846047Y813198D02*
D03*
X820647D02*
D03*
X846047Y838598D02*
D03*
D26*
X1092513D02*
D03*
X820647D02*
D03*
D27*
X944880Y772438D02*
D03*
X1012190Y752358D02*
D03*
X942853Y806933D02*
D03*
D28*
X1107593Y806952D02*
Y849261D01*
X822523Y866218D02*
X1090636D01*
X805567Y804253D02*
X820647Y789173D01*
Y787798D02*
Y789173D01*
X1090636Y866218D02*
X1107593Y849261D01*
X805567Y804253D02*
Y849261D01*
X822523Y866218D01*
X820647Y761023D02*
Y762398D01*
X805567Y745944D02*
X820647Y761023D01*
X805567Y730752D02*
Y745944D01*
Y730752D02*
X814400Y721918D01*
X910015D02*
X950495Y762398D01*
X1067113D01*
X814400Y721918D02*
X910015D01*
X835727Y853678D02*
X1050659D01*
X1065739Y838598D02*
X1067113D01*
X820647D02*
X835727Y853678D01*
X1050659D02*
X1065739Y838598D01*
M02*
