G04*
G04 #@! TF.GenerationSoftware,Altium Limited,Altium Designer,24.5.2 (23)*
G04*
G04 Layer_Color=8388736*
%FSLAX44Y44*%
%MOMM*%
G71*
G04*
G04 #@! TF.SameCoordinates,4DB7235B-6A34-4685-BFB2-834AB5D4ADCE*
G04*
G04*
G04 #@! TF.FilePolarity,Negative*
G04*
G01*
G75*
%ADD15R,1.6782X0.6532*%
%ADD16R,1.6510X1.1176*%
%ADD17R,1.6532X1.2032*%
%ADD18R,1.7112X1.7112*%
%ADD19C,1.7112*%
%ADD20R,1.7112X1.7112*%
%ADD21C,0.7032*%
D15*
X984420Y824270D02*
D03*
Y817770D02*
D03*
Y811270D02*
D03*
Y804770D02*
D03*
Y798270D02*
D03*
Y791770D02*
D03*
Y785270D02*
D03*
Y778770D02*
D03*
Y772270D02*
D03*
Y765770D02*
D03*
X925660D02*
D03*
Y772270D02*
D03*
Y778770D02*
D03*
Y785270D02*
D03*
Y791770D02*
D03*
Y798270D02*
D03*
Y804770D02*
D03*
Y811270D02*
D03*
Y817770D02*
D03*
Y824270D02*
D03*
D16*
X920222Y854710D02*
D03*
Y870966D02*
D03*
X978748Y854710D02*
D03*
Y870966D02*
D03*
D17*
X948436Y853338D02*
D03*
Y872338D02*
D03*
D18*
X934638Y720798D02*
D03*
D19*
X959638D02*
D03*
X984638D02*
D03*
X1067113Y736998D02*
D03*
X1092513D02*
D03*
X1067113Y762398D02*
D03*
X1092513D02*
D03*
X1067113Y787798D02*
D03*
X1092513D02*
D03*
X1067113Y813198D02*
D03*
X1092513D02*
D03*
X1067113Y838598D02*
D03*
X846047Y736998D02*
D03*
X820647D02*
D03*
X846047Y762398D02*
D03*
X820647D02*
D03*
X846047Y787798D02*
D03*
X820647D02*
D03*
X846047Y813198D02*
D03*
X820647D02*
D03*
X846047Y838598D02*
D03*
D20*
X1092513D02*
D03*
X820647D02*
D03*
D21*
X944880Y772438D02*
D03*
X1012190Y752358D02*
D03*
X942853Y806933D02*
D03*
M02*
