M48
;Layer_Color=9474304
;FILE_FORMAT=4:4
METRIC,LZ
;TYPE=PLATED
T01F00S00C0.2500
T02F00S00C1.0000
%
T01
X0094488Y00772438
X0101219Y00752358
X00942853Y00806933
T02
X00820647Y00736998
X00846047
Y00762398
X00820647
Y00787798
X00846047
X00934638Y00720798
X00959638
X00984638
X01067113Y00736998
X01092513
Y00762398
X01067113
Y00787798
X01092513
Y00813198
X01067113
Y00838598
X01092513
X00846047
Y00813198
X00820647
Y00838598
M30
