G04*
G04 #@! TF.GenerationSoftware,Altium Limited,Altium Designer,24.5.2 (23)*
G04*
G04 Layer_Color=65535*
%FSLAX44Y44*%
%MOMM*%
G71*
G04*
G04 #@! TF.SameCoordinates,4DB7235B-6A34-4685-BFB2-834AB5D4ADCE*
G04*
G04*
G04 #@! TF.FilePolarity,Positive*
G04*
G01*
G75*
%ADD10C,0.2000*%
%ADD11C,0.1270*%
G36*
X917932Y837519D02*
Y837514D01*
Y837499D01*
Y837475D01*
Y837441D01*
X917928Y837397D01*
Y837353D01*
X917923Y837299D01*
X917918Y837241D01*
X917903Y837119D01*
X917884Y836992D01*
X917859Y836865D01*
X917820Y836753D01*
Y836748D01*
X917815Y836739D01*
X917811Y836724D01*
X917801Y836704D01*
X917772Y836656D01*
X917732Y836587D01*
X917679Y836514D01*
X917611Y836436D01*
X917523Y836363D01*
X917425Y836290D01*
X917420D01*
X917411Y836280D01*
X917396Y836275D01*
X917372Y836261D01*
X917347Y836251D01*
X917313Y836236D01*
X917269Y836217D01*
X917225Y836202D01*
X917177Y836188D01*
X917118Y836168D01*
X917059Y836153D01*
X916991Y836144D01*
X916845Y836124D01*
X916679Y836114D01*
X916635D01*
X916606Y836119D01*
X916567D01*
X916523Y836124D01*
X916474Y836129D01*
X916421Y836134D01*
X916304Y836153D01*
X916182Y836178D01*
X916055Y836217D01*
X915943Y836265D01*
X915938D01*
X915928Y836275D01*
X915918Y836280D01*
X915899Y836295D01*
X915845Y836329D01*
X915787Y836383D01*
X915718Y836446D01*
X915655Y836519D01*
X915592Y836612D01*
X915538Y836714D01*
Y836719D01*
X915533Y836729D01*
X915528Y836743D01*
X915518Y836768D01*
X915509Y836797D01*
X915499Y836836D01*
X915489Y836880D01*
X915479Y836929D01*
X915465Y836982D01*
X915455Y837041D01*
X915445Y837109D01*
X915435Y837178D01*
X915426Y837255D01*
X915421Y837338D01*
X915416Y837426D01*
Y837519D01*
Y839372D01*
X915840D01*
Y837519D01*
Y837514D01*
Y837499D01*
Y837480D01*
Y837451D01*
Y837417D01*
X915845Y837377D01*
X915850Y837285D01*
X915860Y837187D01*
X915870Y837085D01*
X915889Y836987D01*
X915899Y836943D01*
X915913Y836904D01*
X915918Y836895D01*
X915928Y836870D01*
X915948Y836836D01*
X915977Y836792D01*
X916011Y836743D01*
X916060Y836690D01*
X916113Y836641D01*
X916182Y836597D01*
X916191Y836592D01*
X916216Y836582D01*
X916255Y836563D01*
X916309Y836548D01*
X916377Y836529D01*
X916455Y836509D01*
X916543Y836500D01*
X916640Y836495D01*
X916684D01*
X916718Y836500D01*
X916757D01*
X916801Y836505D01*
X916898Y836519D01*
X917011Y836548D01*
X917118Y836582D01*
X917220Y836636D01*
X917269Y836665D01*
X917308Y836704D01*
Y836709D01*
X917318Y836714D01*
X917328Y836729D01*
X917337Y836748D01*
X917357Y836773D01*
X917372Y836802D01*
X917391Y836841D01*
X917411Y836885D01*
X917425Y836938D01*
X917445Y836997D01*
X917464Y837060D01*
X917479Y837139D01*
X917489Y837221D01*
X917498Y837309D01*
X917508Y837412D01*
Y837519D01*
Y839372D01*
X917932D01*
Y837519D01*
D02*
G37*
G36*
X919961Y836168D02*
X919566D01*
Y838675D01*
X919561Y838670D01*
X919542Y838650D01*
X919508Y838626D01*
X919464Y838592D01*
X919410Y838548D01*
X919347Y838504D01*
X919274Y838450D01*
X919191Y838402D01*
X919186D01*
X919181Y838397D01*
X919152Y838377D01*
X919108Y838353D01*
X919054Y838324D01*
X918991Y838289D01*
X918922Y838260D01*
X918849Y838226D01*
X918781Y838197D01*
Y838582D01*
X918786D01*
X918796Y838587D01*
X918815Y838597D01*
X918835Y838611D01*
X918864Y838626D01*
X918898Y838641D01*
X918976Y838684D01*
X919064Y838738D01*
X919161Y838801D01*
X919259Y838875D01*
X919352Y838953D01*
X919357Y838958D01*
X919361Y838962D01*
X919391Y838992D01*
X919435Y839036D01*
X919488Y839089D01*
X919547Y839157D01*
X919605Y839231D01*
X919659Y839309D01*
X919703Y839387D01*
X919961D01*
Y836168D01*
D02*
G37*
G36*
X1106662Y839958D02*
X1106701Y839953D01*
X1106750Y839948D01*
X1106803Y839943D01*
X1106862Y839933D01*
X1106989Y839904D01*
X1107125Y839860D01*
X1107193Y839831D01*
X1107262Y839797D01*
X1107325Y839758D01*
X1107389Y839714D01*
X1107393Y839709D01*
X1107403Y839704D01*
X1107418Y839689D01*
X1107442Y839670D01*
X1107467Y839645D01*
X1107501Y839611D01*
X1107535Y839577D01*
X1107569Y839538D01*
X1107608Y839489D01*
X1107642Y839441D01*
X1107681Y839382D01*
X1107720Y839319D01*
X1107754Y839255D01*
X1107788Y839182D01*
X1107847Y839026D01*
X1107428Y838929D01*
Y838933D01*
X1107423Y838943D01*
X1107418Y838963D01*
X1107408Y838987D01*
X1107393Y839016D01*
X1107379Y839051D01*
X1107345Y839124D01*
X1107301Y839207D01*
X1107242Y839294D01*
X1107179Y839372D01*
X1107101Y839441D01*
X1107091Y839445D01*
X1107062Y839465D01*
X1107018Y839489D01*
X1106954Y839523D01*
X1106881Y839553D01*
X1106789Y839577D01*
X1106686Y839597D01*
X1106569Y839602D01*
X1106535D01*
X1106511Y839597D01*
X1106477D01*
X1106442Y839592D01*
X1106355Y839577D01*
X1106257Y839558D01*
X1106155Y839523D01*
X1106052Y839480D01*
X1105955Y839421D01*
X1105950D01*
X1105945Y839411D01*
X1105916Y839387D01*
X1105872Y839348D01*
X1105818Y839294D01*
X1105764Y839226D01*
X1105706Y839148D01*
X1105652Y839051D01*
X1105609Y838943D01*
Y838938D01*
X1105604Y838929D01*
X1105599Y838914D01*
X1105594Y838890D01*
X1105584Y838865D01*
X1105579Y838831D01*
X1105560Y838753D01*
X1105540Y838660D01*
X1105526Y838558D01*
X1105516Y838446D01*
X1105511Y838329D01*
Y838324D01*
Y838309D01*
Y838290D01*
Y838260D01*
X1105516Y838226D01*
Y838182D01*
X1105521Y838139D01*
X1105526Y838090D01*
X1105540Y837978D01*
X1105560Y837856D01*
X1105589Y837734D01*
X1105628Y837617D01*
Y837612D01*
X1105633Y837602D01*
X1105643Y837588D01*
X1105652Y837568D01*
X1105677Y837509D01*
X1105716Y837446D01*
X1105769Y837368D01*
X1105833Y837295D01*
X1105906Y837222D01*
X1105994Y837158D01*
X1105999D01*
X1106003Y837153D01*
X1106018Y837144D01*
X1106038Y837134D01*
X1106091Y837114D01*
X1106160Y837085D01*
X1106238Y837061D01*
X1106330Y837036D01*
X1106433Y837017D01*
X1106540Y837012D01*
X1106574D01*
X1106598Y837017D01*
X1106628D01*
X1106667Y837022D01*
X1106750Y837036D01*
X1106842Y837061D01*
X1106945Y837100D01*
X1107042Y837149D01*
X1107140Y837217D01*
X1107145Y837222D01*
X1107150Y837227D01*
X1107179Y837256D01*
X1107223Y837305D01*
X1107276Y837368D01*
X1107330Y837456D01*
X1107389Y837558D01*
X1107437Y837685D01*
X1107476Y837826D01*
X1107901Y837719D01*
Y837714D01*
X1107896Y837695D01*
X1107886Y837670D01*
X1107876Y837631D01*
X1107857Y837592D01*
X1107837Y837539D01*
X1107818Y837485D01*
X1107788Y837427D01*
X1107725Y837295D01*
X1107637Y837163D01*
X1107540Y837036D01*
X1107481Y836978D01*
X1107418Y836924D01*
X1107413Y836919D01*
X1107403Y836915D01*
X1107384Y836900D01*
X1107354Y836880D01*
X1107320Y836861D01*
X1107281Y836836D01*
X1107237Y836812D01*
X1107184Y836788D01*
X1107125Y836763D01*
X1107062Y836739D01*
X1106989Y836714D01*
X1106915Y836695D01*
X1106755Y836661D01*
X1106667Y836656D01*
X1106574Y836651D01*
X1106525D01*
X1106486Y836656D01*
X1106442D01*
X1106394Y836661D01*
X1106335Y836671D01*
X1106277Y836675D01*
X1106140Y836705D01*
X1105999Y836739D01*
X1105862Y836793D01*
X1105794Y836822D01*
X1105730Y836861D01*
X1105725Y836866D01*
X1105716Y836871D01*
X1105701Y836885D01*
X1105677Y836900D01*
X1105618Y836949D01*
X1105550Y837017D01*
X1105467Y837100D01*
X1105389Y837207D01*
X1105306Y837329D01*
X1105238Y837470D01*
Y837475D01*
X1105233Y837490D01*
X1105223Y837509D01*
X1105213Y837539D01*
X1105199Y837578D01*
X1105184Y837622D01*
X1105170Y837670D01*
X1105155Y837729D01*
X1105140Y837787D01*
X1105126Y837856D01*
X1105096Y838002D01*
X1105077Y838158D01*
X1105072Y838329D01*
Y838334D01*
Y838353D01*
Y838378D01*
X1105077Y838412D01*
Y838456D01*
X1105082Y838509D01*
X1105087Y838563D01*
X1105096Y838626D01*
X1105121Y838763D01*
X1105150Y838909D01*
X1105199Y839060D01*
X1105262Y839202D01*
Y839207D01*
X1105272Y839216D01*
X1105282Y839236D01*
X1105296Y839265D01*
X1105316Y839294D01*
X1105340Y839329D01*
X1105404Y839411D01*
X1105477Y839504D01*
X1105569Y839597D01*
X1105682Y839689D01*
X1105804Y839767D01*
X1105808D01*
X1105818Y839777D01*
X1105838Y839787D01*
X1105867Y839797D01*
X1105896Y839811D01*
X1105935Y839831D01*
X1105984Y839845D01*
X1106033Y839865D01*
X1106086Y839884D01*
X1106145Y839899D01*
X1106277Y839933D01*
X1106423Y839953D01*
X1106579Y839962D01*
X1106628D01*
X1106662Y839958D01*
D02*
G37*
G36*
X1112972Y838061D02*
Y836705D01*
X1112548D01*
Y838061D01*
X1111314Y839909D01*
X1111826D01*
X1112460Y838938D01*
Y838933D01*
X1112470Y838929D01*
X1112480Y838914D01*
X1112490Y838894D01*
X1112524Y838841D01*
X1112568Y838773D01*
X1112616Y838690D01*
X1112670Y838597D01*
X1112729Y838499D01*
X1112787Y838397D01*
Y838402D01*
X1112792Y838407D01*
X1112802Y838421D01*
X1112812Y838441D01*
X1112841Y838494D01*
X1112885Y838563D01*
X1112933Y838646D01*
X1112997Y838743D01*
X1113065Y838850D01*
X1113138Y838963D01*
X1113758Y839909D01*
X1114250D01*
X1112972Y838061D01*
D02*
G37*
G36*
X1118942Y836705D02*
X1118547D01*
Y839211D01*
X1118542Y839207D01*
X1118522Y839187D01*
X1118488Y839163D01*
X1118444Y839128D01*
X1118391Y839085D01*
X1118327Y839041D01*
X1118254Y838987D01*
X1118171Y838938D01*
X1118166D01*
X1118161Y838933D01*
X1118132Y838914D01*
X1118088Y838890D01*
X1118035Y838860D01*
X1117971Y838826D01*
X1117903Y838797D01*
X1117830Y838763D01*
X1117761Y838734D01*
Y839119D01*
X1117766D01*
X1117776Y839124D01*
X1117796Y839133D01*
X1117815Y839148D01*
X1117844Y839163D01*
X1117878Y839177D01*
X1117956Y839221D01*
X1118044Y839275D01*
X1118142Y839338D01*
X1118239Y839411D01*
X1118332Y839489D01*
X1118337Y839494D01*
X1118342Y839499D01*
X1118371Y839528D01*
X1118415Y839572D01*
X1118469Y839626D01*
X1118527Y839694D01*
X1118586Y839767D01*
X1118639Y839845D01*
X1118683Y839923D01*
X1118942D01*
Y836705D01*
D02*
G37*
G36*
X1117274D02*
X1116796D01*
X1116425Y837675D01*
X1115079D01*
X1114733Y836705D01*
X1114284D01*
X1115508Y839909D01*
X1115972D01*
X1117274Y836705D01*
D02*
G37*
G36*
X1109954Y839904D02*
X1109993D01*
X1110090Y839899D01*
X1110193Y839889D01*
X1110300Y839870D01*
X1110402Y839850D01*
X1110451Y839836D01*
X1110495Y839821D01*
X1110500D01*
X1110505Y839816D01*
X1110534Y839806D01*
X1110573Y839782D01*
X1110622Y839748D01*
X1110680Y839709D01*
X1110739Y839655D01*
X1110797Y839592D01*
X1110851Y839514D01*
X1110856Y839504D01*
X1110871Y839475D01*
X1110895Y839431D01*
X1110919Y839372D01*
X1110944Y839299D01*
X1110968Y839216D01*
X1110983Y839128D01*
X1110988Y839031D01*
Y839026D01*
Y839016D01*
Y838997D01*
X1110983Y838972D01*
Y838943D01*
X1110978Y838909D01*
X1110958Y838831D01*
X1110934Y838738D01*
X1110895Y838646D01*
X1110836Y838548D01*
X1110802Y838499D01*
X1110763Y838456D01*
X1110753Y838446D01*
X1110739Y838436D01*
X1110724Y838417D01*
X1110700Y838402D01*
X1110671Y838378D01*
X1110636Y838358D01*
X1110597Y838334D01*
X1110554Y838309D01*
X1110500Y838285D01*
X1110446Y838260D01*
X1110383Y838236D01*
X1110319Y838212D01*
X1110246Y838192D01*
X1110168Y838177D01*
X1110085Y838163D01*
X1110095Y838158D01*
X1110115Y838148D01*
X1110144Y838134D01*
X1110178Y838114D01*
X1110261Y838061D01*
X1110305Y838031D01*
X1110339Y838002D01*
X1110349Y837992D01*
X1110373Y837973D01*
X1110407Y837934D01*
X1110451Y837885D01*
X1110505Y837822D01*
X1110563Y837748D01*
X1110627Y837665D01*
X1110690Y837573D01*
X1111246Y836705D01*
X1110714D01*
X1110290Y837368D01*
Y837373D01*
X1110280Y837383D01*
X1110271Y837397D01*
X1110261Y837417D01*
X1110227Y837466D01*
X1110183Y837529D01*
X1110134Y837602D01*
X1110080Y837675D01*
X1110032Y837744D01*
X1109983Y837807D01*
X1109978Y837812D01*
X1109963Y837831D01*
X1109939Y837861D01*
X1109915Y837895D01*
X1109842Y837963D01*
X1109807Y837997D01*
X1109768Y838021D01*
X1109763Y838026D01*
X1109754Y838031D01*
X1109734Y838041D01*
X1109710Y838056D01*
X1109651Y838085D01*
X1109578Y838109D01*
X1109573D01*
X1109564Y838114D01*
X1109544D01*
X1109520Y838119D01*
X1109485Y838124D01*
X1109446D01*
X1109398Y838129D01*
X1108851D01*
Y836705D01*
X1108427D01*
Y839909D01*
X1109915D01*
X1109954Y839904D01*
D02*
G37*
G36*
X1106662Y814558D02*
X1106701Y814553D01*
X1106750Y814548D01*
X1106803Y814543D01*
X1106862Y814533D01*
X1106989Y814504D01*
X1107125Y814460D01*
X1107193Y814431D01*
X1107262Y814397D01*
X1107325Y814358D01*
X1107389Y814314D01*
X1107393Y814309D01*
X1107403Y814304D01*
X1107418Y814289D01*
X1107442Y814270D01*
X1107467Y814246D01*
X1107501Y814211D01*
X1107535Y814177D01*
X1107569Y814138D01*
X1107608Y814089D01*
X1107642Y814041D01*
X1107681Y813982D01*
X1107720Y813919D01*
X1107754Y813855D01*
X1107788Y813782D01*
X1107847Y813626D01*
X1107428Y813529D01*
Y813533D01*
X1107423Y813543D01*
X1107418Y813563D01*
X1107408Y813587D01*
X1107393Y813616D01*
X1107379Y813651D01*
X1107345Y813724D01*
X1107301Y813807D01*
X1107242Y813894D01*
X1107179Y813972D01*
X1107101Y814041D01*
X1107091Y814045D01*
X1107062Y814065D01*
X1107018Y814089D01*
X1106954Y814124D01*
X1106881Y814153D01*
X1106789Y814177D01*
X1106686Y814197D01*
X1106569Y814202D01*
X1106535D01*
X1106511Y814197D01*
X1106477D01*
X1106442Y814192D01*
X1106355Y814177D01*
X1106257Y814158D01*
X1106155Y814124D01*
X1106052Y814080D01*
X1105955Y814021D01*
X1105950D01*
X1105945Y814011D01*
X1105916Y813987D01*
X1105872Y813948D01*
X1105818Y813894D01*
X1105764Y813826D01*
X1105706Y813748D01*
X1105652Y813651D01*
X1105609Y813543D01*
Y813538D01*
X1105604Y813529D01*
X1105599Y813514D01*
X1105594Y813490D01*
X1105584Y813465D01*
X1105579Y813431D01*
X1105560Y813353D01*
X1105540Y813260D01*
X1105526Y813158D01*
X1105516Y813046D01*
X1105511Y812929D01*
Y812924D01*
Y812909D01*
Y812890D01*
Y812860D01*
X1105516Y812826D01*
Y812782D01*
X1105521Y812738D01*
X1105526Y812690D01*
X1105540Y812578D01*
X1105560Y812456D01*
X1105589Y812334D01*
X1105628Y812217D01*
Y812212D01*
X1105633Y812202D01*
X1105643Y812188D01*
X1105652Y812168D01*
X1105677Y812109D01*
X1105716Y812046D01*
X1105769Y811968D01*
X1105833Y811895D01*
X1105906Y811822D01*
X1105994Y811758D01*
X1105999D01*
X1106003Y811753D01*
X1106018Y811744D01*
X1106038Y811734D01*
X1106091Y811714D01*
X1106160Y811685D01*
X1106238Y811661D01*
X1106330Y811636D01*
X1106433Y811617D01*
X1106540Y811612D01*
X1106574D01*
X1106598Y811617D01*
X1106628D01*
X1106667Y811622D01*
X1106750Y811636D01*
X1106842Y811661D01*
X1106945Y811700D01*
X1107042Y811749D01*
X1107140Y811817D01*
X1107145Y811822D01*
X1107150Y811827D01*
X1107179Y811856D01*
X1107223Y811905D01*
X1107276Y811968D01*
X1107330Y812056D01*
X1107389Y812158D01*
X1107437Y812285D01*
X1107476Y812426D01*
X1107901Y812319D01*
Y812314D01*
X1107896Y812295D01*
X1107886Y812270D01*
X1107876Y812231D01*
X1107857Y812192D01*
X1107837Y812139D01*
X1107818Y812085D01*
X1107788Y812027D01*
X1107725Y811895D01*
X1107637Y811763D01*
X1107540Y811636D01*
X1107481Y811578D01*
X1107418Y811524D01*
X1107413Y811519D01*
X1107403Y811515D01*
X1107384Y811500D01*
X1107354Y811480D01*
X1107320Y811461D01*
X1107281Y811436D01*
X1107237Y811412D01*
X1107184Y811388D01*
X1107125Y811363D01*
X1107062Y811339D01*
X1106989Y811314D01*
X1106915Y811295D01*
X1106755Y811261D01*
X1106667Y811256D01*
X1106574Y811251D01*
X1106525D01*
X1106486Y811256D01*
X1106442D01*
X1106394Y811261D01*
X1106335Y811271D01*
X1106277Y811275D01*
X1106140Y811305D01*
X1105999Y811339D01*
X1105862Y811393D01*
X1105794Y811422D01*
X1105730Y811461D01*
X1105725Y811466D01*
X1105716Y811471D01*
X1105701Y811485D01*
X1105677Y811500D01*
X1105618Y811549D01*
X1105550Y811617D01*
X1105467Y811700D01*
X1105389Y811807D01*
X1105306Y811929D01*
X1105238Y812070D01*
Y812075D01*
X1105233Y812090D01*
X1105223Y812109D01*
X1105213Y812139D01*
X1105199Y812178D01*
X1105184Y812222D01*
X1105170Y812270D01*
X1105155Y812329D01*
X1105140Y812387D01*
X1105126Y812456D01*
X1105096Y812602D01*
X1105077Y812758D01*
X1105072Y812929D01*
Y812934D01*
Y812953D01*
Y812978D01*
X1105077Y813012D01*
Y813055D01*
X1105082Y813109D01*
X1105087Y813163D01*
X1105096Y813226D01*
X1105121Y813363D01*
X1105150Y813509D01*
X1105199Y813660D01*
X1105262Y813802D01*
Y813807D01*
X1105272Y813816D01*
X1105282Y813836D01*
X1105296Y813865D01*
X1105316Y813894D01*
X1105340Y813929D01*
X1105404Y814011D01*
X1105477Y814104D01*
X1105569Y814197D01*
X1105682Y814289D01*
X1105804Y814367D01*
X1105808D01*
X1105818Y814377D01*
X1105838Y814387D01*
X1105867Y814397D01*
X1105896Y814411D01*
X1105935Y814431D01*
X1105984Y814445D01*
X1106033Y814465D01*
X1106086Y814484D01*
X1106145Y814499D01*
X1106277Y814533D01*
X1106423Y814553D01*
X1106579Y814563D01*
X1106628D01*
X1106662Y814558D01*
D02*
G37*
G36*
X1112972Y812661D02*
Y811305D01*
X1112548D01*
Y812661D01*
X1111314Y814509D01*
X1111826D01*
X1112460Y813538D01*
Y813533D01*
X1112470Y813529D01*
X1112480Y813514D01*
X1112490Y813494D01*
X1112524Y813441D01*
X1112568Y813372D01*
X1112616Y813290D01*
X1112670Y813197D01*
X1112729Y813099D01*
X1112787Y812997D01*
Y813002D01*
X1112792Y813007D01*
X1112802Y813021D01*
X1112812Y813041D01*
X1112841Y813094D01*
X1112885Y813163D01*
X1112933Y813246D01*
X1112997Y813343D01*
X1113065Y813450D01*
X1113138Y813563D01*
X1113758Y814509D01*
X1114250D01*
X1112972Y812661D01*
D02*
G37*
G36*
X1118595Y814519D02*
X1118634Y814514D01*
X1118678Y814509D01*
X1118727Y814504D01*
X1118781Y814489D01*
X1118898Y814460D01*
X1119020Y814416D01*
X1119083Y814387D01*
X1119142Y814353D01*
X1119195Y814309D01*
X1119249Y814265D01*
X1119254Y814260D01*
X1119259Y814255D01*
X1119273Y814241D01*
X1119293Y814221D01*
X1119312Y814192D01*
X1119337Y814163D01*
X1119385Y814089D01*
X1119434Y813997D01*
X1119478Y813889D01*
X1119512Y813767D01*
X1119517Y813699D01*
X1119522Y813631D01*
Y813621D01*
Y813597D01*
X1119517Y813558D01*
X1119512Y813509D01*
X1119502Y813450D01*
X1119488Y813387D01*
X1119468Y813319D01*
X1119439Y813251D01*
X1119434Y813241D01*
X1119424Y813216D01*
X1119405Y813182D01*
X1119376Y813134D01*
X1119342Y813075D01*
X1119298Y813007D01*
X1119239Y812939D01*
X1119176Y812860D01*
X1119166Y812851D01*
X1119142Y812821D01*
X1119098Y812777D01*
X1119068Y812748D01*
X1119034Y812714D01*
X1118995Y812675D01*
X1118947Y812631D01*
X1118898Y812587D01*
X1118844Y812534D01*
X1118786Y812480D01*
X1118717Y812421D01*
X1118649Y812363D01*
X1118571Y812295D01*
X1118566Y812290D01*
X1118556Y812280D01*
X1118537Y812265D01*
X1118512Y812246D01*
X1118454Y812197D01*
X1118381Y812134D01*
X1118308Y812066D01*
X1118230Y811997D01*
X1118166Y811939D01*
X1118142Y811914D01*
X1118117Y811890D01*
X1118113Y811885D01*
X1118103Y811870D01*
X1118083Y811851D01*
X1118059Y811822D01*
X1118005Y811758D01*
X1117952Y811680D01*
X1119527D01*
Y811305D01*
X1117405D01*
Y811310D01*
Y811329D01*
Y811358D01*
X1117410Y811393D01*
X1117415Y811432D01*
X1117420Y811475D01*
X1117435Y811524D01*
X1117449Y811573D01*
Y811578D01*
X1117454Y811583D01*
X1117464Y811612D01*
X1117484Y811651D01*
X1117513Y811710D01*
X1117547Y811773D01*
X1117596Y811846D01*
X1117644Y811919D01*
X1117708Y811997D01*
Y812002D01*
X1117718Y812007D01*
X1117742Y812036D01*
X1117781Y812080D01*
X1117840Y812139D01*
X1117913Y812207D01*
X1118000Y812290D01*
X1118108Y812383D01*
X1118225Y812485D01*
X1118230Y812490D01*
X1118249Y812504D01*
X1118273Y812524D01*
X1118308Y812558D01*
X1118352Y812592D01*
X1118400Y812636D01*
X1118508Y812729D01*
X1118625Y812841D01*
X1118742Y812953D01*
X1118800Y813007D01*
X1118849Y813060D01*
X1118893Y813114D01*
X1118932Y813163D01*
Y813168D01*
X1118942Y813173D01*
X1118951Y813187D01*
X1118961Y813207D01*
X1118990Y813255D01*
X1119025Y813319D01*
X1119059Y813392D01*
X1119088Y813470D01*
X1119107Y813558D01*
X1119117Y813641D01*
Y813646D01*
Y813651D01*
X1119112Y813680D01*
X1119107Y813724D01*
X1119098Y813777D01*
X1119073Y813841D01*
X1119044Y813904D01*
X1119005Y813972D01*
X1118947Y814036D01*
X1118937Y814041D01*
X1118917Y814060D01*
X1118878Y814084D01*
X1118829Y814119D01*
X1118766Y814148D01*
X1118693Y814172D01*
X1118605Y814192D01*
X1118508Y814197D01*
X1118478D01*
X1118459Y814192D01*
X1118410Y814187D01*
X1118347Y814177D01*
X1118273Y814153D01*
X1118195Y814124D01*
X1118122Y814080D01*
X1118054Y814021D01*
X1118049Y814011D01*
X1118030Y813992D01*
X1118000Y813953D01*
X1117971Y813899D01*
X1117937Y813831D01*
X1117913Y813753D01*
X1117893Y813660D01*
X1117883Y813553D01*
X1117479Y813597D01*
Y813602D01*
Y813616D01*
X1117484Y813641D01*
X1117488Y813670D01*
X1117498Y813709D01*
X1117503Y813753D01*
X1117532Y813850D01*
X1117571Y813963D01*
X1117625Y814075D01*
X1117698Y814187D01*
X1117737Y814236D01*
X1117786Y814285D01*
X1117791Y814289D01*
X1117801Y814294D01*
X1117815Y814309D01*
X1117835Y814324D01*
X1117864Y814338D01*
X1117898Y814362D01*
X1117937Y814382D01*
X1117981Y814406D01*
X1118030Y814426D01*
X1118083Y814450D01*
X1118147Y814470D01*
X1118210Y814484D01*
X1118356Y814514D01*
X1118434Y814519D01*
X1118517Y814523D01*
X1118561D01*
X1118595Y814519D01*
D02*
G37*
G36*
X1117274Y811305D02*
X1116796D01*
X1116425Y812275D01*
X1115079D01*
X1114733Y811305D01*
X1114284D01*
X1115508Y814509D01*
X1115972D01*
X1117274Y811305D01*
D02*
G37*
G36*
X1109954Y814504D02*
X1109993D01*
X1110090Y814499D01*
X1110193Y814489D01*
X1110300Y814470D01*
X1110402Y814450D01*
X1110451Y814436D01*
X1110495Y814421D01*
X1110500D01*
X1110505Y814416D01*
X1110534Y814406D01*
X1110573Y814382D01*
X1110622Y814348D01*
X1110680Y814309D01*
X1110739Y814255D01*
X1110797Y814192D01*
X1110851Y814114D01*
X1110856Y814104D01*
X1110871Y814075D01*
X1110895Y814031D01*
X1110919Y813972D01*
X1110944Y813899D01*
X1110968Y813816D01*
X1110983Y813728D01*
X1110988Y813631D01*
Y813626D01*
Y813616D01*
Y813597D01*
X1110983Y813572D01*
Y813543D01*
X1110978Y813509D01*
X1110958Y813431D01*
X1110934Y813338D01*
X1110895Y813246D01*
X1110836Y813148D01*
X1110802Y813099D01*
X1110763Y813055D01*
X1110753Y813046D01*
X1110739Y813036D01*
X1110724Y813017D01*
X1110700Y813002D01*
X1110671Y812978D01*
X1110636Y812958D01*
X1110597Y812934D01*
X1110554Y812909D01*
X1110500Y812885D01*
X1110446Y812860D01*
X1110383Y812836D01*
X1110319Y812812D01*
X1110246Y812792D01*
X1110168Y812777D01*
X1110085Y812763D01*
X1110095Y812758D01*
X1110115Y812748D01*
X1110144Y812734D01*
X1110178Y812714D01*
X1110261Y812661D01*
X1110305Y812631D01*
X1110339Y812602D01*
X1110349Y812592D01*
X1110373Y812573D01*
X1110407Y812534D01*
X1110451Y812485D01*
X1110505Y812421D01*
X1110563Y812348D01*
X1110627Y812265D01*
X1110690Y812173D01*
X1111246Y811305D01*
X1110714D01*
X1110290Y811968D01*
Y811973D01*
X1110280Y811983D01*
X1110271Y811997D01*
X1110261Y812017D01*
X1110227Y812066D01*
X1110183Y812129D01*
X1110134Y812202D01*
X1110080Y812275D01*
X1110032Y812344D01*
X1109983Y812407D01*
X1109978Y812412D01*
X1109963Y812431D01*
X1109939Y812461D01*
X1109915Y812495D01*
X1109842Y812563D01*
X1109807Y812597D01*
X1109768Y812622D01*
X1109763Y812626D01*
X1109754Y812631D01*
X1109734Y812641D01*
X1109710Y812656D01*
X1109651Y812685D01*
X1109578Y812709D01*
X1109573D01*
X1109564Y812714D01*
X1109544D01*
X1109520Y812719D01*
X1109485Y812724D01*
X1109446D01*
X1109398Y812729D01*
X1108851D01*
Y811305D01*
X1108427D01*
Y814509D01*
X1109915D01*
X1109954Y814504D01*
D02*
G37*
G36*
X1106662Y789158D02*
X1106701Y789153D01*
X1106750Y789148D01*
X1106803Y789143D01*
X1106862Y789133D01*
X1106989Y789104D01*
X1107125Y789060D01*
X1107193Y789031D01*
X1107262Y788997D01*
X1107325Y788958D01*
X1107389Y788914D01*
X1107393Y788909D01*
X1107403Y788904D01*
X1107418Y788889D01*
X1107442Y788870D01*
X1107467Y788846D01*
X1107501Y788811D01*
X1107535Y788777D01*
X1107569Y788738D01*
X1107608Y788689D01*
X1107642Y788641D01*
X1107681Y788582D01*
X1107720Y788519D01*
X1107754Y788455D01*
X1107788Y788382D01*
X1107847Y788226D01*
X1107428Y788129D01*
Y788133D01*
X1107423Y788143D01*
X1107418Y788163D01*
X1107408Y788187D01*
X1107393Y788216D01*
X1107379Y788251D01*
X1107345Y788324D01*
X1107301Y788407D01*
X1107242Y788494D01*
X1107179Y788572D01*
X1107101Y788641D01*
X1107091Y788645D01*
X1107062Y788665D01*
X1107018Y788689D01*
X1106954Y788724D01*
X1106881Y788753D01*
X1106789Y788777D01*
X1106686Y788797D01*
X1106569Y788802D01*
X1106535D01*
X1106511Y788797D01*
X1106477D01*
X1106442Y788792D01*
X1106355Y788777D01*
X1106257Y788758D01*
X1106155Y788724D01*
X1106052Y788680D01*
X1105955Y788621D01*
X1105950D01*
X1105945Y788611D01*
X1105916Y788587D01*
X1105872Y788548D01*
X1105818Y788494D01*
X1105764Y788426D01*
X1105706Y788348D01*
X1105652Y788251D01*
X1105609Y788143D01*
Y788138D01*
X1105604Y788129D01*
X1105599Y788114D01*
X1105594Y788090D01*
X1105584Y788065D01*
X1105579Y788031D01*
X1105560Y787953D01*
X1105540Y787860D01*
X1105526Y787758D01*
X1105516Y787646D01*
X1105511Y787529D01*
Y787524D01*
Y787509D01*
Y787490D01*
Y787460D01*
X1105516Y787426D01*
Y787382D01*
X1105521Y787338D01*
X1105526Y787290D01*
X1105540Y787178D01*
X1105560Y787056D01*
X1105589Y786934D01*
X1105628Y786817D01*
Y786812D01*
X1105633Y786802D01*
X1105643Y786787D01*
X1105652Y786768D01*
X1105677Y786709D01*
X1105716Y786646D01*
X1105769Y786568D01*
X1105833Y786495D01*
X1105906Y786422D01*
X1105994Y786358D01*
X1105999D01*
X1106003Y786353D01*
X1106018Y786344D01*
X1106038Y786334D01*
X1106091Y786314D01*
X1106160Y786285D01*
X1106238Y786261D01*
X1106330Y786236D01*
X1106433Y786217D01*
X1106540Y786212D01*
X1106574D01*
X1106598Y786217D01*
X1106628D01*
X1106667Y786222D01*
X1106750Y786236D01*
X1106842Y786261D01*
X1106945Y786300D01*
X1107042Y786348D01*
X1107140Y786417D01*
X1107145Y786422D01*
X1107150Y786427D01*
X1107179Y786456D01*
X1107223Y786505D01*
X1107276Y786568D01*
X1107330Y786656D01*
X1107389Y786758D01*
X1107437Y786885D01*
X1107476Y787026D01*
X1107901Y786919D01*
Y786914D01*
X1107896Y786895D01*
X1107886Y786870D01*
X1107876Y786831D01*
X1107857Y786792D01*
X1107837Y786739D01*
X1107818Y786685D01*
X1107788Y786627D01*
X1107725Y786495D01*
X1107637Y786363D01*
X1107540Y786236D01*
X1107481Y786178D01*
X1107418Y786124D01*
X1107413Y786119D01*
X1107403Y786115D01*
X1107384Y786100D01*
X1107354Y786080D01*
X1107320Y786061D01*
X1107281Y786036D01*
X1107237Y786012D01*
X1107184Y785988D01*
X1107125Y785963D01*
X1107062Y785939D01*
X1106989Y785915D01*
X1106915Y785895D01*
X1106755Y785861D01*
X1106667Y785856D01*
X1106574Y785851D01*
X1106525D01*
X1106486Y785856D01*
X1106442D01*
X1106394Y785861D01*
X1106335Y785871D01*
X1106277Y785875D01*
X1106140Y785905D01*
X1105999Y785939D01*
X1105862Y785993D01*
X1105794Y786022D01*
X1105730Y786061D01*
X1105725Y786066D01*
X1105716Y786071D01*
X1105701Y786085D01*
X1105677Y786100D01*
X1105618Y786149D01*
X1105550Y786217D01*
X1105467Y786300D01*
X1105389Y786407D01*
X1105306Y786529D01*
X1105238Y786670D01*
Y786675D01*
X1105233Y786690D01*
X1105223Y786709D01*
X1105213Y786739D01*
X1105199Y786778D01*
X1105184Y786822D01*
X1105170Y786870D01*
X1105155Y786929D01*
X1105140Y786987D01*
X1105126Y787056D01*
X1105096Y787202D01*
X1105077Y787358D01*
X1105072Y787529D01*
Y787534D01*
Y787553D01*
Y787578D01*
X1105077Y787612D01*
Y787655D01*
X1105082Y787709D01*
X1105087Y787763D01*
X1105096Y787826D01*
X1105121Y787963D01*
X1105150Y788109D01*
X1105199Y788260D01*
X1105262Y788402D01*
Y788407D01*
X1105272Y788416D01*
X1105282Y788436D01*
X1105296Y788465D01*
X1105316Y788494D01*
X1105340Y788529D01*
X1105404Y788611D01*
X1105477Y788704D01*
X1105569Y788797D01*
X1105682Y788889D01*
X1105804Y788967D01*
X1105808D01*
X1105818Y788977D01*
X1105838Y788987D01*
X1105867Y788997D01*
X1105896Y789011D01*
X1105935Y789031D01*
X1105984Y789045D01*
X1106033Y789065D01*
X1106086Y789084D01*
X1106145Y789099D01*
X1106277Y789133D01*
X1106423Y789153D01*
X1106579Y789163D01*
X1106628D01*
X1106662Y789158D01*
D02*
G37*
G36*
X1118556Y789119D02*
X1118620Y789109D01*
X1118693Y789094D01*
X1118776Y789075D01*
X1118859Y789045D01*
X1118942Y789006D01*
X1118947D01*
X1118951Y789001D01*
X1118981Y788987D01*
X1119020Y788962D01*
X1119068Y788928D01*
X1119122Y788885D01*
X1119181Y788831D01*
X1119234Y788767D01*
X1119283Y788699D01*
X1119288Y788689D01*
X1119303Y788665D01*
X1119322Y788626D01*
X1119342Y788577D01*
X1119361Y788514D01*
X1119380Y788446D01*
X1119395Y788372D01*
X1119400Y788289D01*
Y788280D01*
Y788255D01*
X1119395Y788216D01*
X1119385Y788168D01*
X1119371Y788109D01*
X1119351Y788046D01*
X1119327Y787977D01*
X1119288Y787914D01*
X1119283Y787904D01*
X1119268Y787885D01*
X1119239Y787856D01*
X1119205Y787816D01*
X1119156Y787773D01*
X1119103Y787729D01*
X1119034Y787680D01*
X1118956Y787641D01*
X1118961D01*
X1118971Y787636D01*
X1118986D01*
X1119005Y787626D01*
X1119054Y787612D01*
X1119117Y787582D01*
X1119185Y787548D01*
X1119259Y787499D01*
X1119332Y787441D01*
X1119395Y787368D01*
X1119400Y787358D01*
X1119420Y787329D01*
X1119444Y787285D01*
X1119478Y787226D01*
X1119507Y787153D01*
X1119532Y787065D01*
X1119551Y786963D01*
X1119556Y786851D01*
Y786846D01*
Y786831D01*
Y786812D01*
X1119551Y786783D01*
X1119546Y786744D01*
X1119541Y786704D01*
X1119532Y786656D01*
X1119517Y786607D01*
X1119483Y786495D01*
X1119459Y786431D01*
X1119424Y786373D01*
X1119390Y786314D01*
X1119351Y786256D01*
X1119303Y786197D01*
X1119249Y786139D01*
X1119244Y786134D01*
X1119234Y786124D01*
X1119220Y786115D01*
X1119195Y786095D01*
X1119166Y786071D01*
X1119127Y786046D01*
X1119083Y786022D01*
X1119039Y785997D01*
X1118986Y785968D01*
X1118927Y785944D01*
X1118864Y785919D01*
X1118795Y785895D01*
X1118722Y785875D01*
X1118644Y785866D01*
X1118561Y785856D01*
X1118478Y785851D01*
X1118439D01*
X1118410Y785856D01*
X1118371Y785861D01*
X1118332Y785866D01*
X1118283Y785871D01*
X1118234Y785880D01*
X1118122Y785910D01*
X1118005Y785958D01*
X1117947Y785983D01*
X1117893Y786017D01*
X1117835Y786056D01*
X1117781Y786100D01*
X1117776Y786105D01*
X1117771Y786110D01*
X1117757Y786124D01*
X1117737Y786144D01*
X1117718Y786173D01*
X1117693Y786202D01*
X1117664Y786236D01*
X1117639Y786275D01*
X1117581Y786373D01*
X1117532Y786485D01*
X1117488Y786612D01*
X1117474Y786680D01*
X1117464Y786753D01*
X1117859Y786807D01*
Y786802D01*
X1117864Y786792D01*
Y786773D01*
X1117874Y786753D01*
X1117888Y786695D01*
X1117913Y786622D01*
X1117942Y786544D01*
X1117981Y786461D01*
X1118030Y786388D01*
X1118083Y786324D01*
X1118093Y786319D01*
X1118113Y786300D01*
X1118147Y786280D01*
X1118195Y786251D01*
X1118249Y786227D01*
X1118317Y786202D01*
X1118395Y786183D01*
X1118478Y786178D01*
X1118508D01*
X1118527Y786183D01*
X1118576Y786188D01*
X1118639Y786202D01*
X1118717Y786227D01*
X1118795Y786256D01*
X1118873Y786305D01*
X1118947Y786368D01*
X1118956Y786378D01*
X1118976Y786402D01*
X1119005Y786441D01*
X1119044Y786500D01*
X1119078Y786568D01*
X1119107Y786651D01*
X1119127Y786744D01*
X1119137Y786846D01*
Y786851D01*
Y786856D01*
Y786870D01*
X1119132Y786890D01*
X1119127Y786939D01*
X1119112Y787002D01*
X1119093Y787070D01*
X1119059Y787148D01*
X1119015Y787222D01*
X1118956Y787290D01*
X1118947Y787299D01*
X1118927Y787319D01*
X1118888Y787343D01*
X1118834Y787377D01*
X1118771Y787412D01*
X1118693Y787436D01*
X1118610Y787456D01*
X1118512Y787465D01*
X1118469D01*
X1118434Y787460D01*
X1118395Y787456D01*
X1118347Y787451D01*
X1118293Y787441D01*
X1118234Y787426D01*
X1118278Y787773D01*
X1118303D01*
X1118322Y787768D01*
X1118386D01*
X1118430Y787773D01*
X1118493Y787782D01*
X1118561Y787797D01*
X1118634Y787821D01*
X1118712Y787851D01*
X1118790Y787895D01*
X1118800Y787899D01*
X1118825Y787919D01*
X1118854Y787953D01*
X1118893Y787997D01*
X1118932Y788051D01*
X1118961Y788119D01*
X1118986Y788202D01*
X1118995Y788299D01*
Y788304D01*
Y788309D01*
Y788333D01*
X1118986Y788372D01*
X1118976Y788426D01*
X1118961Y788480D01*
X1118932Y788538D01*
X1118898Y788602D01*
X1118849Y788655D01*
X1118844Y788660D01*
X1118825Y788680D01*
X1118790Y788704D01*
X1118747Y788728D01*
X1118693Y788758D01*
X1118630Y788777D01*
X1118556Y788797D01*
X1118474Y788802D01*
X1118434D01*
X1118391Y788792D01*
X1118342Y788782D01*
X1118278Y788767D01*
X1118215Y788738D01*
X1118152Y788704D01*
X1118088Y788655D01*
X1118083Y788650D01*
X1118064Y788631D01*
X1118039Y788597D01*
X1118010Y788548D01*
X1117976Y788490D01*
X1117947Y788416D01*
X1117917Y788328D01*
X1117898Y788226D01*
X1117503Y788294D01*
Y788299D01*
X1117508Y788314D01*
X1117513Y788333D01*
X1117518Y788358D01*
X1117527Y788392D01*
X1117537Y788431D01*
X1117571Y788519D01*
X1117610Y788616D01*
X1117669Y788719D01*
X1117737Y788816D01*
X1117825Y788904D01*
X1117830Y788909D01*
X1117835Y788914D01*
X1117849Y788923D01*
X1117874Y788938D01*
X1117898Y788953D01*
X1117927Y788972D01*
X1118000Y789016D01*
X1118093Y789055D01*
X1118205Y789089D01*
X1118327Y789114D01*
X1118395Y789123D01*
X1118508D01*
X1118556Y789119D01*
D02*
G37*
G36*
X1112972Y787261D02*
Y785905D01*
X1112548D01*
Y787261D01*
X1111314Y789109D01*
X1111826D01*
X1112460Y788138D01*
Y788133D01*
X1112470Y788129D01*
X1112480Y788114D01*
X1112490Y788094D01*
X1112524Y788041D01*
X1112568Y787972D01*
X1112616Y787890D01*
X1112670Y787797D01*
X1112729Y787699D01*
X1112787Y787597D01*
Y787602D01*
X1112792Y787607D01*
X1112802Y787621D01*
X1112812Y787641D01*
X1112841Y787694D01*
X1112885Y787763D01*
X1112933Y787846D01*
X1112997Y787943D01*
X1113065Y788051D01*
X1113138Y788163D01*
X1113758Y789109D01*
X1114250D01*
X1112972Y787261D01*
D02*
G37*
G36*
X1117274Y785905D02*
X1116796D01*
X1116425Y786875D01*
X1115079D01*
X1114733Y785905D01*
X1114284D01*
X1115508Y789109D01*
X1115972D01*
X1117274Y785905D01*
D02*
G37*
G36*
X1109954Y789104D02*
X1109993D01*
X1110090Y789099D01*
X1110193Y789089D01*
X1110300Y789070D01*
X1110402Y789050D01*
X1110451Y789036D01*
X1110495Y789021D01*
X1110500D01*
X1110505Y789016D01*
X1110534Y789006D01*
X1110573Y788982D01*
X1110622Y788948D01*
X1110680Y788909D01*
X1110739Y788855D01*
X1110797Y788792D01*
X1110851Y788714D01*
X1110856Y788704D01*
X1110871Y788675D01*
X1110895Y788631D01*
X1110919Y788572D01*
X1110944Y788499D01*
X1110968Y788416D01*
X1110983Y788328D01*
X1110988Y788231D01*
Y788226D01*
Y788216D01*
Y788197D01*
X1110983Y788173D01*
Y788143D01*
X1110978Y788109D01*
X1110958Y788031D01*
X1110934Y787938D01*
X1110895Y787846D01*
X1110836Y787748D01*
X1110802Y787699D01*
X1110763Y787655D01*
X1110753Y787646D01*
X1110739Y787636D01*
X1110724Y787617D01*
X1110700Y787602D01*
X1110671Y787578D01*
X1110636Y787558D01*
X1110597Y787534D01*
X1110554Y787509D01*
X1110500Y787485D01*
X1110446Y787460D01*
X1110383Y787436D01*
X1110319Y787412D01*
X1110246Y787392D01*
X1110168Y787377D01*
X1110085Y787363D01*
X1110095Y787358D01*
X1110115Y787348D01*
X1110144Y787334D01*
X1110178Y787314D01*
X1110261Y787261D01*
X1110305Y787231D01*
X1110339Y787202D01*
X1110349Y787192D01*
X1110373Y787173D01*
X1110407Y787134D01*
X1110451Y787085D01*
X1110505Y787021D01*
X1110563Y786948D01*
X1110627Y786865D01*
X1110690Y786773D01*
X1111246Y785905D01*
X1110714D01*
X1110290Y786568D01*
Y786573D01*
X1110280Y786583D01*
X1110271Y786597D01*
X1110261Y786617D01*
X1110227Y786665D01*
X1110183Y786729D01*
X1110134Y786802D01*
X1110080Y786875D01*
X1110032Y786944D01*
X1109983Y787007D01*
X1109978Y787012D01*
X1109963Y787031D01*
X1109939Y787061D01*
X1109915Y787095D01*
X1109842Y787163D01*
X1109807Y787197D01*
X1109768Y787222D01*
X1109763Y787226D01*
X1109754Y787231D01*
X1109734Y787241D01*
X1109710Y787256D01*
X1109651Y787285D01*
X1109578Y787309D01*
X1109573D01*
X1109564Y787314D01*
X1109544D01*
X1109520Y787319D01*
X1109485Y787324D01*
X1109446D01*
X1109398Y787329D01*
X1108851D01*
Y785905D01*
X1108427D01*
Y789109D01*
X1109915D01*
X1109954Y789104D01*
D02*
G37*
G36*
X1106662Y765028D02*
X1106701Y765023D01*
X1106750Y765018D01*
X1106803Y765013D01*
X1106862Y765003D01*
X1106989Y764974D01*
X1107125Y764930D01*
X1107193Y764901D01*
X1107262Y764867D01*
X1107325Y764828D01*
X1107389Y764784D01*
X1107393Y764779D01*
X1107403Y764774D01*
X1107418Y764759D01*
X1107442Y764740D01*
X1107467Y764715D01*
X1107501Y764681D01*
X1107535Y764647D01*
X1107569Y764608D01*
X1107608Y764559D01*
X1107642Y764511D01*
X1107681Y764452D01*
X1107720Y764389D01*
X1107754Y764325D01*
X1107788Y764252D01*
X1107847Y764096D01*
X1107428Y763999D01*
Y764004D01*
X1107423Y764013D01*
X1107418Y764033D01*
X1107408Y764057D01*
X1107393Y764086D01*
X1107379Y764120D01*
X1107345Y764194D01*
X1107301Y764277D01*
X1107242Y764364D01*
X1107179Y764442D01*
X1107101Y764511D01*
X1107091Y764516D01*
X1107062Y764535D01*
X1107018Y764559D01*
X1106954Y764594D01*
X1106881Y764623D01*
X1106789Y764647D01*
X1106686Y764667D01*
X1106569Y764672D01*
X1106535D01*
X1106511Y764667D01*
X1106477D01*
X1106442Y764662D01*
X1106355Y764647D01*
X1106257Y764628D01*
X1106155Y764594D01*
X1106052Y764550D01*
X1105955Y764491D01*
X1105950D01*
X1105945Y764481D01*
X1105916Y764457D01*
X1105872Y764418D01*
X1105818Y764364D01*
X1105764Y764296D01*
X1105706Y764218D01*
X1105652Y764120D01*
X1105609Y764013D01*
Y764008D01*
X1105604Y763999D01*
X1105599Y763984D01*
X1105594Y763960D01*
X1105584Y763935D01*
X1105579Y763901D01*
X1105560Y763823D01*
X1105540Y763730D01*
X1105526Y763628D01*
X1105516Y763516D01*
X1105511Y763399D01*
Y763394D01*
Y763379D01*
Y763360D01*
Y763331D01*
X1105516Y763296D01*
Y763252D01*
X1105521Y763208D01*
X1105526Y763160D01*
X1105540Y763048D01*
X1105560Y762926D01*
X1105589Y762804D01*
X1105628Y762687D01*
Y762682D01*
X1105633Y762672D01*
X1105643Y762657D01*
X1105652Y762638D01*
X1105677Y762579D01*
X1105716Y762516D01*
X1105769Y762438D01*
X1105833Y762365D01*
X1105906Y762292D01*
X1105994Y762228D01*
X1105999D01*
X1106003Y762223D01*
X1106018Y762214D01*
X1106038Y762204D01*
X1106091Y762184D01*
X1106160Y762155D01*
X1106238Y762131D01*
X1106330Y762106D01*
X1106433Y762087D01*
X1106540Y762082D01*
X1106574D01*
X1106598Y762087D01*
X1106628D01*
X1106667Y762092D01*
X1106750Y762106D01*
X1106842Y762131D01*
X1106945Y762170D01*
X1107042Y762218D01*
X1107140Y762287D01*
X1107145Y762292D01*
X1107150Y762297D01*
X1107179Y762326D01*
X1107223Y762375D01*
X1107276Y762438D01*
X1107330Y762526D01*
X1107389Y762628D01*
X1107437Y762755D01*
X1107476Y762896D01*
X1107901Y762789D01*
Y762784D01*
X1107896Y762765D01*
X1107886Y762740D01*
X1107876Y762701D01*
X1107857Y762662D01*
X1107837Y762609D01*
X1107818Y762555D01*
X1107788Y762496D01*
X1107725Y762365D01*
X1107637Y762233D01*
X1107540Y762106D01*
X1107481Y762048D01*
X1107418Y761994D01*
X1107413Y761989D01*
X1107403Y761984D01*
X1107384Y761970D01*
X1107354Y761950D01*
X1107320Y761931D01*
X1107281Y761906D01*
X1107237Y761882D01*
X1107184Y761858D01*
X1107125Y761833D01*
X1107062Y761809D01*
X1106989Y761785D01*
X1106915Y761765D01*
X1106755Y761731D01*
X1106667Y761726D01*
X1106574Y761721D01*
X1106525D01*
X1106486Y761726D01*
X1106442D01*
X1106394Y761731D01*
X1106335Y761741D01*
X1106277Y761746D01*
X1106140Y761775D01*
X1105999Y761809D01*
X1105862Y761862D01*
X1105794Y761892D01*
X1105730Y761931D01*
X1105725Y761936D01*
X1105716Y761941D01*
X1105701Y761955D01*
X1105677Y761970D01*
X1105618Y762019D01*
X1105550Y762087D01*
X1105467Y762170D01*
X1105389Y762277D01*
X1105306Y762399D01*
X1105238Y762540D01*
Y762545D01*
X1105233Y762560D01*
X1105223Y762579D01*
X1105213Y762609D01*
X1105199Y762648D01*
X1105184Y762692D01*
X1105170Y762740D01*
X1105155Y762799D01*
X1105140Y762857D01*
X1105126Y762926D01*
X1105096Y763072D01*
X1105077Y763228D01*
X1105072Y763399D01*
Y763404D01*
Y763423D01*
Y763447D01*
X1105077Y763482D01*
Y763525D01*
X1105082Y763579D01*
X1105087Y763633D01*
X1105096Y763696D01*
X1105121Y763833D01*
X1105150Y763979D01*
X1105199Y764130D01*
X1105262Y764272D01*
Y764277D01*
X1105272Y764286D01*
X1105282Y764306D01*
X1105296Y764335D01*
X1105316Y764364D01*
X1105340Y764398D01*
X1105404Y764481D01*
X1105477Y764574D01*
X1105569Y764667D01*
X1105682Y764759D01*
X1105804Y764837D01*
X1105808D01*
X1105818Y764847D01*
X1105838Y764857D01*
X1105867Y764867D01*
X1105896Y764881D01*
X1105935Y764901D01*
X1105984Y764915D01*
X1106033Y764935D01*
X1106086Y764954D01*
X1106145Y764969D01*
X1106277Y765003D01*
X1106423Y765023D01*
X1106579Y765033D01*
X1106628D01*
X1106662Y765028D01*
D02*
G37*
G36*
X1112972Y763130D02*
Y761775D01*
X1112548D01*
Y763130D01*
X1111314Y764979D01*
X1111826D01*
X1112460Y764008D01*
Y764004D01*
X1112470Y763999D01*
X1112480Y763984D01*
X1112490Y763964D01*
X1112524Y763911D01*
X1112568Y763842D01*
X1112616Y763760D01*
X1112670Y763667D01*
X1112729Y763569D01*
X1112787Y763467D01*
Y763472D01*
X1112792Y763477D01*
X1112802Y763491D01*
X1112812Y763511D01*
X1112841Y763565D01*
X1112885Y763633D01*
X1112933Y763716D01*
X1112997Y763813D01*
X1113065Y763921D01*
X1113138Y764033D01*
X1113758Y764979D01*
X1114250D01*
X1112972Y763130D01*
D02*
G37*
G36*
X1119112Y762901D02*
X1119546D01*
Y762540D01*
X1119112D01*
Y761775D01*
X1118717D01*
Y762540D01*
X1117327D01*
Y762901D01*
X1118790Y764974D01*
X1119112D01*
Y762901D01*
D02*
G37*
G36*
X1117274Y761775D02*
X1116796D01*
X1116425Y762745D01*
X1115079D01*
X1114733Y761775D01*
X1114284D01*
X1115508Y764979D01*
X1115972D01*
X1117274Y761775D01*
D02*
G37*
G36*
X1109954Y764974D02*
X1109993D01*
X1110090Y764969D01*
X1110193Y764959D01*
X1110300Y764940D01*
X1110402Y764920D01*
X1110451Y764906D01*
X1110495Y764891D01*
X1110500D01*
X1110505Y764886D01*
X1110534Y764876D01*
X1110573Y764852D01*
X1110622Y764818D01*
X1110680Y764779D01*
X1110739Y764725D01*
X1110797Y764662D01*
X1110851Y764584D01*
X1110856Y764574D01*
X1110871Y764545D01*
X1110895Y764501D01*
X1110919Y764442D01*
X1110944Y764369D01*
X1110968Y764286D01*
X1110983Y764199D01*
X1110988Y764101D01*
Y764096D01*
Y764086D01*
Y764067D01*
X1110983Y764043D01*
Y764013D01*
X1110978Y763979D01*
X1110958Y763901D01*
X1110934Y763808D01*
X1110895Y763716D01*
X1110836Y763618D01*
X1110802Y763569D01*
X1110763Y763525D01*
X1110753Y763516D01*
X1110739Y763506D01*
X1110724Y763486D01*
X1110700Y763472D01*
X1110671Y763447D01*
X1110636Y763428D01*
X1110597Y763404D01*
X1110554Y763379D01*
X1110500Y763355D01*
X1110446Y763331D01*
X1110383Y763306D01*
X1110319Y763282D01*
X1110246Y763262D01*
X1110168Y763248D01*
X1110085Y763233D01*
X1110095Y763228D01*
X1110115Y763218D01*
X1110144Y763204D01*
X1110178Y763184D01*
X1110261Y763130D01*
X1110305Y763101D01*
X1110339Y763072D01*
X1110349Y763062D01*
X1110373Y763043D01*
X1110407Y763004D01*
X1110451Y762955D01*
X1110505Y762891D01*
X1110563Y762818D01*
X1110627Y762736D01*
X1110690Y762643D01*
X1111246Y761775D01*
X1110714D01*
X1110290Y762438D01*
Y762443D01*
X1110280Y762453D01*
X1110271Y762467D01*
X1110261Y762487D01*
X1110227Y762535D01*
X1110183Y762599D01*
X1110134Y762672D01*
X1110080Y762745D01*
X1110032Y762813D01*
X1109983Y762877D01*
X1109978Y762882D01*
X1109963Y762901D01*
X1109939Y762931D01*
X1109915Y762965D01*
X1109842Y763033D01*
X1109807Y763067D01*
X1109768Y763092D01*
X1109763Y763096D01*
X1109754Y763101D01*
X1109734Y763111D01*
X1109710Y763126D01*
X1109651Y763155D01*
X1109578Y763179D01*
X1109573D01*
X1109564Y763184D01*
X1109544D01*
X1109520Y763189D01*
X1109485Y763194D01*
X1109446D01*
X1109398Y763199D01*
X1108851D01*
Y761775D01*
X1108427D01*
Y764979D01*
X1109915D01*
X1109954Y764974D01*
D02*
G37*
G36*
X1106662Y738358D02*
X1106701Y738353D01*
X1106750Y738348D01*
X1106803Y738343D01*
X1106862Y738333D01*
X1106989Y738304D01*
X1107125Y738260D01*
X1107193Y738231D01*
X1107262Y738197D01*
X1107325Y738158D01*
X1107389Y738114D01*
X1107393Y738109D01*
X1107403Y738104D01*
X1107418Y738089D01*
X1107442Y738070D01*
X1107467Y738046D01*
X1107501Y738011D01*
X1107535Y737977D01*
X1107569Y737938D01*
X1107608Y737889D01*
X1107642Y737841D01*
X1107681Y737782D01*
X1107720Y737719D01*
X1107754Y737655D01*
X1107788Y737582D01*
X1107847Y737426D01*
X1107428Y737329D01*
Y737334D01*
X1107423Y737343D01*
X1107418Y737363D01*
X1107408Y737387D01*
X1107393Y737416D01*
X1107379Y737450D01*
X1107345Y737524D01*
X1107301Y737607D01*
X1107242Y737694D01*
X1107179Y737772D01*
X1107101Y737841D01*
X1107091Y737846D01*
X1107062Y737865D01*
X1107018Y737889D01*
X1106954Y737924D01*
X1106881Y737953D01*
X1106789Y737977D01*
X1106686Y737997D01*
X1106569Y738002D01*
X1106535D01*
X1106511Y737997D01*
X1106477D01*
X1106442Y737992D01*
X1106355Y737977D01*
X1106257Y737958D01*
X1106155Y737924D01*
X1106052Y737880D01*
X1105955Y737821D01*
X1105950D01*
X1105945Y737811D01*
X1105916Y737787D01*
X1105872Y737748D01*
X1105818Y737694D01*
X1105764Y737626D01*
X1105706Y737548D01*
X1105652Y737450D01*
X1105609Y737343D01*
Y737338D01*
X1105604Y737329D01*
X1105599Y737314D01*
X1105594Y737290D01*
X1105584Y737265D01*
X1105579Y737231D01*
X1105560Y737153D01*
X1105540Y737060D01*
X1105526Y736958D01*
X1105516Y736846D01*
X1105511Y736729D01*
Y736724D01*
Y736709D01*
Y736690D01*
Y736661D01*
X1105516Y736626D01*
Y736582D01*
X1105521Y736538D01*
X1105526Y736490D01*
X1105540Y736378D01*
X1105560Y736256D01*
X1105589Y736134D01*
X1105628Y736017D01*
Y736012D01*
X1105633Y736002D01*
X1105643Y735987D01*
X1105652Y735968D01*
X1105677Y735909D01*
X1105716Y735846D01*
X1105769Y735768D01*
X1105833Y735695D01*
X1105906Y735622D01*
X1105994Y735558D01*
X1105999D01*
X1106003Y735553D01*
X1106018Y735544D01*
X1106038Y735534D01*
X1106091Y735514D01*
X1106160Y735485D01*
X1106238Y735461D01*
X1106330Y735436D01*
X1106433Y735417D01*
X1106540Y735412D01*
X1106574D01*
X1106598Y735417D01*
X1106628D01*
X1106667Y735422D01*
X1106750Y735436D01*
X1106842Y735461D01*
X1106945Y735500D01*
X1107042Y735548D01*
X1107140Y735617D01*
X1107145Y735622D01*
X1107150Y735627D01*
X1107179Y735656D01*
X1107223Y735705D01*
X1107276Y735768D01*
X1107330Y735856D01*
X1107389Y735958D01*
X1107437Y736085D01*
X1107476Y736226D01*
X1107901Y736119D01*
Y736114D01*
X1107896Y736095D01*
X1107886Y736070D01*
X1107876Y736031D01*
X1107857Y735992D01*
X1107837Y735939D01*
X1107818Y735885D01*
X1107788Y735826D01*
X1107725Y735695D01*
X1107637Y735563D01*
X1107540Y735436D01*
X1107481Y735378D01*
X1107418Y735324D01*
X1107413Y735319D01*
X1107403Y735314D01*
X1107384Y735300D01*
X1107354Y735280D01*
X1107320Y735261D01*
X1107281Y735236D01*
X1107237Y735212D01*
X1107184Y735188D01*
X1107125Y735163D01*
X1107062Y735139D01*
X1106989Y735115D01*
X1106915Y735095D01*
X1106755Y735061D01*
X1106667Y735056D01*
X1106574Y735051D01*
X1106525D01*
X1106486Y735056D01*
X1106442D01*
X1106394Y735061D01*
X1106335Y735071D01*
X1106277Y735076D01*
X1106140Y735105D01*
X1105999Y735139D01*
X1105862Y735192D01*
X1105794Y735222D01*
X1105730Y735261D01*
X1105725Y735266D01*
X1105716Y735271D01*
X1105701Y735285D01*
X1105677Y735300D01*
X1105618Y735349D01*
X1105550Y735417D01*
X1105467Y735500D01*
X1105389Y735607D01*
X1105306Y735729D01*
X1105238Y735870D01*
Y735875D01*
X1105233Y735890D01*
X1105223Y735909D01*
X1105213Y735939D01*
X1105199Y735978D01*
X1105184Y736022D01*
X1105170Y736070D01*
X1105155Y736129D01*
X1105140Y736187D01*
X1105126Y736256D01*
X1105096Y736402D01*
X1105077Y736558D01*
X1105072Y736729D01*
Y736734D01*
Y736753D01*
Y736777D01*
X1105077Y736812D01*
Y736855D01*
X1105082Y736909D01*
X1105087Y736963D01*
X1105096Y737026D01*
X1105121Y737163D01*
X1105150Y737309D01*
X1105199Y737460D01*
X1105262Y737602D01*
Y737607D01*
X1105272Y737616D01*
X1105282Y737636D01*
X1105296Y737665D01*
X1105316Y737694D01*
X1105340Y737729D01*
X1105404Y737811D01*
X1105477Y737904D01*
X1105569Y737997D01*
X1105682Y738089D01*
X1105804Y738167D01*
X1105808D01*
X1105818Y738177D01*
X1105838Y738187D01*
X1105867Y738197D01*
X1105896Y738211D01*
X1105935Y738231D01*
X1105984Y738245D01*
X1106033Y738265D01*
X1106086Y738284D01*
X1106145Y738299D01*
X1106277Y738333D01*
X1106423Y738353D01*
X1106579Y738363D01*
X1106628D01*
X1106662Y738358D01*
D02*
G37*
G36*
X1112972Y736460D02*
Y735105D01*
X1112548D01*
Y736460D01*
X1111314Y738309D01*
X1111826D01*
X1112460Y737338D01*
Y737334D01*
X1112470Y737329D01*
X1112480Y737314D01*
X1112490Y737294D01*
X1112524Y737241D01*
X1112568Y737172D01*
X1112616Y737090D01*
X1112670Y736997D01*
X1112729Y736899D01*
X1112787Y736797D01*
Y736802D01*
X1112792Y736807D01*
X1112802Y736821D01*
X1112812Y736841D01*
X1112841Y736895D01*
X1112885Y736963D01*
X1112933Y737046D01*
X1112997Y737143D01*
X1113065Y737251D01*
X1113138Y737363D01*
X1113758Y738309D01*
X1114250D01*
X1112972Y736460D01*
D02*
G37*
G36*
X1119429Y737885D02*
X1118152D01*
X1117976Y737021D01*
X1117981Y737026D01*
X1117991Y737031D01*
X1118005Y737041D01*
X1118025Y737056D01*
X1118054Y737070D01*
X1118083Y737085D01*
X1118161Y737124D01*
X1118249Y737163D01*
X1118352Y737192D01*
X1118464Y737216D01*
X1118581Y737226D01*
X1118620D01*
X1118649Y737221D01*
X1118688Y737216D01*
X1118727Y737212D01*
X1118776Y737202D01*
X1118825Y737192D01*
X1118937Y737153D01*
X1118995Y737133D01*
X1119054Y737104D01*
X1119117Y737070D01*
X1119176Y737031D01*
X1119234Y736987D01*
X1119288Y736934D01*
X1119293Y736929D01*
X1119303Y736919D01*
X1119317Y736904D01*
X1119332Y736880D01*
X1119356Y736851D01*
X1119380Y736816D01*
X1119405Y736777D01*
X1119434Y736734D01*
X1119463Y736680D01*
X1119488Y736626D01*
X1119512Y736563D01*
X1119537Y736499D01*
X1119551Y736426D01*
X1119566Y736353D01*
X1119576Y736270D01*
X1119581Y736187D01*
Y736182D01*
Y736168D01*
Y736143D01*
X1119576Y736114D01*
X1119571Y736075D01*
X1119566Y736031D01*
X1119561Y735983D01*
X1119551Y735929D01*
X1119517Y735812D01*
X1119473Y735690D01*
X1119444Y735622D01*
X1119410Y735558D01*
X1119371Y735495D01*
X1119327Y735436D01*
X1119322Y735432D01*
X1119312Y735422D01*
X1119293Y735402D01*
X1119268Y735378D01*
X1119239Y735349D01*
X1119200Y735314D01*
X1119156Y735280D01*
X1119103Y735246D01*
X1119049Y735207D01*
X1118986Y735173D01*
X1118912Y735139D01*
X1118839Y735110D01*
X1118756Y735085D01*
X1118673Y735066D01*
X1118581Y735056D01*
X1118483Y735051D01*
X1118439D01*
X1118410Y735056D01*
X1118376Y735061D01*
X1118332Y735066D01*
X1118283Y735071D01*
X1118230Y735080D01*
X1118117Y735110D01*
X1118000Y735154D01*
X1117942Y735183D01*
X1117883Y735217D01*
X1117825Y735251D01*
X1117771Y735295D01*
X1117766Y735300D01*
X1117761Y735305D01*
X1117747Y735319D01*
X1117727Y735339D01*
X1117708Y735363D01*
X1117683Y735393D01*
X1117659Y735427D01*
X1117630Y735466D01*
X1117576Y735558D01*
X1117523Y735670D01*
X1117484Y735797D01*
X1117469Y735870D01*
X1117459Y735944D01*
X1117874Y735973D01*
Y735968D01*
Y735958D01*
X1117878Y735944D01*
X1117883Y735924D01*
X1117898Y735870D01*
X1117917Y735802D01*
X1117942Y735729D01*
X1117981Y735656D01*
X1118025Y735583D01*
X1118083Y735519D01*
X1118093Y735514D01*
X1118113Y735495D01*
X1118147Y735475D01*
X1118195Y735446D01*
X1118254Y735422D01*
X1118322Y735397D01*
X1118400Y735378D01*
X1118483Y735373D01*
X1118512D01*
X1118532Y735378D01*
X1118586Y735383D01*
X1118654Y735397D01*
X1118727Y735427D01*
X1118810Y735461D01*
X1118888Y735514D01*
X1118927Y735544D01*
X1118966Y735583D01*
Y735588D01*
X1118976Y735592D01*
X1118995Y735622D01*
X1119029Y735670D01*
X1119063Y735734D01*
X1119098Y735817D01*
X1119132Y735914D01*
X1119151Y736027D01*
X1119161Y736153D01*
Y736158D01*
Y736168D01*
Y736187D01*
X1119156Y736207D01*
Y736236D01*
X1119151Y736270D01*
X1119137Y736348D01*
X1119117Y736431D01*
X1119083Y736519D01*
X1119034Y736607D01*
X1118971Y736685D01*
X1118961Y736695D01*
X1118937Y736714D01*
X1118898Y736748D01*
X1118839Y736782D01*
X1118771Y736816D01*
X1118683Y736851D01*
X1118586Y736870D01*
X1118478Y736880D01*
X1118444D01*
X1118410Y736875D01*
X1118361Y736870D01*
X1118308Y736855D01*
X1118249Y736841D01*
X1118191Y736816D01*
X1118132Y736787D01*
X1118127Y736782D01*
X1118108Y736773D01*
X1118078Y736753D01*
X1118044Y736729D01*
X1118010Y736695D01*
X1117971Y736656D01*
X1117932Y736612D01*
X1117898Y736563D01*
X1117527Y736617D01*
X1117840Y738260D01*
X1119429D01*
Y737885D01*
D02*
G37*
G36*
X1117274Y735105D02*
X1116796D01*
X1116425Y736075D01*
X1115079D01*
X1114733Y735105D01*
X1114284D01*
X1115508Y738309D01*
X1115972D01*
X1117274Y735105D01*
D02*
G37*
G36*
X1109954Y738304D02*
X1109993D01*
X1110090Y738299D01*
X1110193Y738289D01*
X1110300Y738270D01*
X1110402Y738250D01*
X1110451Y738236D01*
X1110495Y738221D01*
X1110500D01*
X1110505Y738216D01*
X1110534Y738206D01*
X1110573Y738182D01*
X1110622Y738148D01*
X1110680Y738109D01*
X1110739Y738055D01*
X1110797Y737992D01*
X1110851Y737914D01*
X1110856Y737904D01*
X1110871Y737875D01*
X1110895Y737831D01*
X1110919Y737772D01*
X1110944Y737699D01*
X1110968Y737616D01*
X1110983Y737529D01*
X1110988Y737431D01*
Y737426D01*
Y737416D01*
Y737397D01*
X1110983Y737373D01*
Y737343D01*
X1110978Y737309D01*
X1110958Y737231D01*
X1110934Y737138D01*
X1110895Y737046D01*
X1110836Y736948D01*
X1110802Y736899D01*
X1110763Y736855D01*
X1110753Y736846D01*
X1110739Y736836D01*
X1110724Y736816D01*
X1110700Y736802D01*
X1110671Y736777D01*
X1110636Y736758D01*
X1110597Y736734D01*
X1110554Y736709D01*
X1110500Y736685D01*
X1110446Y736661D01*
X1110383Y736636D01*
X1110319Y736612D01*
X1110246Y736592D01*
X1110168Y736578D01*
X1110085Y736563D01*
X1110095Y736558D01*
X1110115Y736548D01*
X1110144Y736534D01*
X1110178Y736514D01*
X1110261Y736460D01*
X1110305Y736431D01*
X1110339Y736402D01*
X1110349Y736392D01*
X1110373Y736373D01*
X1110407Y736334D01*
X1110451Y736285D01*
X1110505Y736221D01*
X1110563Y736148D01*
X1110627Y736066D01*
X1110690Y735973D01*
X1111246Y735105D01*
X1110714D01*
X1110290Y735768D01*
Y735773D01*
X1110280Y735783D01*
X1110271Y735797D01*
X1110261Y735817D01*
X1110227Y735865D01*
X1110183Y735929D01*
X1110134Y736002D01*
X1110080Y736075D01*
X1110032Y736143D01*
X1109983Y736207D01*
X1109978Y736212D01*
X1109963Y736231D01*
X1109939Y736261D01*
X1109915Y736295D01*
X1109842Y736363D01*
X1109807Y736397D01*
X1109768Y736422D01*
X1109763Y736426D01*
X1109754Y736431D01*
X1109734Y736441D01*
X1109710Y736456D01*
X1109651Y736485D01*
X1109578Y736509D01*
X1109573D01*
X1109564Y736514D01*
X1109544D01*
X1109520Y736519D01*
X1109485Y736524D01*
X1109446D01*
X1109398Y736529D01*
X1108851D01*
Y735105D01*
X1108427D01*
Y738309D01*
X1109915D01*
X1109954Y738304D01*
D02*
G37*
G36*
X1045702Y738358D02*
X1045741Y738353D01*
X1045790Y738348D01*
X1045843Y738343D01*
X1045902Y738333D01*
X1046029Y738304D01*
X1046165Y738260D01*
X1046233Y738231D01*
X1046302Y738197D01*
X1046365Y738158D01*
X1046429Y738114D01*
X1046433Y738109D01*
X1046443Y738104D01*
X1046458Y738089D01*
X1046482Y738070D01*
X1046507Y738046D01*
X1046541Y738011D01*
X1046575Y737977D01*
X1046609Y737938D01*
X1046648Y737889D01*
X1046682Y737841D01*
X1046721Y737782D01*
X1046760Y737719D01*
X1046794Y737655D01*
X1046828Y737582D01*
X1046887Y737426D01*
X1046468Y737329D01*
Y737334D01*
X1046463Y737343D01*
X1046458Y737363D01*
X1046448Y737387D01*
X1046433Y737416D01*
X1046419Y737450D01*
X1046385Y737524D01*
X1046341Y737607D01*
X1046282Y737694D01*
X1046219Y737772D01*
X1046141Y737841D01*
X1046131Y737846D01*
X1046102Y737865D01*
X1046058Y737889D01*
X1045994Y737924D01*
X1045921Y737953D01*
X1045829Y737977D01*
X1045726Y737997D01*
X1045609Y738002D01*
X1045575D01*
X1045551Y737997D01*
X1045517D01*
X1045482Y737992D01*
X1045395Y737977D01*
X1045297Y737958D01*
X1045195Y737924D01*
X1045092Y737880D01*
X1044995Y737821D01*
X1044990D01*
X1044985Y737811D01*
X1044956Y737787D01*
X1044912Y737748D01*
X1044858Y737694D01*
X1044805Y737626D01*
X1044746Y737548D01*
X1044692Y737450D01*
X1044649Y737343D01*
Y737338D01*
X1044644Y737329D01*
X1044639Y737314D01*
X1044634Y737290D01*
X1044624Y737265D01*
X1044619Y737231D01*
X1044600Y737153D01*
X1044580Y737060D01*
X1044566Y736958D01*
X1044556Y736846D01*
X1044551Y736729D01*
Y736724D01*
Y736709D01*
Y736690D01*
Y736661D01*
X1044556Y736626D01*
Y736582D01*
X1044561Y736538D01*
X1044566Y736490D01*
X1044580Y736378D01*
X1044600Y736256D01*
X1044629Y736134D01*
X1044668Y736017D01*
Y736012D01*
X1044673Y736002D01*
X1044683Y735987D01*
X1044692Y735968D01*
X1044717Y735909D01*
X1044756Y735846D01*
X1044809Y735768D01*
X1044873Y735695D01*
X1044946Y735622D01*
X1045034Y735558D01*
X1045039D01*
X1045043Y735553D01*
X1045058Y735544D01*
X1045078Y735534D01*
X1045131Y735514D01*
X1045200Y735485D01*
X1045278Y735461D01*
X1045370Y735436D01*
X1045473Y735417D01*
X1045580Y735412D01*
X1045614D01*
X1045638Y735417D01*
X1045668D01*
X1045707Y735422D01*
X1045790Y735436D01*
X1045882Y735461D01*
X1045985Y735500D01*
X1046082Y735548D01*
X1046180Y735617D01*
X1046185Y735622D01*
X1046189Y735627D01*
X1046219Y735656D01*
X1046263Y735705D01*
X1046316Y735768D01*
X1046370Y735856D01*
X1046429Y735958D01*
X1046477Y736085D01*
X1046516Y736226D01*
X1046941Y736119D01*
Y736114D01*
X1046936Y736095D01*
X1046926Y736070D01*
X1046916Y736031D01*
X1046897Y735992D01*
X1046877Y735939D01*
X1046858Y735885D01*
X1046828Y735826D01*
X1046765Y735695D01*
X1046677Y735563D01*
X1046580Y735436D01*
X1046521Y735378D01*
X1046458Y735324D01*
X1046453Y735319D01*
X1046443Y735314D01*
X1046424Y735300D01*
X1046394Y735280D01*
X1046360Y735261D01*
X1046321Y735236D01*
X1046277Y735212D01*
X1046224Y735188D01*
X1046165Y735163D01*
X1046102Y735139D01*
X1046029Y735115D01*
X1045955Y735095D01*
X1045795Y735061D01*
X1045707Y735056D01*
X1045614Y735051D01*
X1045565D01*
X1045526Y735056D01*
X1045482D01*
X1045434Y735061D01*
X1045375Y735071D01*
X1045317Y735076D01*
X1045180Y735105D01*
X1045039Y735139D01*
X1044902Y735192D01*
X1044834Y735222D01*
X1044770Y735261D01*
X1044765Y735266D01*
X1044756Y735271D01*
X1044741Y735285D01*
X1044717Y735300D01*
X1044658Y735349D01*
X1044590Y735417D01*
X1044507Y735500D01*
X1044429Y735607D01*
X1044346Y735729D01*
X1044278Y735870D01*
Y735875D01*
X1044273Y735890D01*
X1044263Y735909D01*
X1044253Y735939D01*
X1044239Y735978D01*
X1044224Y736022D01*
X1044210Y736070D01*
X1044195Y736129D01*
X1044180Y736187D01*
X1044166Y736256D01*
X1044136Y736402D01*
X1044117Y736558D01*
X1044112Y736729D01*
Y736734D01*
Y736753D01*
Y736777D01*
X1044117Y736812D01*
Y736855D01*
X1044122Y736909D01*
X1044127Y736963D01*
X1044136Y737026D01*
X1044161Y737163D01*
X1044190Y737309D01*
X1044239Y737460D01*
X1044302Y737602D01*
Y737607D01*
X1044312Y737616D01*
X1044322Y737636D01*
X1044336Y737665D01*
X1044356Y737694D01*
X1044380Y737729D01*
X1044444Y737811D01*
X1044517Y737904D01*
X1044609Y737997D01*
X1044722Y738089D01*
X1044844Y738167D01*
X1044848D01*
X1044858Y738177D01*
X1044878Y738187D01*
X1044907Y738197D01*
X1044936Y738211D01*
X1044975Y738231D01*
X1045024Y738245D01*
X1045073Y738265D01*
X1045126Y738284D01*
X1045185Y738299D01*
X1045317Y738333D01*
X1045463Y738353D01*
X1045619Y738363D01*
X1045668D01*
X1045702Y738358D01*
D02*
G37*
G36*
X1056314Y735105D02*
X1055836D01*
X1055465Y736075D01*
X1054119D01*
X1053773Y735105D01*
X1053324D01*
X1054548Y738309D01*
X1055012D01*
X1056314Y735105D01*
D02*
G37*
G36*
X1052076Y738304D02*
X1052154Y738299D01*
X1052237Y738294D01*
X1052315Y738284D01*
X1052383Y738275D01*
X1052393D01*
X1052422Y738265D01*
X1052466Y738255D01*
X1052520Y738241D01*
X1052583Y738221D01*
X1052646Y738197D01*
X1052715Y738163D01*
X1052778Y738123D01*
X1052783Y738119D01*
X1052807Y738104D01*
X1052837Y738080D01*
X1052871Y738046D01*
X1052910Y738002D01*
X1052954Y737948D01*
X1052998Y737889D01*
X1053037Y737816D01*
X1053041Y737806D01*
X1053051Y737782D01*
X1053066Y737743D01*
X1053085Y737690D01*
X1053105Y737626D01*
X1053120Y737553D01*
X1053129Y737470D01*
X1053134Y737382D01*
Y737377D01*
Y737363D01*
Y737343D01*
X1053129Y737314D01*
X1053124Y737280D01*
X1053120Y737236D01*
X1053115Y737192D01*
X1053100Y737143D01*
X1053071Y737031D01*
X1053022Y736919D01*
X1052993Y736860D01*
X1052959Y736802D01*
X1052919Y736743D01*
X1052871Y736690D01*
X1052866Y736685D01*
X1052856Y736680D01*
X1052841Y736665D01*
X1052822Y736646D01*
X1052788Y736626D01*
X1052754Y736602D01*
X1052710Y736578D01*
X1052656Y736553D01*
X1052598Y736524D01*
X1052529Y736499D01*
X1052451Y736475D01*
X1052368Y736456D01*
X1052271Y736436D01*
X1052169Y736422D01*
X1052056Y736417D01*
X1051934Y736412D01*
X1051115D01*
Y735105D01*
X1050691D01*
Y738309D01*
X1052003D01*
X1052076Y738304D01*
D02*
G37*
G36*
X1048994D02*
X1049033D01*
X1049130Y738299D01*
X1049233Y738289D01*
X1049340Y738270D01*
X1049442Y738250D01*
X1049491Y738236D01*
X1049535Y738221D01*
X1049540D01*
X1049545Y738216D01*
X1049574Y738206D01*
X1049613Y738182D01*
X1049662Y738148D01*
X1049720Y738109D01*
X1049779Y738055D01*
X1049837Y737992D01*
X1049891Y737914D01*
X1049896Y737904D01*
X1049911Y737875D01*
X1049935Y737831D01*
X1049959Y737772D01*
X1049984Y737699D01*
X1050008Y737616D01*
X1050023Y737529D01*
X1050028Y737431D01*
Y737426D01*
Y737416D01*
Y737397D01*
X1050023Y737373D01*
Y737343D01*
X1050018Y737309D01*
X1049998Y737231D01*
X1049974Y737138D01*
X1049935Y737046D01*
X1049876Y736948D01*
X1049842Y736899D01*
X1049803Y736855D01*
X1049793Y736846D01*
X1049779Y736836D01*
X1049764Y736816D01*
X1049740Y736802D01*
X1049711Y736777D01*
X1049676Y736758D01*
X1049637Y736734D01*
X1049594Y736709D01*
X1049540Y736685D01*
X1049486Y736661D01*
X1049423Y736636D01*
X1049359Y736612D01*
X1049286Y736592D01*
X1049208Y736578D01*
X1049125Y736563D01*
X1049135Y736558D01*
X1049155Y736548D01*
X1049184Y736534D01*
X1049218Y736514D01*
X1049301Y736460D01*
X1049345Y736431D01*
X1049379Y736402D01*
X1049389Y736392D01*
X1049413Y736373D01*
X1049447Y736334D01*
X1049491Y736285D01*
X1049545Y736221D01*
X1049603Y736148D01*
X1049667Y736066D01*
X1049730Y735973D01*
X1050286Y735105D01*
X1049754D01*
X1049330Y735768D01*
Y735773D01*
X1049320Y735783D01*
X1049311Y735797D01*
X1049301Y735817D01*
X1049267Y735865D01*
X1049223Y735929D01*
X1049174Y736002D01*
X1049120Y736075D01*
X1049072Y736143D01*
X1049023Y736207D01*
X1049018Y736212D01*
X1049003Y736231D01*
X1048979Y736261D01*
X1048955Y736295D01*
X1048882Y736363D01*
X1048847Y736397D01*
X1048808Y736422D01*
X1048803Y736426D01*
X1048794Y736431D01*
X1048774Y736441D01*
X1048750Y736456D01*
X1048691Y736485D01*
X1048618Y736509D01*
X1048613D01*
X1048604Y736514D01*
X1048584D01*
X1048560Y736519D01*
X1048525Y736524D01*
X1048486D01*
X1048438Y736529D01*
X1047891D01*
Y735105D01*
X1047467D01*
Y738309D01*
X1048955D01*
X1048994Y738304D01*
D02*
G37*
G36*
X1050443Y760558D02*
X1050009D01*
X1048327Y763075D01*
Y760558D01*
X1047922D01*
Y763763D01*
X1048351D01*
X1050039Y761246D01*
Y763763D01*
X1050443D01*
Y760558D01*
D02*
G37*
G36*
X1055037D02*
X1054559D01*
X1054189Y761529D01*
X1052843D01*
X1052496Y760558D01*
X1052048D01*
X1053272Y763763D01*
X1053735D01*
X1055037Y760558D01*
D02*
G37*
G36*
X1051121Y760505D02*
X1050809D01*
X1051736Y763816D01*
X1052048D01*
X1051121Y760505D01*
D02*
G37*
G36*
X1050443Y785905D02*
X1050009D01*
X1048327Y788421D01*
Y785905D01*
X1047922D01*
Y789109D01*
X1048351D01*
X1050039Y786592D01*
Y789109D01*
X1050443D01*
Y785905D01*
D02*
G37*
G36*
X1055037D02*
X1054559D01*
X1054189Y786875D01*
X1052843D01*
X1052496Y785905D01*
X1052048D01*
X1053272Y789109D01*
X1053735D01*
X1055037Y785905D01*
D02*
G37*
G36*
X1051121Y785851D02*
X1050809D01*
X1051736Y789163D01*
X1052048D01*
X1051121Y785851D01*
D02*
G37*
G36*
X1048339Y814611D02*
X1048378D01*
X1048461Y814602D01*
X1048554Y814587D01*
X1048661Y814567D01*
X1048768Y814538D01*
X1048876Y814499D01*
X1048881D01*
X1048891Y814494D01*
X1048905Y814489D01*
X1048925Y814480D01*
X1048973Y814455D01*
X1049037Y814416D01*
X1049110Y814372D01*
X1049183Y814319D01*
X1049256Y814260D01*
X1049320Y814187D01*
X1049324Y814177D01*
X1049344Y814153D01*
X1049373Y814109D01*
X1049412Y814045D01*
X1049451Y813972D01*
X1049490Y813885D01*
X1049529Y813782D01*
X1049564Y813665D01*
X1049178Y813558D01*
Y813563D01*
X1049173Y813568D01*
X1049168Y813597D01*
X1049149Y813641D01*
X1049129Y813699D01*
X1049105Y813758D01*
X1049076Y813821D01*
X1049042Y813885D01*
X1049003Y813943D01*
X1048998Y813948D01*
X1048983Y813968D01*
X1048959Y813992D01*
X1048925Y814026D01*
X1048881Y814060D01*
X1048827Y814099D01*
X1048768Y814133D01*
X1048695Y814167D01*
X1048686Y814172D01*
X1048661Y814182D01*
X1048617Y814197D01*
X1048564Y814211D01*
X1048500Y814226D01*
X1048427Y814241D01*
X1048344Y814250D01*
X1048257Y814255D01*
X1048208D01*
X1048154Y814250D01*
X1048086Y814246D01*
X1048008Y814231D01*
X1047920Y814216D01*
X1047837Y814192D01*
X1047754Y814163D01*
X1047744Y814158D01*
X1047720Y814148D01*
X1047681Y814128D01*
X1047632Y814099D01*
X1047579Y814065D01*
X1047520Y814026D01*
X1047466Y813982D01*
X1047413Y813929D01*
X1047408Y813924D01*
X1047393Y813904D01*
X1047369Y813875D01*
X1047340Y813836D01*
X1047306Y813787D01*
X1047271Y813733D01*
X1047242Y813675D01*
X1047213Y813612D01*
Y813607D01*
X1047208Y813597D01*
X1047203Y813582D01*
X1047193Y813558D01*
X1047184Y813533D01*
X1047174Y813499D01*
X1047154Y813421D01*
X1047130Y813324D01*
X1047110Y813216D01*
X1047096Y813094D01*
X1047091Y812968D01*
Y812963D01*
Y812948D01*
Y812929D01*
X1047096Y812895D01*
Y812860D01*
X1047101Y812817D01*
X1047106Y812768D01*
X1047110Y812719D01*
X1047125Y812602D01*
X1047154Y812480D01*
X1047188Y812363D01*
X1047237Y812246D01*
Y812241D01*
X1047242Y812231D01*
X1047252Y812217D01*
X1047266Y812197D01*
X1047301Y812148D01*
X1047345Y812085D01*
X1047403Y812017D01*
X1047476Y811944D01*
X1047564Y811875D01*
X1047662Y811817D01*
X1047666D01*
X1047676Y811812D01*
X1047691Y811802D01*
X1047710Y811797D01*
X1047735Y811788D01*
X1047769Y811773D01*
X1047842Y811749D01*
X1047935Y811724D01*
X1048032Y811700D01*
X1048144Y811685D01*
X1048261Y811680D01*
X1048310D01*
X1048364Y811685D01*
X1048432Y811695D01*
X1048510Y811705D01*
X1048603Y811724D01*
X1048700Y811749D01*
X1048798Y811783D01*
X1048803D01*
X1048808Y811788D01*
X1048822Y811792D01*
X1048842Y811802D01*
X1048891Y811822D01*
X1048949Y811851D01*
X1049012Y811885D01*
X1049076Y811924D01*
X1049139Y811968D01*
X1049198Y812012D01*
Y812617D01*
X1048257D01*
Y812992D01*
X1049612D01*
Y811802D01*
X1049607Y811797D01*
X1049598Y811792D01*
X1049583Y811778D01*
X1049559Y811763D01*
X1049529Y811739D01*
X1049495Y811719D01*
X1049412Y811661D01*
X1049315Y811602D01*
X1049208Y811539D01*
X1049085Y811480D01*
X1048964Y811427D01*
X1048959D01*
X1048949Y811422D01*
X1048930Y811417D01*
X1048905Y811407D01*
X1048876Y811397D01*
X1048842Y811388D01*
X1048798Y811378D01*
X1048754Y811368D01*
X1048652Y811344D01*
X1048539Y811324D01*
X1048412Y811310D01*
X1048286Y811305D01*
X1048242D01*
X1048208Y811310D01*
X1048164D01*
X1048115Y811314D01*
X1048061Y811319D01*
X1048003Y811329D01*
X1047866Y811354D01*
X1047725Y811388D01*
X1047574Y811436D01*
X1047427Y811505D01*
X1047422Y811510D01*
X1047413Y811515D01*
X1047388Y811524D01*
X1047364Y811544D01*
X1047330Y811563D01*
X1047296Y811588D01*
X1047213Y811651D01*
X1047115Y811734D01*
X1047023Y811836D01*
X1046930Y811953D01*
X1046847Y812085D01*
Y812090D01*
X1046837Y812104D01*
X1046828Y812124D01*
X1046818Y812153D01*
X1046803Y812188D01*
X1046784Y812231D01*
X1046769Y812280D01*
X1046749Y812339D01*
X1046730Y812397D01*
X1046715Y812465D01*
X1046681Y812612D01*
X1046662Y812773D01*
X1046652Y812943D01*
Y812948D01*
Y812963D01*
Y812987D01*
X1046657Y813021D01*
Y813065D01*
X1046662Y813114D01*
X1046667Y813168D01*
X1046676Y813226D01*
X1046701Y813363D01*
X1046735Y813509D01*
X1046784Y813665D01*
X1046847Y813816D01*
Y813821D01*
X1046857Y813836D01*
X1046867Y813855D01*
X1046881Y813885D01*
X1046906Y813919D01*
X1046930Y813953D01*
X1046989Y814045D01*
X1047071Y814143D01*
X1047164Y814241D01*
X1047281Y814333D01*
X1047340Y814377D01*
X1047408Y814416D01*
X1047413D01*
X1047422Y814426D01*
X1047447Y814436D01*
X1047471Y814445D01*
X1047505Y814465D01*
X1047549Y814480D01*
X1047598Y814499D01*
X1047652Y814519D01*
X1047710Y814533D01*
X1047774Y814553D01*
X1047920Y814587D01*
X1048076Y814606D01*
X1048252Y814616D01*
X1048310D01*
X1048339Y814611D01*
D02*
G37*
G36*
X1052753Y811358D02*
X1052319D01*
X1050636Y813875D01*
Y811358D01*
X1050232D01*
Y814563D01*
X1050661D01*
X1052348Y812046D01*
Y814563D01*
X1052753D01*
Y811358D01*
D02*
G37*
G36*
X1054777Y814558D02*
X1054865Y814553D01*
X1054962Y814543D01*
X1055055Y814528D01*
X1055133Y814514D01*
X1055138D01*
X1055147Y814509D01*
X1055157D01*
X1055177Y814499D01*
X1055230Y814484D01*
X1055294Y814460D01*
X1055367Y814431D01*
X1055445Y814392D01*
X1055523Y814343D01*
X1055601Y814285D01*
X1055606D01*
X1055611Y814275D01*
X1055645Y814246D01*
X1055689Y814197D01*
X1055742Y814133D01*
X1055806Y814055D01*
X1055869Y813963D01*
X1055928Y813855D01*
X1055981Y813733D01*
Y813728D01*
X1055986Y813719D01*
X1055991Y813699D01*
X1056001Y813675D01*
X1056011Y813646D01*
X1056020Y813607D01*
X1056035Y813563D01*
X1056045Y813514D01*
X1056055Y813460D01*
X1056069Y813402D01*
X1056089Y813275D01*
X1056103Y813134D01*
X1056108Y812978D01*
Y812973D01*
Y812963D01*
Y812943D01*
Y812914D01*
X1056103Y812885D01*
Y812846D01*
X1056098Y812758D01*
X1056089Y812661D01*
X1056069Y812548D01*
X1056050Y812436D01*
X1056020Y812329D01*
Y812324D01*
X1056015Y812314D01*
X1056011Y812300D01*
X1056006Y812280D01*
X1055986Y812231D01*
X1055962Y812163D01*
X1055933Y812090D01*
X1055893Y812012D01*
X1055850Y811934D01*
X1055801Y811861D01*
X1055796Y811851D01*
X1055777Y811831D01*
X1055752Y811797D01*
X1055713Y811753D01*
X1055674Y811710D01*
X1055620Y811661D01*
X1055567Y811612D01*
X1055508Y811568D01*
X1055503Y811563D01*
X1055479Y811553D01*
X1055445Y811534D01*
X1055401Y811510D01*
X1055347Y811485D01*
X1055284Y811461D01*
X1055211Y811436D01*
X1055128Y811412D01*
X1055118D01*
X1055089Y811402D01*
X1055045Y811397D01*
X1054982Y811388D01*
X1054908Y811378D01*
X1054821Y811368D01*
X1054723Y811363D01*
X1054616Y811358D01*
X1053465D01*
Y814563D01*
X1054694D01*
X1054777Y814558D01*
D02*
G37*
G36*
X1046626Y839735D02*
X1047498D01*
Y839370D01*
X1046626D01*
Y838492D01*
X1046255D01*
Y839370D01*
X1045382D01*
Y839735D01*
X1046255D01*
Y840608D01*
X1046626D01*
Y839735D01*
D02*
G37*
G36*
X1054419Y837975D02*
X1053985D01*
X1052741Y841179D01*
X1053204D01*
X1054034Y838853D01*
Y838848D01*
X1054038Y838838D01*
X1054043Y838823D01*
X1054053Y838804D01*
X1054068Y838750D01*
X1054092Y838682D01*
X1054121Y838599D01*
X1054150Y838511D01*
X1054204Y838326D01*
Y838331D01*
X1054209Y838336D01*
X1054214Y838350D01*
X1054219Y838370D01*
X1054233Y838423D01*
X1054253Y838492D01*
X1054277Y838570D01*
X1054307Y838658D01*
X1054341Y838755D01*
X1054375Y838853D01*
X1055243Y841179D01*
X1055672D01*
X1054419Y837975D01*
D02*
G37*
G36*
X1051561Y841189D02*
X1051600Y841184D01*
X1051644Y841179D01*
X1051693Y841174D01*
X1051746Y841159D01*
X1051863Y841130D01*
X1051985Y841086D01*
X1052049Y841057D01*
X1052107Y841023D01*
X1052161Y840979D01*
X1052214Y840935D01*
X1052219Y840930D01*
X1052224Y840925D01*
X1052239Y840911D01*
X1052258Y840891D01*
X1052278Y840862D01*
X1052302Y840833D01*
X1052351Y840759D01*
X1052400Y840667D01*
X1052444Y840559D01*
X1052478Y840437D01*
X1052483Y840369D01*
X1052487Y840301D01*
Y840291D01*
Y840267D01*
X1052483Y840228D01*
X1052478Y840179D01*
X1052468Y840120D01*
X1052453Y840057D01*
X1052434Y839989D01*
X1052405Y839921D01*
X1052400Y839911D01*
X1052390Y839886D01*
X1052371Y839852D01*
X1052341Y839804D01*
X1052307Y839745D01*
X1052263Y839677D01*
X1052205Y839609D01*
X1052141Y839530D01*
X1052132Y839521D01*
X1052107Y839491D01*
X1052063Y839447D01*
X1052034Y839418D01*
X1052000Y839384D01*
X1051961Y839345D01*
X1051912Y839301D01*
X1051863Y839257D01*
X1051810Y839204D01*
X1051751Y839150D01*
X1051683Y839091D01*
X1051615Y839033D01*
X1051536Y838965D01*
X1051532Y838960D01*
X1051522Y838950D01*
X1051502Y838935D01*
X1051478Y838916D01*
X1051420Y838867D01*
X1051346Y838804D01*
X1051273Y838736D01*
X1051195Y838667D01*
X1051132Y838609D01*
X1051107Y838584D01*
X1051083Y838560D01*
X1051078Y838555D01*
X1051068Y838540D01*
X1051049Y838521D01*
X1051024Y838492D01*
X1050971Y838428D01*
X1050917Y838350D01*
X1052492D01*
Y837975D01*
X1050371D01*
Y837980D01*
Y837999D01*
Y838028D01*
X1050376Y838063D01*
X1050381Y838102D01*
X1050386Y838145D01*
X1050400Y838194D01*
X1050415Y838243D01*
Y838248D01*
X1050420Y838253D01*
X1050430Y838282D01*
X1050449Y838321D01*
X1050478Y838380D01*
X1050512Y838443D01*
X1050561Y838516D01*
X1050610Y838589D01*
X1050673Y838667D01*
Y838672D01*
X1050683Y838677D01*
X1050707Y838706D01*
X1050747Y838750D01*
X1050805Y838809D01*
X1050878Y838877D01*
X1050966Y838960D01*
X1051073Y839053D01*
X1051190Y839155D01*
X1051195Y839160D01*
X1051215Y839174D01*
X1051239Y839194D01*
X1051273Y839228D01*
X1051317Y839262D01*
X1051366Y839306D01*
X1051473Y839399D01*
X1051590Y839511D01*
X1051707Y839623D01*
X1051766Y839677D01*
X1051814Y839730D01*
X1051858Y839784D01*
X1051897Y839833D01*
Y839838D01*
X1051907Y839843D01*
X1051917Y839857D01*
X1051927Y839877D01*
X1051956Y839926D01*
X1051990Y839989D01*
X1052024Y840062D01*
X1052054Y840140D01*
X1052073Y840228D01*
X1052083Y840311D01*
Y840316D01*
Y840321D01*
X1052078Y840350D01*
X1052073Y840394D01*
X1052063Y840447D01*
X1052039Y840511D01*
X1052010Y840574D01*
X1051971Y840642D01*
X1051912Y840706D01*
X1051902Y840711D01*
X1051883Y840730D01*
X1051844Y840754D01*
X1051795Y840789D01*
X1051732Y840818D01*
X1051658Y840842D01*
X1051571Y840862D01*
X1051473Y840867D01*
X1051444D01*
X1051424Y840862D01*
X1051376Y840857D01*
X1051312Y840847D01*
X1051239Y840823D01*
X1051161Y840794D01*
X1051088Y840750D01*
X1051020Y840691D01*
X1051015Y840681D01*
X1050995Y840662D01*
X1050966Y840623D01*
X1050937Y840569D01*
X1050902Y840501D01*
X1050878Y840423D01*
X1050859Y840330D01*
X1050849Y840223D01*
X1050444Y840267D01*
Y840272D01*
Y840286D01*
X1050449Y840311D01*
X1050454Y840340D01*
X1050464Y840379D01*
X1050469Y840423D01*
X1050498Y840520D01*
X1050537Y840633D01*
X1050590Y840745D01*
X1050664Y840857D01*
X1050703Y840906D01*
X1050751Y840955D01*
X1050756Y840959D01*
X1050766Y840964D01*
X1050781Y840979D01*
X1050800Y840993D01*
X1050829Y841008D01*
X1050863Y841032D01*
X1050902Y841052D01*
X1050946Y841076D01*
X1050995Y841096D01*
X1051049Y841120D01*
X1051112Y841140D01*
X1051176Y841154D01*
X1051322Y841184D01*
X1051400Y841189D01*
X1051483Y841193D01*
X1051527D01*
X1051561Y841189D01*
D02*
G37*
G36*
X1049420Y837975D02*
X1049025D01*
Y840481D01*
X1049020Y840477D01*
X1049001Y840457D01*
X1048967Y840433D01*
X1048923Y840398D01*
X1048869Y840355D01*
X1048805Y840311D01*
X1048732Y840257D01*
X1048650Y840208D01*
X1048645D01*
X1048640Y840203D01*
X1048611Y840184D01*
X1048567Y840160D01*
X1048513Y840130D01*
X1048449Y840096D01*
X1048381Y840067D01*
X1048308Y840033D01*
X1048240Y840004D01*
Y840389D01*
X1048245D01*
X1048254Y840394D01*
X1048274Y840403D01*
X1048294Y840418D01*
X1048323Y840433D01*
X1048357Y840447D01*
X1048435Y840491D01*
X1048523Y840545D01*
X1048620Y840608D01*
X1048718Y840681D01*
X1048810Y840759D01*
X1048815Y840764D01*
X1048820Y840769D01*
X1048849Y840798D01*
X1048893Y840842D01*
X1048947Y840896D01*
X1049006Y840964D01*
X1049064Y841037D01*
X1049118Y841115D01*
X1049162Y841193D01*
X1049420D01*
Y837975D01*
D02*
G37*
G36*
X798503Y839334D02*
X799376D01*
Y838969D01*
X798503D01*
Y838091D01*
X798132D01*
Y838969D01*
X797259D01*
Y839334D01*
X798132D01*
Y840208D01*
X798503D01*
Y839334D01*
D02*
G37*
G36*
X806296Y837574D02*
X805862D01*
X804618Y840778D01*
X805082D01*
X805911Y838452D01*
Y838447D01*
X805916Y838437D01*
X805920Y838423D01*
X805930Y838403D01*
X805945Y838349D01*
X805969Y838281D01*
X805998Y838198D01*
X806028Y838110D01*
X806081Y837925D01*
Y837930D01*
X806086Y837935D01*
X806091Y837950D01*
X806096Y837969D01*
X806111Y838023D01*
X806130Y838091D01*
X806154Y838169D01*
X806184Y838257D01*
X806218Y838354D01*
X806252Y838452D01*
X807120Y840778D01*
X807549D01*
X806296Y837574D01*
D02*
G37*
G36*
X803438Y840788D02*
X803477Y840783D01*
X803521Y840778D01*
X803570Y840773D01*
X803623Y840759D01*
X803740Y840729D01*
X803862Y840685D01*
X803926Y840656D01*
X803984Y840622D01*
X804038Y840578D01*
X804092Y840534D01*
X804097Y840529D01*
X804101Y840525D01*
X804116Y840510D01*
X804136Y840490D01*
X804155Y840461D01*
X804179Y840432D01*
X804228Y840359D01*
X804277Y840266D01*
X804321Y840159D01*
X804355Y840037D01*
X804360Y839968D01*
X804365Y839900D01*
Y839891D01*
Y839866D01*
X804360Y839827D01*
X804355Y839778D01*
X804345Y839720D01*
X804331Y839656D01*
X804311Y839588D01*
X804282Y839520D01*
X804277Y839510D01*
X804267Y839486D01*
X804248Y839452D01*
X804218Y839403D01*
X804184Y839344D01*
X804140Y839276D01*
X804082Y839208D01*
X804018Y839130D01*
X804009Y839120D01*
X803984Y839091D01*
X803940Y839047D01*
X803911Y839017D01*
X803877Y838983D01*
X803838Y838944D01*
X803789Y838901D01*
X803740Y838857D01*
X803687Y838803D01*
X803628Y838749D01*
X803560Y838691D01*
X803492Y838632D01*
X803414Y838564D01*
X803409Y838559D01*
X803399Y838549D01*
X803380Y838535D01*
X803355Y838515D01*
X803297Y838466D01*
X803223Y838403D01*
X803150Y838335D01*
X803072Y838267D01*
X803009Y838208D01*
X802985Y838184D01*
X802960Y838159D01*
X802955Y838154D01*
X802946Y838140D01*
X802926Y838120D01*
X802902Y838091D01*
X802848Y838027D01*
X802794Y837950D01*
X804370D01*
Y837574D01*
X802248D01*
Y837579D01*
Y837598D01*
Y837628D01*
X802253Y837662D01*
X802258Y837701D01*
X802263Y837745D01*
X802277Y837793D01*
X802292Y837842D01*
Y837847D01*
X802297Y837852D01*
X802307Y837881D01*
X802326Y837920D01*
X802355Y837979D01*
X802390Y838042D01*
X802438Y838115D01*
X802487Y838188D01*
X802551Y838267D01*
Y838271D01*
X802560Y838276D01*
X802585Y838306D01*
X802624Y838349D01*
X802682Y838408D01*
X802755Y838476D01*
X802843Y838559D01*
X802950Y838652D01*
X803067Y838754D01*
X803072Y838759D01*
X803092Y838774D01*
X803116Y838793D01*
X803150Y838827D01*
X803194Y838861D01*
X803243Y838905D01*
X803350Y838998D01*
X803467Y839110D01*
X803584Y839222D01*
X803643Y839276D01*
X803692Y839330D01*
X803736Y839383D01*
X803775Y839432D01*
Y839437D01*
X803784Y839442D01*
X803794Y839456D01*
X803804Y839476D01*
X803833Y839525D01*
X803867Y839588D01*
X803901Y839661D01*
X803931Y839739D01*
X803950Y839827D01*
X803960Y839910D01*
Y839915D01*
Y839920D01*
X803955Y839949D01*
X803950Y839993D01*
X803940Y840046D01*
X803916Y840110D01*
X803887Y840173D01*
X803848Y840242D01*
X803789Y840305D01*
X803780Y840310D01*
X803760Y840329D01*
X803721Y840354D01*
X803672Y840388D01*
X803609Y840417D01*
X803536Y840442D01*
X803448Y840461D01*
X803350Y840466D01*
X803321D01*
X803302Y840461D01*
X803253Y840456D01*
X803189Y840446D01*
X803116Y840422D01*
X803038Y840393D01*
X802965Y840349D01*
X802897Y840290D01*
X802892Y840281D01*
X802872Y840261D01*
X802843Y840222D01*
X802814Y840168D01*
X802780Y840100D01*
X802755Y840022D01*
X802736Y839930D01*
X802726Y839822D01*
X802321Y839866D01*
Y839871D01*
Y839886D01*
X802326Y839910D01*
X802331Y839939D01*
X802341Y839978D01*
X802346Y840022D01*
X802375Y840120D01*
X802414Y840232D01*
X802468Y840344D01*
X802541Y840456D01*
X802580Y840505D01*
X802629Y840554D01*
X802633Y840559D01*
X802643Y840564D01*
X802658Y840578D01*
X802677Y840593D01*
X802707Y840607D01*
X802741Y840632D01*
X802780Y840651D01*
X802824Y840676D01*
X802872Y840695D01*
X802926Y840720D01*
X802990Y840739D01*
X803053Y840754D01*
X803199Y840783D01*
X803277Y840788D01*
X803360Y840793D01*
X803404D01*
X803438Y840788D01*
D02*
G37*
G36*
X801297Y837574D02*
X800902D01*
Y840081D01*
X800897Y840076D01*
X800878Y840056D01*
X800844Y840032D01*
X800800Y839998D01*
X800746Y839954D01*
X800683Y839910D01*
X800610Y839856D01*
X800527Y839808D01*
X800522D01*
X800517Y839803D01*
X800488Y839783D01*
X800444Y839759D01*
X800390Y839730D01*
X800327Y839695D01*
X800258Y839666D01*
X800185Y839632D01*
X800117Y839603D01*
Y839988D01*
X800122D01*
X800132Y839993D01*
X800151Y840003D01*
X800171Y840017D01*
X800200Y840032D01*
X800234Y840046D01*
X800312Y840090D01*
X800400Y840144D01*
X800497Y840208D01*
X800595Y840281D01*
X800688Y840359D01*
X800693Y840363D01*
X800697Y840368D01*
X800727Y840398D01*
X800770Y840442D01*
X800824Y840495D01*
X800883Y840564D01*
X800941Y840637D01*
X800995Y840715D01*
X801039Y840793D01*
X801297D01*
Y837574D01*
D02*
G37*
G36*
X798947Y815480D02*
X798986D01*
X799069Y815471D01*
X799161Y815456D01*
X799268Y815437D01*
X799376Y815407D01*
X799483Y815368D01*
X799488D01*
X799498Y815363D01*
X799512Y815359D01*
X799532Y815349D01*
X799581Y815324D01*
X799644Y815285D01*
X799717Y815241D01*
X799790Y815188D01*
X799863Y815129D01*
X799927Y815056D01*
X799932Y815046D01*
X799951Y815022D01*
X799980Y814978D01*
X800020Y814915D01*
X800059Y814842D01*
X800098Y814754D01*
X800136Y814651D01*
X800171Y814534D01*
X799785Y814427D01*
Y814432D01*
X799781Y814437D01*
X799776Y814466D01*
X799756Y814510D01*
X799737Y814568D01*
X799712Y814627D01*
X799683Y814690D01*
X799649Y814754D01*
X799610Y814812D01*
X799605Y814817D01*
X799590Y814837D01*
X799566Y814861D01*
X799532Y814895D01*
X799488Y814929D01*
X799434Y814968D01*
X799376Y815003D01*
X799303Y815037D01*
X799293Y815042D01*
X799268Y815051D01*
X799225Y815066D01*
X799171Y815081D01*
X799108Y815095D01*
X799034Y815110D01*
X798951Y815120D01*
X798864Y815125D01*
X798815D01*
X798761Y815120D01*
X798693Y815115D01*
X798615Y815100D01*
X798527Y815085D01*
X798444Y815061D01*
X798361Y815032D01*
X798352Y815027D01*
X798327Y815017D01*
X798288Y814998D01*
X798239Y814968D01*
X798186Y814934D01*
X798127Y814895D01*
X798074Y814851D01*
X798020Y814798D01*
X798015Y814793D01*
X798000Y814773D01*
X797976Y814744D01*
X797947Y814705D01*
X797913Y814656D01*
X797879Y814603D01*
X797849Y814544D01*
X797820Y814481D01*
Y814476D01*
X797815Y814466D01*
X797810Y814452D01*
X797801Y814427D01*
X797791Y814403D01*
X797781Y814369D01*
X797762Y814290D01*
X797737Y814193D01*
X797718Y814086D01*
X797703Y813964D01*
X797698Y813837D01*
Y813832D01*
Y813818D01*
Y813798D01*
X797703Y813764D01*
Y813730D01*
X797708Y813686D01*
X797713Y813637D01*
X797718Y813588D01*
X797732Y813471D01*
X797762Y813349D01*
X797796Y813232D01*
X797844Y813115D01*
Y813110D01*
X797849Y813101D01*
X797859Y813086D01*
X797874Y813066D01*
X797908Y813018D01*
X797952Y812954D01*
X798010Y812886D01*
X798083Y812813D01*
X798171Y812745D01*
X798269Y812686D01*
X798274D01*
X798283Y812681D01*
X798298Y812671D01*
X798317Y812666D01*
X798342Y812657D01*
X798376Y812642D01*
X798449Y812618D01*
X798542Y812593D01*
X798639Y812569D01*
X798752Y812554D01*
X798869Y812550D01*
X798917D01*
X798971Y812554D01*
X799039Y812564D01*
X799117Y812574D01*
X799210Y812593D01*
X799307Y812618D01*
X799405Y812652D01*
X799410D01*
X799415Y812657D01*
X799429Y812662D01*
X799449Y812671D01*
X799498Y812691D01*
X799556Y812720D01*
X799620Y812754D01*
X799683Y812793D01*
X799746Y812837D01*
X799805Y812881D01*
Y813486D01*
X798864D01*
Y813861D01*
X800219D01*
Y812671D01*
X800215Y812666D01*
X800205Y812662D01*
X800190Y812647D01*
X800166Y812632D01*
X800136Y812608D01*
X800102Y812589D01*
X800020Y812530D01*
X799922Y812471D01*
X799815Y812408D01*
X799693Y812350D01*
X799571Y812296D01*
X799566D01*
X799556Y812291D01*
X799537Y812286D01*
X799512Y812276D01*
X799483Y812267D01*
X799449Y812257D01*
X799405Y812247D01*
X799361Y812237D01*
X799259Y812213D01*
X799146Y812194D01*
X799020Y812179D01*
X798893Y812174D01*
X798849D01*
X798815Y812179D01*
X798771D01*
X798722Y812184D01*
X798669Y812189D01*
X798610Y812198D01*
X798474Y812223D01*
X798332Y812257D01*
X798181Y812306D01*
X798035Y812374D01*
X798030Y812379D01*
X798020Y812384D01*
X797996Y812393D01*
X797971Y812413D01*
X797937Y812432D01*
X797903Y812457D01*
X797820Y812520D01*
X797722Y812603D01*
X797630Y812706D01*
X797537Y812823D01*
X797454Y812954D01*
Y812959D01*
X797445Y812974D01*
X797435Y812993D01*
X797425Y813023D01*
X797410Y813057D01*
X797391Y813101D01*
X797376Y813149D01*
X797357Y813208D01*
X797337Y813266D01*
X797323Y813335D01*
X797289Y813481D01*
X797269Y813642D01*
X797259Y813813D01*
Y813818D01*
Y813832D01*
Y813857D01*
X797264Y813891D01*
Y813934D01*
X797269Y813983D01*
X797274Y814037D01*
X797284Y814096D01*
X797308Y814232D01*
X797342Y814378D01*
X797391Y814534D01*
X797454Y814686D01*
Y814690D01*
X797464Y814705D01*
X797474Y814725D01*
X797488Y814754D01*
X797513Y814788D01*
X797537Y814822D01*
X797596Y814915D01*
X797679Y815012D01*
X797771Y815110D01*
X797888Y815202D01*
X797947Y815246D01*
X798015Y815285D01*
X798020D01*
X798030Y815295D01*
X798054Y815305D01*
X798079Y815315D01*
X798113Y815334D01*
X798157Y815349D01*
X798205Y815368D01*
X798259Y815388D01*
X798317Y815402D01*
X798381Y815422D01*
X798527Y815456D01*
X798683Y815476D01*
X798859Y815485D01*
X798917D01*
X798947Y815480D01*
D02*
G37*
G36*
X803360Y812228D02*
X802926D01*
X801244Y814744D01*
Y812228D01*
X800839D01*
Y815432D01*
X801268D01*
X802955Y812915D01*
Y815432D01*
X803360D01*
Y812228D01*
D02*
G37*
G36*
X805384Y815427D02*
X805472Y815422D01*
X805569Y815412D01*
X805662Y815398D01*
X805740Y815383D01*
X805745D01*
X805755Y815378D01*
X805764D01*
X805784Y815368D01*
X805837Y815354D01*
X805901Y815329D01*
X805974Y815300D01*
X806052Y815261D01*
X806130Y815212D01*
X806208Y815154D01*
X806213D01*
X806218Y815144D01*
X806252Y815115D01*
X806296Y815066D01*
X806350Y815003D01*
X806413Y814924D01*
X806476Y814832D01*
X806535Y814725D01*
X806589Y814603D01*
Y814598D01*
X806593Y814588D01*
X806598Y814568D01*
X806608Y814544D01*
X806618Y814515D01*
X806628Y814476D01*
X806642Y814432D01*
X806652Y814383D01*
X806662Y814330D01*
X806676Y814271D01*
X806696Y814144D01*
X806711Y814003D01*
X806715Y813847D01*
Y813842D01*
Y813832D01*
Y813813D01*
Y813783D01*
X806711Y813754D01*
Y813715D01*
X806706Y813627D01*
X806696Y813530D01*
X806676Y813418D01*
X806657Y813305D01*
X806628Y813198D01*
Y813193D01*
X806623Y813184D01*
X806618Y813169D01*
X806613Y813149D01*
X806593Y813101D01*
X806569Y813032D01*
X806540Y812959D01*
X806501Y812881D01*
X806457Y812803D01*
X806408Y812730D01*
X806403Y812720D01*
X806384Y812701D01*
X806359Y812666D01*
X806320Y812623D01*
X806281Y812579D01*
X806228Y812530D01*
X806174Y812481D01*
X806115Y812437D01*
X806111Y812432D01*
X806086Y812423D01*
X806052Y812403D01*
X806008Y812379D01*
X805955Y812354D01*
X805891Y812330D01*
X805818Y812306D01*
X805735Y812281D01*
X805725D01*
X805696Y812271D01*
X805652Y812267D01*
X805589Y812257D01*
X805516Y812247D01*
X805428Y812237D01*
X805330Y812233D01*
X805223Y812228D01*
X804072D01*
Y815432D01*
X805301D01*
X805384Y815427D01*
D02*
G37*
G36*
X799781Y786828D02*
X799346D01*
X797664Y789344D01*
Y786828D01*
X797259D01*
Y790032D01*
X797688D01*
X799376Y787515D01*
Y790032D01*
X799781D01*
Y786828D01*
D02*
G37*
G36*
X804374D02*
X803896D01*
X803526Y787798D01*
X802180D01*
X801834Y786828D01*
X801385D01*
X802609Y790032D01*
X803072D01*
X804374Y786828D01*
D02*
G37*
G36*
X800458Y786774D02*
X800146D01*
X801073Y790085D01*
X801385D01*
X800458Y786774D01*
D02*
G37*
G36*
X797579Y739280D02*
X797618Y739276D01*
X797667Y739271D01*
X797720Y739266D01*
X797779Y739256D01*
X797906Y739227D01*
X798042Y739183D01*
X798111Y739154D01*
X798179Y739119D01*
X798242Y739081D01*
X798306Y739037D01*
X798311Y739032D01*
X798320Y739027D01*
X798335Y739012D01*
X798359Y738993D01*
X798384Y738968D01*
X798418Y738934D01*
X798452Y738900D01*
X798486Y738861D01*
X798525Y738812D01*
X798559Y738764D01*
X798598Y738705D01*
X798637Y738642D01*
X798671Y738578D01*
X798706Y738505D01*
X798764Y738349D01*
X798345Y738251D01*
Y738256D01*
X798340Y738266D01*
X798335Y738286D01*
X798325Y738310D01*
X798311Y738339D01*
X798296Y738373D01*
X798262Y738447D01*
X798218Y738529D01*
X798159Y738617D01*
X798096Y738695D01*
X798018Y738764D01*
X798008Y738768D01*
X797979Y738788D01*
X797935Y738812D01*
X797872Y738846D01*
X797798Y738876D01*
X797706Y738900D01*
X797603Y738920D01*
X797486Y738924D01*
X797452D01*
X797428Y738920D01*
X797394D01*
X797360Y738915D01*
X797272Y738900D01*
X797174Y738881D01*
X797072Y738846D01*
X796969Y738802D01*
X796872Y738744D01*
X796867D01*
X796862Y738734D01*
X796833Y738710D01*
X796789Y738671D01*
X796735Y738617D01*
X796682Y738549D01*
X796623Y738471D01*
X796570Y738373D01*
X796526Y738266D01*
Y738261D01*
X796521Y738251D01*
X796516Y738237D01*
X796511Y738212D01*
X796501Y738188D01*
X796496Y738154D01*
X796477Y738076D01*
X796457Y737983D01*
X796443Y737881D01*
X796433Y737769D01*
X796428Y737652D01*
Y737647D01*
Y737632D01*
Y737613D01*
Y737583D01*
X796433Y737549D01*
Y737505D01*
X796438Y737461D01*
X796443Y737413D01*
X796457Y737300D01*
X796477Y737179D01*
X796506Y737057D01*
X796545Y736940D01*
Y736935D01*
X796550Y736925D01*
X796560Y736910D01*
X796570Y736891D01*
X796594Y736832D01*
X796633Y736769D01*
X796687Y736691D01*
X796750Y736618D01*
X796823Y736545D01*
X796911Y736481D01*
X796916D01*
X796921Y736476D01*
X796935Y736467D01*
X796955Y736457D01*
X797009Y736437D01*
X797077Y736408D01*
X797155Y736384D01*
X797247Y736359D01*
X797350Y736340D01*
X797457Y736335D01*
X797491D01*
X797516Y736340D01*
X797545D01*
X797584Y736345D01*
X797667Y736359D01*
X797759Y736384D01*
X797862Y736423D01*
X797959Y736471D01*
X798057Y736540D01*
X798062Y736545D01*
X798067Y736550D01*
X798096Y736579D01*
X798140Y736628D01*
X798194Y736691D01*
X798247Y736779D01*
X798306Y736881D01*
X798354Y737008D01*
X798393Y737149D01*
X798818Y737042D01*
Y737037D01*
X798813Y737018D01*
X798803Y736993D01*
X798793Y736954D01*
X798774Y736915D01*
X798754Y736862D01*
X798735Y736808D01*
X798706Y736749D01*
X798642Y736618D01*
X798554Y736486D01*
X798457Y736359D01*
X798398Y736301D01*
X798335Y736247D01*
X798330Y736242D01*
X798320Y736237D01*
X798301Y736223D01*
X798272Y736203D01*
X798237Y736184D01*
X798198Y736159D01*
X798155Y736135D01*
X798101Y736111D01*
X798042Y736086D01*
X797979Y736062D01*
X797906Y736037D01*
X797833Y736018D01*
X797672Y735984D01*
X797584Y735979D01*
X797491Y735974D01*
X797442D01*
X797403Y735979D01*
X797360D01*
X797311Y735984D01*
X797252Y735993D01*
X797194Y735998D01*
X797057Y736028D01*
X796916Y736062D01*
X796779Y736115D01*
X796711Y736145D01*
X796648Y736184D01*
X796643Y736189D01*
X796633Y736193D01*
X796618Y736208D01*
X796594Y736223D01*
X796535Y736272D01*
X796467Y736340D01*
X796384Y736423D01*
X796306Y736530D01*
X796223Y736652D01*
X796155Y736793D01*
Y736798D01*
X796150Y736813D01*
X796140Y736832D01*
X796131Y736862D01*
X796116Y736901D01*
X796101Y736945D01*
X796087Y736993D01*
X796072Y737052D01*
X796058Y737110D01*
X796043Y737179D01*
X796014Y737325D01*
X795994Y737481D01*
X795989Y737652D01*
Y737656D01*
Y737676D01*
Y737700D01*
X795994Y737735D01*
Y737778D01*
X795999Y737832D01*
X796004Y737886D01*
X796014Y737949D01*
X796038Y738086D01*
X796067Y738232D01*
X796116Y738383D01*
X796179Y738525D01*
Y738529D01*
X796189Y738539D01*
X796199Y738559D01*
X796214Y738588D01*
X796233Y738617D01*
X796257Y738651D01*
X796321Y738734D01*
X796394Y738827D01*
X796487Y738920D01*
X796599Y739012D01*
X796721Y739090D01*
X796726D01*
X796735Y739100D01*
X796755Y739110D01*
X796784Y739119D01*
X796813Y739134D01*
X796852Y739154D01*
X796901Y739168D01*
X796950Y739188D01*
X797004Y739207D01*
X797062Y739222D01*
X797194Y739256D01*
X797340Y739276D01*
X797496Y739285D01*
X797545D01*
X797579Y739280D01*
D02*
G37*
G36*
X803953Y739227D02*
X804031Y739222D01*
X804114Y739217D01*
X804192Y739207D01*
X804260Y739198D01*
X804270D01*
X804299Y739188D01*
X804343Y739178D01*
X804397Y739163D01*
X804460Y739144D01*
X804524Y739119D01*
X804592Y739085D01*
X804655Y739046D01*
X804660Y739042D01*
X804685Y739027D01*
X804714Y739003D01*
X804748Y738968D01*
X804787Y738924D01*
X804831Y738871D01*
X804875Y738812D01*
X804914Y738739D01*
X804919Y738729D01*
X804928Y738705D01*
X804943Y738666D01*
X804962Y738612D01*
X804982Y738549D01*
X804997Y738476D01*
X805006Y738393D01*
X805011Y738305D01*
Y738300D01*
Y738286D01*
Y738266D01*
X805006Y738237D01*
X805002Y738203D01*
X804997Y738159D01*
X804992Y738115D01*
X804977Y738066D01*
X804948Y737954D01*
X804899Y737842D01*
X804870Y737783D01*
X804836Y737725D01*
X804797Y737666D01*
X804748Y737613D01*
X804743Y737608D01*
X804733Y737603D01*
X804719Y737588D01*
X804699Y737569D01*
X804665Y737549D01*
X804631Y737525D01*
X804587Y737500D01*
X804533Y737476D01*
X804475Y737447D01*
X804407Y737422D01*
X804329Y737398D01*
X804246Y737378D01*
X804148Y737359D01*
X804046Y737344D01*
X803933Y737339D01*
X803812Y737335D01*
X802992D01*
Y736028D01*
X802568D01*
Y739232D01*
X803880D01*
X803953Y739227D01*
D02*
G37*
G36*
X800871D02*
X800910D01*
X801007Y739222D01*
X801110Y739212D01*
X801217Y739193D01*
X801320Y739173D01*
X801368Y739158D01*
X801412Y739144D01*
X801417D01*
X801422Y739139D01*
X801451Y739129D01*
X801490Y739105D01*
X801539Y739071D01*
X801598Y739032D01*
X801656Y738978D01*
X801715Y738915D01*
X801768Y738837D01*
X801773Y738827D01*
X801788Y738798D01*
X801812Y738754D01*
X801836Y738695D01*
X801861Y738622D01*
X801885Y738539D01*
X801900Y738451D01*
X801905Y738354D01*
Y738349D01*
Y738339D01*
Y738320D01*
X801900Y738295D01*
Y738266D01*
X801895Y738232D01*
X801876Y738154D01*
X801851Y738061D01*
X801812Y737969D01*
X801754Y737871D01*
X801720Y737822D01*
X801680Y737778D01*
X801671Y737769D01*
X801656Y737759D01*
X801641Y737739D01*
X801617Y737725D01*
X801588Y737700D01*
X801554Y737681D01*
X801515Y737656D01*
X801471Y737632D01*
X801417Y737608D01*
X801363Y737583D01*
X801300Y737559D01*
X801237Y737535D01*
X801163Y737515D01*
X801086Y737500D01*
X801003Y737486D01*
X801012Y737481D01*
X801032Y737471D01*
X801061Y737457D01*
X801095Y737437D01*
X801178Y737383D01*
X801222Y737354D01*
X801256Y737325D01*
X801266Y737315D01*
X801290Y737296D01*
X801324Y737257D01*
X801368Y737208D01*
X801422Y737144D01*
X801480Y737071D01*
X801544Y736988D01*
X801607Y736896D01*
X802163Y736028D01*
X801632D01*
X801207Y736691D01*
Y736696D01*
X801198Y736705D01*
X801188Y736720D01*
X801178Y736740D01*
X801144Y736788D01*
X801100Y736852D01*
X801051Y736925D01*
X800998Y736998D01*
X800949Y737066D01*
X800900Y737130D01*
X800895Y737135D01*
X800881Y737154D01*
X800856Y737183D01*
X800832Y737218D01*
X800759Y737286D01*
X800725Y737320D01*
X800686Y737344D01*
X800681Y737349D01*
X800671Y737354D01*
X800651Y737364D01*
X800627Y737378D01*
X800568Y737408D01*
X800495Y737432D01*
X800490D01*
X800481Y737437D01*
X800461D01*
X800437Y737442D01*
X800403Y737447D01*
X800364D01*
X800315Y737452D01*
X799769D01*
Y736028D01*
X799344D01*
Y739232D01*
X800832D01*
X800871Y739227D01*
D02*
G37*
G36*
X798511Y761428D02*
X798076D01*
X796394Y763944D01*
Y761428D01*
X795989D01*
Y764632D01*
X796418D01*
X798106Y762115D01*
Y764632D01*
X798511D01*
Y761428D01*
D02*
G37*
G36*
X803104D02*
X802626D01*
X802256Y762398D01*
X800910D01*
X800564Y761428D01*
X800115D01*
X801339Y764632D01*
X801802D01*
X803104Y761428D01*
D02*
G37*
G36*
X799188Y761374D02*
X798876D01*
X799803Y764685D01*
X800115D01*
X799188Y761374D01*
D02*
G37*
G36*
X861079Y738010D02*
X861118Y738006D01*
X861167Y738001D01*
X861220Y737996D01*
X861279Y737986D01*
X861406Y737957D01*
X861542Y737913D01*
X861611Y737884D01*
X861679Y737850D01*
X861742Y737811D01*
X861806Y737767D01*
X861811Y737762D01*
X861820Y737757D01*
X861835Y737742D01*
X861859Y737723D01*
X861884Y737698D01*
X861918Y737664D01*
X861952Y737630D01*
X861986Y737591D01*
X862025Y737542D01*
X862059Y737494D01*
X862098Y737435D01*
X862137Y737372D01*
X862171Y737308D01*
X862206Y737235D01*
X862264Y737079D01*
X861845Y736982D01*
Y736986D01*
X861840Y736996D01*
X861835Y737016D01*
X861825Y737040D01*
X861811Y737069D01*
X861796Y737103D01*
X861762Y737177D01*
X861718Y737259D01*
X861659Y737347D01*
X861596Y737425D01*
X861518Y737494D01*
X861508Y737498D01*
X861479Y737518D01*
X861435Y737542D01*
X861372Y737576D01*
X861299Y737606D01*
X861206Y737630D01*
X861103Y737650D01*
X860986Y737654D01*
X860952D01*
X860928Y737650D01*
X860894D01*
X860860Y737645D01*
X860772Y737630D01*
X860674Y737611D01*
X860572Y737576D01*
X860469Y737533D01*
X860372Y737474D01*
X860367D01*
X860362Y737464D01*
X860333Y737440D01*
X860289Y737401D01*
X860235Y737347D01*
X860182Y737279D01*
X860123Y737201D01*
X860070Y737103D01*
X860026Y736996D01*
Y736991D01*
X860021Y736982D01*
X860016Y736967D01*
X860011Y736942D01*
X860001Y736918D01*
X859996Y736884D01*
X859977Y736806D01*
X859957Y736713D01*
X859943Y736611D01*
X859933Y736499D01*
X859928Y736382D01*
Y736377D01*
Y736362D01*
Y736343D01*
Y736313D01*
X859933Y736279D01*
Y736235D01*
X859938Y736191D01*
X859943Y736143D01*
X859957Y736031D01*
X859977Y735909D01*
X860006Y735787D01*
X860045Y735670D01*
Y735665D01*
X860050Y735655D01*
X860060Y735640D01*
X860070Y735621D01*
X860094Y735562D01*
X860133Y735499D01*
X860187Y735421D01*
X860250Y735348D01*
X860323Y735275D01*
X860411Y735211D01*
X860416D01*
X860421Y735206D01*
X860435Y735197D01*
X860455Y735187D01*
X860508Y735167D01*
X860577Y735138D01*
X860655Y735114D01*
X860747Y735089D01*
X860850Y735070D01*
X860957Y735065D01*
X860991D01*
X861016Y735070D01*
X861045D01*
X861084Y735075D01*
X861167Y735089D01*
X861260Y735114D01*
X861362Y735153D01*
X861459Y735201D01*
X861557Y735270D01*
X861562Y735275D01*
X861567Y735279D01*
X861596Y735309D01*
X861640Y735358D01*
X861693Y735421D01*
X861747Y735509D01*
X861806Y735611D01*
X861854Y735738D01*
X861893Y735879D01*
X862318Y735772D01*
Y735767D01*
X862313Y735748D01*
X862303Y735723D01*
X862293Y735684D01*
X862274Y735645D01*
X862254Y735592D01*
X862235Y735538D01*
X862206Y735479D01*
X862142Y735348D01*
X862054Y735216D01*
X861957Y735089D01*
X861898Y735031D01*
X861835Y734977D01*
X861830Y734972D01*
X861820Y734967D01*
X861801Y734953D01*
X861772Y734933D01*
X861737Y734914D01*
X861698Y734889D01*
X861655Y734865D01*
X861601Y734840D01*
X861542Y734816D01*
X861479Y734792D01*
X861406Y734767D01*
X861333Y734748D01*
X861172Y734714D01*
X861084Y734709D01*
X860991Y734704D01*
X860943D01*
X860903Y734709D01*
X860860D01*
X860811Y734714D01*
X860752Y734724D01*
X860694Y734728D01*
X860557Y734758D01*
X860416Y734792D01*
X860279Y734845D01*
X860211Y734875D01*
X860148Y734914D01*
X860143Y734919D01*
X860133Y734923D01*
X860118Y734938D01*
X860094Y734953D01*
X860035Y735002D01*
X859967Y735070D01*
X859884Y735153D01*
X859806Y735260D01*
X859723Y735382D01*
X859655Y735523D01*
Y735528D01*
X859650Y735543D01*
X859640Y735562D01*
X859631Y735592D01*
X859616Y735631D01*
X859601Y735675D01*
X859587Y735723D01*
X859572Y735782D01*
X859557Y735840D01*
X859543Y735909D01*
X859514Y736055D01*
X859494Y736211D01*
X859489Y736382D01*
Y736386D01*
Y736406D01*
Y736430D01*
X859494Y736464D01*
Y736508D01*
X859499Y736562D01*
X859504Y736616D01*
X859514Y736679D01*
X859538Y736816D01*
X859567Y736962D01*
X859616Y737113D01*
X859679Y737255D01*
Y737259D01*
X859689Y737269D01*
X859699Y737289D01*
X859714Y737318D01*
X859733Y737347D01*
X859757Y737381D01*
X859821Y737464D01*
X859894Y737557D01*
X859987Y737650D01*
X860099Y737742D01*
X860221Y737820D01*
X860226D01*
X860235Y737830D01*
X860255Y737840D01*
X860284Y737850D01*
X860313Y737864D01*
X860352Y737884D01*
X860401Y737898D01*
X860450Y737918D01*
X860504Y737937D01*
X860562Y737952D01*
X860694Y737986D01*
X860840Y738006D01*
X860996Y738015D01*
X861045D01*
X861079Y738010D01*
D02*
G37*
G36*
X867390Y736113D02*
Y734758D01*
X866965D01*
Y736113D01*
X865732Y737962D01*
X866244D01*
X866878Y736991D01*
Y736986D01*
X866887Y736982D01*
X866897Y736967D01*
X866907Y736947D01*
X866941Y736894D01*
X866985Y736825D01*
X867034Y736742D01*
X867087Y736650D01*
X867146Y736552D01*
X867204Y736450D01*
Y736455D01*
X867209Y736460D01*
X867219Y736474D01*
X867229Y736494D01*
X867258Y736547D01*
X867302Y736616D01*
X867351Y736699D01*
X867414Y736796D01*
X867482Y736903D01*
X867555Y737016D01*
X868175Y737962D01*
X868667D01*
X867390Y736113D01*
D02*
G37*
G36*
X870862Y737537D02*
X869584D01*
X869409Y736674D01*
X869414Y736679D01*
X869423Y736684D01*
X869438Y736694D01*
X869457Y736708D01*
X869487Y736723D01*
X869516Y736738D01*
X869594Y736777D01*
X869682Y736816D01*
X869784Y736845D01*
X869896Y736869D01*
X870013Y736879D01*
X870052D01*
X870082Y736874D01*
X870121Y736869D01*
X870160Y736864D01*
X870208Y736855D01*
X870257Y736845D01*
X870369Y736806D01*
X870428Y736786D01*
X870486Y736757D01*
X870550Y736723D01*
X870608Y736684D01*
X870667Y736640D01*
X870721Y736586D01*
X870725Y736582D01*
X870735Y736572D01*
X870750Y736557D01*
X870764Y736533D01*
X870789Y736504D01*
X870813Y736469D01*
X870837Y736430D01*
X870867Y736386D01*
X870896Y736333D01*
X870920Y736279D01*
X870945Y736216D01*
X870969Y736152D01*
X870984Y736079D01*
X870999Y736006D01*
X871008Y735923D01*
X871013Y735840D01*
Y735835D01*
Y735821D01*
Y735796D01*
X871008Y735767D01*
X871003Y735728D01*
X870999Y735684D01*
X870994Y735636D01*
X870984Y735582D01*
X870950Y735465D01*
X870906Y735343D01*
X870876Y735275D01*
X870842Y735211D01*
X870803Y735148D01*
X870760Y735089D01*
X870755Y735084D01*
X870745Y735075D01*
X870725Y735055D01*
X870701Y735031D01*
X870672Y735002D01*
X870633Y734967D01*
X870589Y734933D01*
X870535Y734899D01*
X870481Y734860D01*
X870418Y734826D01*
X870345Y734792D01*
X870272Y734762D01*
X870189Y734738D01*
X870106Y734719D01*
X870013Y734709D01*
X869916Y734704D01*
X869872D01*
X869843Y734709D01*
X869809Y734714D01*
X869765Y734719D01*
X869716Y734724D01*
X869662Y734733D01*
X869550Y734762D01*
X869433Y734806D01*
X869374Y734836D01*
X869316Y734870D01*
X869257Y734904D01*
X869204Y734948D01*
X869199Y734953D01*
X869194Y734958D01*
X869179Y734972D01*
X869160Y734992D01*
X869140Y735016D01*
X869116Y735045D01*
X869092Y735079D01*
X869062Y735118D01*
X869009Y735211D01*
X868955Y735323D01*
X868916Y735450D01*
X868901Y735523D01*
X868892Y735596D01*
X869306Y735626D01*
Y735621D01*
Y735611D01*
X869311Y735596D01*
X869316Y735577D01*
X869331Y735523D01*
X869350Y735455D01*
X869374Y735382D01*
X869414Y735309D01*
X869457Y735236D01*
X869516Y735172D01*
X869526Y735167D01*
X869545Y735148D01*
X869579Y735128D01*
X869628Y735099D01*
X869687Y735075D01*
X869755Y735050D01*
X869833Y735031D01*
X869916Y735026D01*
X869945D01*
X869965Y735031D01*
X870018Y735036D01*
X870087Y735050D01*
X870160Y735079D01*
X870243Y735114D01*
X870321Y735167D01*
X870360Y735197D01*
X870399Y735236D01*
Y735240D01*
X870408Y735245D01*
X870428Y735275D01*
X870462Y735323D01*
X870496Y735387D01*
X870530Y735470D01*
X870564Y735567D01*
X870584Y735679D01*
X870594Y735806D01*
Y735811D01*
Y735821D01*
Y735840D01*
X870589Y735860D01*
Y735889D01*
X870584Y735923D01*
X870569Y736001D01*
X870550Y736084D01*
X870516Y736172D01*
X870467Y736260D01*
X870404Y736338D01*
X870394Y736348D01*
X870369Y736367D01*
X870330Y736401D01*
X870272Y736435D01*
X870203Y736469D01*
X870116Y736504D01*
X870018Y736523D01*
X869911Y736533D01*
X869877D01*
X869843Y736528D01*
X869794Y736523D01*
X869740Y736508D01*
X869682Y736494D01*
X869623Y736469D01*
X869565Y736440D01*
X869560Y736435D01*
X869540Y736425D01*
X869511Y736406D01*
X869477Y736382D01*
X869443Y736348D01*
X869404Y736309D01*
X869365Y736265D01*
X869331Y736216D01*
X868960Y736269D01*
X869272Y737913D01*
X870862D01*
Y737537D01*
D02*
G37*
G36*
X864371Y737957D02*
X864410D01*
X864507Y737952D01*
X864610Y737942D01*
X864717Y737923D01*
X864820Y737903D01*
X864868Y737888D01*
X864912Y737874D01*
X864917D01*
X864922Y737869D01*
X864951Y737859D01*
X864990Y737835D01*
X865039Y737801D01*
X865098Y737762D01*
X865156Y737708D01*
X865215Y737645D01*
X865268Y737567D01*
X865273Y737557D01*
X865288Y737528D01*
X865312Y737484D01*
X865337Y737425D01*
X865361Y737352D01*
X865385Y737269D01*
X865400Y737181D01*
X865405Y737084D01*
Y737079D01*
Y737069D01*
Y737050D01*
X865400Y737025D01*
Y736996D01*
X865395Y736962D01*
X865376Y736884D01*
X865351Y736791D01*
X865312Y736699D01*
X865254Y736601D01*
X865219Y736552D01*
X865180Y736508D01*
X865171Y736499D01*
X865156Y736489D01*
X865141Y736469D01*
X865117Y736455D01*
X865088Y736430D01*
X865054Y736411D01*
X865015Y736386D01*
X864971Y736362D01*
X864917Y736338D01*
X864863Y736313D01*
X864800Y736289D01*
X864737Y736265D01*
X864663Y736245D01*
X864585Y736230D01*
X864503Y736216D01*
X864512Y736211D01*
X864532Y736201D01*
X864561Y736187D01*
X864595Y736167D01*
X864678Y736113D01*
X864722Y736084D01*
X864756Y736055D01*
X864766Y736045D01*
X864790Y736026D01*
X864824Y735987D01*
X864868Y735938D01*
X864922Y735874D01*
X864980Y735801D01*
X865044Y735718D01*
X865107Y735626D01*
X865663Y734758D01*
X865132D01*
X864707Y735421D01*
Y735426D01*
X864698Y735435D01*
X864688Y735450D01*
X864678Y735470D01*
X864644Y735518D01*
X864600Y735582D01*
X864551Y735655D01*
X864498Y735728D01*
X864449Y735796D01*
X864400Y735860D01*
X864395Y735865D01*
X864381Y735884D01*
X864356Y735913D01*
X864332Y735948D01*
X864259Y736016D01*
X864225Y736050D01*
X864186Y736074D01*
X864181Y736079D01*
X864171Y736084D01*
X864151Y736094D01*
X864127Y736108D01*
X864069Y736138D01*
X863995Y736162D01*
X863990D01*
X863981Y736167D01*
X863961D01*
X863937Y736172D01*
X863903Y736177D01*
X863864D01*
X863815Y736182D01*
X863269D01*
Y734758D01*
X862844D01*
Y737962D01*
X864332D01*
X864371Y737957D01*
D02*
G37*
G36*
X861049Y789429D02*
X861088Y789424D01*
X861137Y789419D01*
X861191Y789414D01*
X861249Y789405D01*
X861376Y789375D01*
X861513Y789332D01*
X861581Y789302D01*
X861649Y789268D01*
X861712Y789229D01*
X861776Y789185D01*
X861781Y789180D01*
X861791Y789175D01*
X861805Y789161D01*
X861830Y789141D01*
X861854Y789117D01*
X861888Y789083D01*
X861922Y789049D01*
X861956Y789010D01*
X861995Y788961D01*
X862029Y788912D01*
X862068Y788854D01*
X862107Y788790D01*
X862142Y788727D01*
X862176Y788654D01*
X862234Y788498D01*
X861815Y788400D01*
Y788405D01*
X861810Y788415D01*
X861805Y788434D01*
X861795Y788459D01*
X861781Y788488D01*
X861766Y788522D01*
X861732Y788595D01*
X861688Y788678D01*
X861630Y788766D01*
X861566Y788844D01*
X861488Y788912D01*
X861478Y788917D01*
X861449Y788936D01*
X861405Y788961D01*
X861342Y788995D01*
X861269Y789024D01*
X861176Y789049D01*
X861074Y789068D01*
X860957Y789073D01*
X860922D01*
X860898Y789068D01*
X860864D01*
X860830Y789063D01*
X860742Y789049D01*
X860645Y789029D01*
X860542Y788995D01*
X860440Y788951D01*
X860342Y788893D01*
X860337D01*
X860332Y788883D01*
X860303Y788858D01*
X860259Y788820D01*
X860206Y788766D01*
X860152Y788698D01*
X860093Y788620D01*
X860040Y788522D01*
X859996Y788415D01*
Y788410D01*
X859991Y788400D01*
X859986Y788385D01*
X859981Y788361D01*
X859971Y788337D01*
X859967Y788303D01*
X859947Y788224D01*
X859928Y788132D01*
X859913Y788029D01*
X859903Y787917D01*
X859898Y787800D01*
Y787795D01*
Y787781D01*
Y787761D01*
Y787732D01*
X859903Y787698D01*
Y787654D01*
X859908Y787610D01*
X859913Y787561D01*
X859928Y787449D01*
X859947Y787327D01*
X859976Y787205D01*
X860015Y787088D01*
Y787083D01*
X860020Y787074D01*
X860030Y787059D01*
X860040Y787039D01*
X860064Y786981D01*
X860103Y786917D01*
X860157Y786840D01*
X860220Y786766D01*
X860293Y786693D01*
X860381Y786630D01*
X860386D01*
X860391Y786625D01*
X860406Y786615D01*
X860425Y786605D01*
X860479Y786586D01*
X860547Y786557D01*
X860625Y786532D01*
X860718Y786508D01*
X860820Y786488D01*
X860927Y786484D01*
X860962D01*
X860986Y786488D01*
X861015D01*
X861054Y786493D01*
X861137Y786508D01*
X861230Y786532D01*
X861332Y786571D01*
X861430Y786620D01*
X861527Y786688D01*
X861532Y786693D01*
X861537Y786698D01*
X861566Y786727D01*
X861610Y786776D01*
X861664Y786840D01*
X861717Y786927D01*
X861776Y787030D01*
X861825Y787157D01*
X861864Y787298D01*
X862288Y787191D01*
Y787186D01*
X862283Y787166D01*
X862273Y787142D01*
X862264Y787103D01*
X862244Y787064D01*
X862225Y787010D01*
X862205Y786956D01*
X862176Y786898D01*
X862112Y786766D01*
X862025Y786635D01*
X861927Y786508D01*
X861869Y786449D01*
X861805Y786396D01*
X861800Y786391D01*
X861791Y786386D01*
X861771Y786371D01*
X861742Y786352D01*
X861708Y786332D01*
X861669Y786308D01*
X861625Y786283D01*
X861571Y786259D01*
X861513Y786235D01*
X861449Y786210D01*
X861376Y786186D01*
X861303Y786167D01*
X861142Y786132D01*
X861054Y786127D01*
X860962Y786123D01*
X860913D01*
X860874Y786127D01*
X860830D01*
X860781Y786132D01*
X860723Y786142D01*
X860664Y786147D01*
X860527Y786176D01*
X860386Y786210D01*
X860249Y786264D01*
X860181Y786293D01*
X860118Y786332D01*
X860113Y786337D01*
X860103Y786342D01*
X860089Y786357D01*
X860064Y786371D01*
X860006Y786420D01*
X859937Y786488D01*
X859855Y786571D01*
X859776Y786678D01*
X859694Y786801D01*
X859625Y786942D01*
Y786947D01*
X859620Y786961D01*
X859611Y786981D01*
X859601Y787010D01*
X859586Y787049D01*
X859572Y787093D01*
X859557Y787142D01*
X859542Y787200D01*
X859528Y787259D01*
X859513Y787327D01*
X859484Y787474D01*
X859464Y787629D01*
X859459Y787800D01*
Y787805D01*
Y787825D01*
Y787849D01*
X859464Y787883D01*
Y787927D01*
X859469Y787981D01*
X859474Y788034D01*
X859484Y788098D01*
X859508Y788234D01*
X859538Y788381D01*
X859586Y788532D01*
X859650Y788673D01*
Y788678D01*
X859659Y788688D01*
X859669Y788707D01*
X859684Y788736D01*
X859703Y788766D01*
X859728Y788800D01*
X859791Y788883D01*
X859864Y788976D01*
X859957Y789068D01*
X860069Y789161D01*
X860191Y789239D01*
X860196D01*
X860206Y789249D01*
X860225Y789258D01*
X860254Y789268D01*
X860284Y789283D01*
X860323Y789302D01*
X860371Y789317D01*
X860420Y789336D01*
X860474Y789356D01*
X860532Y789370D01*
X860664Y789405D01*
X860810Y789424D01*
X860966Y789434D01*
X861015D01*
X861049Y789429D01*
D02*
G37*
G36*
X869959Y789390D02*
X870023Y789380D01*
X870096Y789366D01*
X870179Y789346D01*
X870262Y789317D01*
X870344Y789278D01*
X870349D01*
X870354Y789273D01*
X870384Y789258D01*
X870423Y789234D01*
X870471Y789200D01*
X870525Y789156D01*
X870583Y789102D01*
X870637Y789039D01*
X870686Y788971D01*
X870691Y788961D01*
X870705Y788936D01*
X870725Y788897D01*
X870744Y788849D01*
X870764Y788785D01*
X870783Y788717D01*
X870798Y788644D01*
X870803Y788561D01*
Y788551D01*
Y788527D01*
X870798Y788488D01*
X870788Y788439D01*
X870774Y788381D01*
X870754Y788317D01*
X870730Y788249D01*
X870691Y788186D01*
X870686Y788176D01*
X870671Y788156D01*
X870642Y788127D01*
X870608Y788088D01*
X870559Y788044D01*
X870505Y788000D01*
X870437Y787951D01*
X870359Y787912D01*
X870364D01*
X870374Y787907D01*
X870388D01*
X870408Y787898D01*
X870457Y787883D01*
X870520Y787854D01*
X870588Y787820D01*
X870661Y787771D01*
X870735Y787712D01*
X870798Y787639D01*
X870803Y787629D01*
X870822Y787600D01*
X870847Y787556D01*
X870881Y787498D01*
X870910Y787425D01*
X870935Y787337D01*
X870954Y787234D01*
X870959Y787122D01*
Y787117D01*
Y787103D01*
Y787083D01*
X870954Y787054D01*
X870949Y787015D01*
X870944Y786976D01*
X870935Y786927D01*
X870920Y786879D01*
X870886Y786766D01*
X870861Y786703D01*
X870827Y786644D01*
X870793Y786586D01*
X870754Y786527D01*
X870705Y786469D01*
X870652Y786410D01*
X870647Y786405D01*
X870637Y786396D01*
X870622Y786386D01*
X870598Y786366D01*
X870569Y786342D01*
X870530Y786318D01*
X870486Y786293D01*
X870442Y786269D01*
X870388Y786240D01*
X870330Y786215D01*
X870266Y786191D01*
X870198Y786167D01*
X870125Y786147D01*
X870047Y786137D01*
X869964Y786127D01*
X869881Y786123D01*
X869842D01*
X869813Y786127D01*
X869774Y786132D01*
X869735Y786137D01*
X869686Y786142D01*
X869637Y786152D01*
X869525Y786181D01*
X869408Y786230D01*
X869350Y786254D01*
X869296Y786288D01*
X869237Y786327D01*
X869184Y786371D01*
X869179Y786376D01*
X869174Y786381D01*
X869159Y786396D01*
X869140Y786415D01*
X869120Y786444D01*
X869096Y786474D01*
X869067Y786508D01*
X869042Y786547D01*
X868984Y786644D01*
X868935Y786757D01*
X868891Y786883D01*
X868876Y786952D01*
X868867Y787025D01*
X869262Y787078D01*
Y787074D01*
X869267Y787064D01*
Y787044D01*
X869276Y787025D01*
X869291Y786966D01*
X869315Y786893D01*
X869345Y786815D01*
X869384Y786732D01*
X869433Y786659D01*
X869486Y786596D01*
X869496Y786591D01*
X869515Y786571D01*
X869549Y786552D01*
X869598Y786523D01*
X869652Y786498D01*
X869720Y786474D01*
X869798Y786454D01*
X869881Y786449D01*
X869910D01*
X869930Y786454D01*
X869979Y786459D01*
X870042Y786474D01*
X870120Y786498D01*
X870198Y786527D01*
X870276Y786576D01*
X870349Y786639D01*
X870359Y786649D01*
X870379Y786674D01*
X870408Y786713D01*
X870447Y786771D01*
X870481Y786840D01*
X870510Y786922D01*
X870530Y787015D01*
X870539Y787117D01*
Y787122D01*
Y787127D01*
Y787142D01*
X870535Y787161D01*
X870530Y787210D01*
X870515Y787273D01*
X870496Y787342D01*
X870462Y787420D01*
X870418Y787493D01*
X870359Y787561D01*
X870349Y787571D01*
X870330Y787590D01*
X870291Y787615D01*
X870237Y787649D01*
X870174Y787683D01*
X870096Y787708D01*
X870013Y787727D01*
X869915Y787737D01*
X869871D01*
X869837Y787732D01*
X869798Y787727D01*
X869750Y787722D01*
X869696Y787712D01*
X869637Y787698D01*
X869681Y788044D01*
X869706D01*
X869725Y788039D01*
X869789D01*
X869832Y788044D01*
X869896Y788054D01*
X869964Y788068D01*
X870037Y788093D01*
X870115Y788122D01*
X870193Y788166D01*
X870203Y788171D01*
X870227Y788190D01*
X870257Y788224D01*
X870296Y788268D01*
X870335Y788322D01*
X870364Y788390D01*
X870388Y788473D01*
X870398Y788571D01*
Y788576D01*
Y788580D01*
Y788605D01*
X870388Y788644D01*
X870379Y788698D01*
X870364Y788751D01*
X870335Y788810D01*
X870301Y788873D01*
X870252Y788927D01*
X870247Y788932D01*
X870227Y788951D01*
X870193Y788976D01*
X870149Y789000D01*
X870096Y789029D01*
X870032Y789049D01*
X869959Y789068D01*
X869876Y789073D01*
X869837D01*
X869793Y789063D01*
X869745Y789053D01*
X869681Y789039D01*
X869618Y789010D01*
X869554Y788976D01*
X869491Y788927D01*
X869486Y788922D01*
X869467Y788902D01*
X869442Y788868D01*
X869413Y788820D01*
X869379Y788761D01*
X869350Y788688D01*
X869320Y788600D01*
X869301Y788498D01*
X868906Y788566D01*
Y788571D01*
X868911Y788585D01*
X868916Y788605D01*
X868920Y788629D01*
X868930Y788663D01*
X868940Y788702D01*
X868974Y788790D01*
X869013Y788888D01*
X869072Y788990D01*
X869140Y789088D01*
X869228Y789175D01*
X869233Y789180D01*
X869237Y789185D01*
X869252Y789195D01*
X869276Y789210D01*
X869301Y789224D01*
X869330Y789244D01*
X869403Y789288D01*
X869496Y789327D01*
X869608Y789361D01*
X869730Y789385D01*
X869798Y789395D01*
X869910D01*
X869959Y789390D01*
D02*
G37*
G36*
X867360Y787532D02*
Y786176D01*
X866936D01*
Y787532D01*
X865702Y789380D01*
X866214D01*
X866848Y788410D01*
Y788405D01*
X866858Y788400D01*
X866867Y788385D01*
X866877Y788366D01*
X866911Y788312D01*
X866955Y788244D01*
X867004Y788161D01*
X867057Y788068D01*
X867116Y787971D01*
X867175Y787868D01*
Y787873D01*
X867179Y787878D01*
X867189Y787893D01*
X867199Y787912D01*
X867228Y787966D01*
X867272Y788034D01*
X867321Y788117D01*
X867384Y788215D01*
X867452Y788322D01*
X867526Y788434D01*
X868145Y789380D01*
X868638D01*
X867360Y787532D01*
D02*
G37*
G36*
X864341Y789375D02*
X864380D01*
X864478Y789370D01*
X864580Y789361D01*
X864687Y789341D01*
X864790Y789322D01*
X864839Y789307D01*
X864882Y789293D01*
X864887D01*
X864892Y789288D01*
X864921Y789278D01*
X864960Y789253D01*
X865009Y789219D01*
X865068Y789180D01*
X865126Y789127D01*
X865185Y789063D01*
X865238Y788985D01*
X865243Y788976D01*
X865258Y788946D01*
X865282Y788902D01*
X865307Y788844D01*
X865331Y788771D01*
X865356Y788688D01*
X865370Y788600D01*
X865375Y788503D01*
Y788498D01*
Y788488D01*
Y788468D01*
X865370Y788444D01*
Y788415D01*
X865365Y788381D01*
X865346Y788303D01*
X865321Y788210D01*
X865282Y788117D01*
X865224Y788020D01*
X865190Y787971D01*
X865151Y787927D01*
X865141Y787917D01*
X865126Y787907D01*
X865112Y787888D01*
X865087Y787873D01*
X865058Y787849D01*
X865024Y787830D01*
X864985Y787805D01*
X864941Y787781D01*
X864887Y787756D01*
X864834Y787732D01*
X864770Y787708D01*
X864707Y787683D01*
X864634Y787664D01*
X864556Y787649D01*
X864473Y787634D01*
X864482Y787629D01*
X864502Y787620D01*
X864531Y787605D01*
X864566Y787586D01*
X864648Y787532D01*
X864692Y787503D01*
X864726Y787474D01*
X864736Y787464D01*
X864761Y787444D01*
X864795Y787405D01*
X864839Y787356D01*
X864892Y787293D01*
X864951Y787220D01*
X865014Y787137D01*
X865078Y787044D01*
X865633Y786176D01*
X865102D01*
X864678Y786840D01*
Y786844D01*
X864668Y786854D01*
X864658Y786869D01*
X864648Y786888D01*
X864614Y786937D01*
X864570Y787000D01*
X864522Y787074D01*
X864468Y787147D01*
X864419Y787215D01*
X864370Y787278D01*
X864365Y787283D01*
X864351Y787303D01*
X864326Y787332D01*
X864302Y787366D01*
X864229Y787434D01*
X864195Y787469D01*
X864156Y787493D01*
X864151Y787498D01*
X864141Y787503D01*
X864122Y787513D01*
X864097Y787527D01*
X864039Y787556D01*
X863966Y787581D01*
X863961D01*
X863951Y787586D01*
X863932D01*
X863907Y787590D01*
X863873Y787595D01*
X863834D01*
X863785Y787600D01*
X863239D01*
Y786176D01*
X862815D01*
Y789380D01*
X864302D01*
X864341Y789375D01*
D02*
G37*
G36*
X860424Y764264D02*
X860463Y764259D01*
X860512Y764255D01*
X860565Y764250D01*
X860624Y764240D01*
X860751Y764211D01*
X860887Y764167D01*
X860956Y764137D01*
X861024Y764103D01*
X861087Y764064D01*
X861151Y764020D01*
X861156Y764016D01*
X861165Y764011D01*
X861180Y763996D01*
X861204Y763977D01*
X861229Y763952D01*
X861263Y763918D01*
X861297Y763884D01*
X861331Y763845D01*
X861370Y763796D01*
X861404Y763747D01*
X861443Y763689D01*
X861482Y763625D01*
X861516Y763562D01*
X861551Y763489D01*
X861609Y763333D01*
X861190Y763235D01*
Y763240D01*
X861185Y763250D01*
X861180Y763269D01*
X861170Y763294D01*
X861156Y763323D01*
X861141Y763357D01*
X861107Y763430D01*
X861063Y763513D01*
X861004Y763601D01*
X860941Y763679D01*
X860863Y763747D01*
X860853Y763752D01*
X860824Y763772D01*
X860780Y763796D01*
X860717Y763830D01*
X860643Y763859D01*
X860551Y763884D01*
X860448Y763903D01*
X860331Y763908D01*
X860297D01*
X860273Y763903D01*
X860239D01*
X860205Y763898D01*
X860117Y763884D01*
X860019Y763864D01*
X859917Y763830D01*
X859814Y763786D01*
X859717Y763728D01*
X859712D01*
X859707Y763718D01*
X859678Y763694D01*
X859634Y763655D01*
X859580Y763601D01*
X859527Y763533D01*
X859468Y763455D01*
X859415Y763357D01*
X859371Y763250D01*
Y763245D01*
X859366Y763235D01*
X859361Y763221D01*
X859356Y763196D01*
X859346Y763172D01*
X859341Y763138D01*
X859322Y763060D01*
X859302Y762967D01*
X859288Y762865D01*
X859278Y762752D01*
X859273Y762635D01*
Y762630D01*
Y762616D01*
Y762596D01*
Y762567D01*
X859278Y762533D01*
Y762489D01*
X859283Y762445D01*
X859288Y762396D01*
X859302Y762284D01*
X859322Y762162D01*
X859351Y762040D01*
X859390Y761923D01*
Y761918D01*
X859395Y761909D01*
X859405Y761894D01*
X859415Y761875D01*
X859439Y761816D01*
X859478Y761753D01*
X859532Y761675D01*
X859595Y761601D01*
X859668Y761528D01*
X859756Y761465D01*
X859761D01*
X859766Y761460D01*
X859780Y761450D01*
X859800Y761441D01*
X859853Y761421D01*
X859922Y761392D01*
X860000Y761367D01*
X860092Y761343D01*
X860195Y761323D01*
X860302Y761319D01*
X860336D01*
X860361Y761323D01*
X860390D01*
X860429Y761328D01*
X860512Y761343D01*
X860604Y761367D01*
X860707Y761406D01*
X860804Y761455D01*
X860902Y761524D01*
X860907Y761528D01*
X860912Y761533D01*
X860941Y761562D01*
X860985Y761611D01*
X861039Y761675D01*
X861092Y761762D01*
X861151Y761865D01*
X861199Y761992D01*
X861238Y762133D01*
X861663Y762026D01*
Y762021D01*
X861658Y762001D01*
X861648Y761977D01*
X861638Y761938D01*
X861619Y761899D01*
X861599Y761845D01*
X861580Y761792D01*
X861551Y761733D01*
X861487Y761601D01*
X861399Y761470D01*
X861302Y761343D01*
X861243Y761284D01*
X861180Y761231D01*
X861175Y761226D01*
X861165Y761221D01*
X861146Y761207D01*
X861116Y761187D01*
X861082Y761168D01*
X861043Y761143D01*
X861000Y761119D01*
X860946Y761094D01*
X860887Y761070D01*
X860824Y761046D01*
X860751Y761021D01*
X860678Y761002D01*
X860517Y760967D01*
X860429Y760963D01*
X860336Y760958D01*
X860287D01*
X860248Y760963D01*
X860205D01*
X860156Y760967D01*
X860097Y760977D01*
X860039Y760982D01*
X859902Y761011D01*
X859761Y761046D01*
X859624Y761099D01*
X859556Y761128D01*
X859493Y761168D01*
X859488Y761172D01*
X859478Y761177D01*
X859463Y761192D01*
X859439Y761207D01*
X859380Y761255D01*
X859312Y761323D01*
X859229Y761406D01*
X859151Y761514D01*
X859068Y761636D01*
X859000Y761777D01*
Y761782D01*
X858995Y761797D01*
X858985Y761816D01*
X858976Y761845D01*
X858961Y761884D01*
X858946Y761928D01*
X858932Y761977D01*
X858917Y762036D01*
X858903Y762094D01*
X858888Y762162D01*
X858859Y762309D01*
X858839Y762465D01*
X858834Y762635D01*
Y762640D01*
Y762660D01*
Y762684D01*
X858839Y762718D01*
Y762762D01*
X858844Y762816D01*
X858849Y762869D01*
X858859Y762933D01*
X858883Y763069D01*
X858912Y763216D01*
X858961Y763367D01*
X859024Y763508D01*
Y763513D01*
X859034Y763523D01*
X859044Y763542D01*
X859059Y763572D01*
X859078Y763601D01*
X859102Y763635D01*
X859166Y763718D01*
X859239Y763811D01*
X859332Y763903D01*
X859444Y763996D01*
X859566Y764074D01*
X859571D01*
X859580Y764084D01*
X859600Y764094D01*
X859629Y764103D01*
X859658Y764118D01*
X859697Y764137D01*
X859746Y764152D01*
X859795Y764172D01*
X859849Y764191D01*
X859907Y764206D01*
X860039Y764240D01*
X860185Y764259D01*
X860341Y764269D01*
X860390D01*
X860424Y764264D01*
D02*
G37*
G36*
X866735Y762367D02*
Y761011D01*
X866310D01*
Y762367D01*
X865077Y764215D01*
X865589D01*
X866223Y763245D01*
Y763240D01*
X866232Y763235D01*
X866242Y763221D01*
X866252Y763201D01*
X866286Y763148D01*
X866330Y763079D01*
X866379Y762996D01*
X866432Y762904D01*
X866491Y762806D01*
X866549Y762704D01*
Y762709D01*
X866554Y762713D01*
X866564Y762728D01*
X866574Y762748D01*
X866603Y762801D01*
X866647Y762869D01*
X866696Y762952D01*
X866759Y763050D01*
X866827Y763157D01*
X866900Y763269D01*
X867520Y764215D01*
X868012D01*
X866735Y762367D01*
D02*
G37*
G36*
X869890Y762138D02*
X870324D01*
Y761777D01*
X869890D01*
Y761011D01*
X869495D01*
Y761777D01*
X868105D01*
Y762138D01*
X869568Y764211D01*
X869890D01*
Y762138D01*
D02*
G37*
G36*
X863716Y764211D02*
X863755D01*
X863852Y764206D01*
X863955Y764196D01*
X864062Y764176D01*
X864165Y764157D01*
X864213Y764142D01*
X864257Y764128D01*
X864262D01*
X864267Y764123D01*
X864296Y764113D01*
X864335Y764089D01*
X864384Y764055D01*
X864443Y764016D01*
X864501Y763962D01*
X864560Y763898D01*
X864613Y763820D01*
X864618Y763811D01*
X864633Y763782D01*
X864657Y763738D01*
X864681Y763679D01*
X864706Y763606D01*
X864730Y763523D01*
X864745Y763435D01*
X864750Y763338D01*
Y763333D01*
Y763323D01*
Y763304D01*
X864745Y763279D01*
Y763250D01*
X864740Y763216D01*
X864721Y763138D01*
X864696Y763045D01*
X864657Y762952D01*
X864599Y762855D01*
X864564Y762806D01*
X864525Y762762D01*
X864516Y762752D01*
X864501Y762743D01*
X864486Y762723D01*
X864462Y762709D01*
X864433Y762684D01*
X864399Y762665D01*
X864360Y762640D01*
X864316Y762616D01*
X864262Y762591D01*
X864208Y762567D01*
X864145Y762543D01*
X864082Y762518D01*
X864008Y762499D01*
X863931Y762484D01*
X863848Y762470D01*
X863857Y762465D01*
X863877Y762455D01*
X863906Y762440D01*
X863940Y762421D01*
X864023Y762367D01*
X864067Y762338D01*
X864101Y762309D01*
X864111Y762299D01*
X864135Y762279D01*
X864169Y762240D01*
X864213Y762192D01*
X864267Y762128D01*
X864325Y762055D01*
X864389Y761972D01*
X864452Y761880D01*
X865008Y761011D01*
X864477D01*
X864052Y761675D01*
Y761680D01*
X864043Y761689D01*
X864033Y761704D01*
X864023Y761723D01*
X863989Y761772D01*
X863945Y761836D01*
X863896Y761909D01*
X863843Y761982D01*
X863794Y762050D01*
X863745Y762114D01*
X863740Y762119D01*
X863726Y762138D01*
X863701Y762167D01*
X863677Y762201D01*
X863604Y762270D01*
X863570Y762304D01*
X863531Y762328D01*
X863526Y762333D01*
X863516Y762338D01*
X863496Y762348D01*
X863472Y762362D01*
X863413Y762392D01*
X863340Y762416D01*
X863335D01*
X863326Y762421D01*
X863306D01*
X863282Y762426D01*
X863248Y762431D01*
X863209D01*
X863160Y762436D01*
X862614D01*
Y761011D01*
X862189D01*
Y764215D01*
X863677D01*
X863716Y764211D01*
D02*
G37*
G36*
X861206Y815532D02*
X861245Y815527D01*
X861293Y815522D01*
X861347Y815517D01*
X861405Y815507D01*
X861532Y815478D01*
X861669Y815434D01*
X861737Y815405D01*
X861805Y815371D01*
X861869Y815332D01*
X861932Y815288D01*
X861937Y815283D01*
X861947Y815278D01*
X861961Y815263D01*
X861986Y815244D01*
X862010Y815219D01*
X862044Y815185D01*
X862078Y815151D01*
X862113Y815112D01*
X862152Y815063D01*
X862186Y815015D01*
X862225Y814956D01*
X862264Y814893D01*
X862298Y814829D01*
X862332Y814756D01*
X862391Y814600D01*
X861971Y814503D01*
Y814508D01*
X861966Y814517D01*
X861961Y814537D01*
X861952Y814561D01*
X861937Y814590D01*
X861922Y814624D01*
X861888Y814698D01*
X861844Y814781D01*
X861786Y814868D01*
X861722Y814946D01*
X861645Y815015D01*
X861635Y815020D01*
X861605Y815039D01*
X861562Y815063D01*
X861498Y815098D01*
X861425Y815127D01*
X861332Y815151D01*
X861230Y815171D01*
X861113Y815176D01*
X861079D01*
X861054Y815171D01*
X861020D01*
X860986Y815166D01*
X860898Y815151D01*
X860801Y815132D01*
X860698Y815098D01*
X860596Y815054D01*
X860498Y814995D01*
X860493D01*
X860489Y814985D01*
X860459Y814961D01*
X860415Y814922D01*
X860362Y814868D01*
X860308Y814800D01*
X860250Y814722D01*
X860196Y814624D01*
X860152Y814517D01*
Y814512D01*
X860147Y814503D01*
X860142Y814488D01*
X860137Y814464D01*
X860128Y814439D01*
X860123Y814405D01*
X860103Y814327D01*
X860084Y814234D01*
X860069Y814132D01*
X860060Y814020D01*
X860055Y813903D01*
Y813898D01*
Y813883D01*
Y813864D01*
Y813835D01*
X860060Y813800D01*
Y813756D01*
X860064Y813713D01*
X860069Y813664D01*
X860084Y813552D01*
X860103Y813430D01*
X860133Y813308D01*
X860172Y813191D01*
Y813186D01*
X860176Y813176D01*
X860186Y813161D01*
X860196Y813142D01*
X860220Y813083D01*
X860259Y813020D01*
X860313Y812942D01*
X860377Y812869D01*
X860450Y812796D01*
X860537Y812732D01*
X860542D01*
X860547Y812728D01*
X860562Y812718D01*
X860581Y812708D01*
X860635Y812688D01*
X860703Y812659D01*
X860781Y812635D01*
X860874Y812610D01*
X860976Y812591D01*
X861084Y812586D01*
X861118D01*
X861142Y812591D01*
X861171D01*
X861210Y812596D01*
X861293Y812610D01*
X861386Y812635D01*
X861488Y812674D01*
X861586Y812723D01*
X861684Y812791D01*
X861688Y812796D01*
X861693Y812801D01*
X861722Y812830D01*
X861766Y812879D01*
X861820Y812942D01*
X861874Y813030D01*
X861932Y813132D01*
X861981Y813259D01*
X862020Y813400D01*
X862444Y813293D01*
Y813288D01*
X862439Y813269D01*
X862430Y813244D01*
X862420Y813205D01*
X862400Y813166D01*
X862381Y813113D01*
X862361Y813059D01*
X862332Y813001D01*
X862269Y812869D01*
X862181Y812737D01*
X862083Y812610D01*
X862025Y812552D01*
X861961Y812498D01*
X861957Y812493D01*
X861947Y812488D01*
X861927Y812474D01*
X861898Y812454D01*
X861864Y812435D01*
X861825Y812411D01*
X861781Y812386D01*
X861727Y812362D01*
X861669Y812337D01*
X861605Y812313D01*
X861532Y812289D01*
X861459Y812269D01*
X861298Y812235D01*
X861210Y812230D01*
X861118Y812225D01*
X861069D01*
X861030Y812230D01*
X860986D01*
X860937Y812235D01*
X860879Y812245D01*
X860820Y812250D01*
X860684Y812279D01*
X860542Y812313D01*
X860406Y812367D01*
X860338Y812396D01*
X860274Y812435D01*
X860269Y812440D01*
X860259Y812445D01*
X860245Y812459D01*
X860220Y812474D01*
X860162Y812523D01*
X860094Y812591D01*
X860011Y812674D01*
X859933Y812781D01*
X859850Y812903D01*
X859781Y813044D01*
Y813049D01*
X859777Y813064D01*
X859767Y813083D01*
X859757Y813113D01*
X859743Y813152D01*
X859728Y813196D01*
X859713Y813244D01*
X859699Y813303D01*
X859684Y813361D01*
X859669Y813430D01*
X859640Y813576D01*
X859621Y813732D01*
X859616Y813903D01*
Y813908D01*
Y813927D01*
Y813951D01*
X859621Y813986D01*
Y814030D01*
X859625Y814083D01*
X859630Y814137D01*
X859640Y814200D01*
X859665Y814337D01*
X859694Y814483D01*
X859743Y814634D01*
X859806Y814776D01*
Y814781D01*
X859816Y814790D01*
X859825Y814810D01*
X859840Y814839D01*
X859859Y814868D01*
X859884Y814902D01*
X859947Y814985D01*
X860021Y815078D01*
X860113Y815171D01*
X860225Y815263D01*
X860347Y815341D01*
X860352D01*
X860362Y815351D01*
X860381Y815361D01*
X860411Y815371D01*
X860440Y815385D01*
X860479Y815405D01*
X860528Y815419D01*
X860576Y815439D01*
X860630Y815459D01*
X860689Y815473D01*
X860820Y815507D01*
X860967Y815527D01*
X861123Y815536D01*
X861171D01*
X861206Y815532D01*
D02*
G37*
G36*
X867516Y813634D02*
Y812279D01*
X867092D01*
Y813634D01*
X865858Y815483D01*
X866370D01*
X867004Y814512D01*
Y814508D01*
X867014Y814503D01*
X867024Y814488D01*
X867033Y814469D01*
X867067Y814415D01*
X867111Y814347D01*
X867160Y814264D01*
X867214Y814171D01*
X867272Y814073D01*
X867331Y813971D01*
Y813976D01*
X867336Y813981D01*
X867345Y813995D01*
X867355Y814015D01*
X867384Y814069D01*
X867428Y814137D01*
X867477Y814220D01*
X867541Y814317D01*
X867609Y814425D01*
X867682Y814537D01*
X868301Y815483D01*
X868794D01*
X867516Y813634D01*
D02*
G37*
G36*
X870154Y815493D02*
X870193Y815488D01*
X870237Y815483D01*
X870286Y815478D01*
X870340Y815463D01*
X870457Y815434D01*
X870579Y815390D01*
X870642Y815361D01*
X870701Y815327D01*
X870754Y815283D01*
X870808Y815239D01*
X870813Y815234D01*
X870818Y815229D01*
X870832Y815215D01*
X870852Y815195D01*
X870871Y815166D01*
X870896Y815137D01*
X870945Y815063D01*
X870993Y814971D01*
X871037Y814864D01*
X871071Y814742D01*
X871076Y814673D01*
X871081Y814605D01*
Y814595D01*
Y814571D01*
X871076Y814532D01*
X871071Y814483D01*
X871062Y814425D01*
X871047Y814361D01*
X871027Y814293D01*
X870998Y814225D01*
X870993Y814215D01*
X870984Y814191D01*
X870964Y814156D01*
X870935Y814108D01*
X870901Y814049D01*
X870857Y813981D01*
X870798Y813913D01*
X870735Y813835D01*
X870725Y813825D01*
X870701Y813795D01*
X870657Y813752D01*
X870628Y813722D01*
X870593Y813688D01*
X870554Y813649D01*
X870506Y813605D01*
X870457Y813561D01*
X870403Y813508D01*
X870345Y813454D01*
X870276Y813396D01*
X870208Y813337D01*
X870130Y813269D01*
X870125Y813264D01*
X870116Y813254D01*
X870096Y813240D01*
X870072Y813220D01*
X870013Y813171D01*
X869940Y813108D01*
X869867Y813040D01*
X869789Y812971D01*
X869725Y812913D01*
X869701Y812888D01*
X869677Y812864D01*
X869672Y812859D01*
X869662Y812844D01*
X869642Y812825D01*
X869618Y812796D01*
X869564Y812732D01*
X869511Y812654D01*
X871086D01*
Y812279D01*
X868964D01*
Y812284D01*
Y812303D01*
Y812332D01*
X868969Y812367D01*
X868974Y812406D01*
X868979Y812449D01*
X868994Y812498D01*
X869008Y812547D01*
Y812552D01*
X869013Y812557D01*
X869023Y812586D01*
X869043Y812625D01*
X869072Y812684D01*
X869106Y812747D01*
X869155Y812820D01*
X869203Y812893D01*
X869267Y812971D01*
Y812976D01*
X869277Y812981D01*
X869301Y813010D01*
X869340Y813054D01*
X869399Y813113D01*
X869472Y813181D01*
X869559Y813264D01*
X869667Y813357D01*
X869784Y813459D01*
X869789Y813464D01*
X869808Y813478D01*
X869833Y813498D01*
X869867Y813532D01*
X869911Y813566D01*
X869959Y813610D01*
X870067Y813703D01*
X870184Y813815D01*
X870301Y813927D01*
X870359Y813981D01*
X870408Y814034D01*
X870452Y814088D01*
X870491Y814137D01*
Y814142D01*
X870501Y814147D01*
X870510Y814161D01*
X870520Y814181D01*
X870549Y814230D01*
X870584Y814293D01*
X870618Y814366D01*
X870647Y814444D01*
X870667Y814532D01*
X870676Y814615D01*
Y814620D01*
Y814624D01*
X870671Y814654D01*
X870667Y814698D01*
X870657Y814751D01*
X870632Y814815D01*
X870603Y814878D01*
X870564Y814946D01*
X870506Y815010D01*
X870496Y815015D01*
X870476Y815034D01*
X870437Y815059D01*
X870389Y815093D01*
X870325Y815122D01*
X870252Y815146D01*
X870164Y815166D01*
X870067Y815171D01*
X870037D01*
X870018Y815166D01*
X869969Y815161D01*
X869906Y815151D01*
X869833Y815127D01*
X869755Y815098D01*
X869681Y815054D01*
X869613Y814995D01*
X869608Y814985D01*
X869589Y814966D01*
X869559Y814927D01*
X869530Y814873D01*
X869496Y814805D01*
X869472Y814727D01*
X869452Y814634D01*
X869443Y814527D01*
X869038Y814571D01*
Y814576D01*
Y814590D01*
X869043Y814615D01*
X869047Y814644D01*
X869057Y814683D01*
X869062Y814727D01*
X869091Y814825D01*
X869130Y814937D01*
X869184Y815049D01*
X869257Y815161D01*
X869296Y815210D01*
X869345Y815258D01*
X869350Y815263D01*
X869360Y815268D01*
X869374Y815283D01*
X869394Y815297D01*
X869423Y815312D01*
X869457Y815337D01*
X869496Y815356D01*
X869540Y815380D01*
X869589Y815400D01*
X869642Y815424D01*
X869706Y815444D01*
X869769Y815459D01*
X869915Y815488D01*
X869994Y815493D01*
X870076Y815498D01*
X870120D01*
X870154Y815493D01*
D02*
G37*
G36*
X864497Y815478D02*
X864536D01*
X864634Y815473D01*
X864736Y815463D01*
X864844Y815444D01*
X864946Y815424D01*
X864995Y815410D01*
X865039Y815395D01*
X865044D01*
X865049Y815390D01*
X865078Y815380D01*
X865117Y815356D01*
X865165Y815322D01*
X865224Y815283D01*
X865283Y815229D01*
X865341Y815166D01*
X865395Y815088D01*
X865400Y815078D01*
X865414Y815049D01*
X865439Y815005D01*
X865463Y814946D01*
X865487Y814873D01*
X865512Y814790D01*
X865526Y814703D01*
X865531Y814605D01*
Y814600D01*
Y814590D01*
Y814571D01*
X865526Y814547D01*
Y814517D01*
X865521Y814483D01*
X865502Y814405D01*
X865478Y814312D01*
X865439Y814220D01*
X865380Y814122D01*
X865346Y814073D01*
X865307Y814030D01*
X865297Y814020D01*
X865283Y814010D01*
X865268Y813990D01*
X865244Y813976D01*
X865214Y813951D01*
X865180Y813932D01*
X865141Y813908D01*
X865097Y813883D01*
X865044Y813859D01*
X864990Y813835D01*
X864927Y813810D01*
X864863Y813786D01*
X864790Y813766D01*
X864712Y813752D01*
X864629Y813737D01*
X864639Y813732D01*
X864658Y813722D01*
X864688Y813708D01*
X864722Y813688D01*
X864805Y813634D01*
X864848Y813605D01*
X864883Y813576D01*
X864892Y813566D01*
X864917Y813547D01*
X864951Y813508D01*
X864995Y813459D01*
X865049Y813396D01*
X865107Y813322D01*
X865170Y813240D01*
X865234Y813147D01*
X865790Y812279D01*
X865258D01*
X864834Y812942D01*
Y812947D01*
X864824Y812957D01*
X864814Y812971D01*
X864805Y812991D01*
X864771Y813040D01*
X864727Y813103D01*
X864678Y813176D01*
X864624Y813249D01*
X864575Y813318D01*
X864527Y813381D01*
X864522Y813386D01*
X864507Y813405D01*
X864483Y813435D01*
X864458Y813469D01*
X864385Y813537D01*
X864351Y813571D01*
X864312Y813596D01*
X864307Y813600D01*
X864297Y813605D01*
X864278Y813615D01*
X864253Y813630D01*
X864195Y813659D01*
X864122Y813683D01*
X864117D01*
X864107Y813688D01*
X864088D01*
X864063Y813693D01*
X864029Y813698D01*
X863990D01*
X863941Y813703D01*
X863395D01*
Y812279D01*
X862971D01*
Y815483D01*
X864458D01*
X864497Y815478D01*
D02*
G37*
G36*
X860268Y839812D02*
X860307Y839807D01*
X860356Y839802D01*
X860409Y839798D01*
X860468Y839788D01*
X860594Y839759D01*
X860731Y839715D01*
X860799Y839685D01*
X860868Y839651D01*
X860931Y839612D01*
X860994Y839568D01*
X860999Y839564D01*
X861009Y839559D01*
X861024Y839544D01*
X861048Y839525D01*
X861072Y839500D01*
X861107Y839466D01*
X861141Y839432D01*
X861175Y839393D01*
X861214Y839344D01*
X861248Y839295D01*
X861287Y839237D01*
X861326Y839173D01*
X861360Y839110D01*
X861394Y839037D01*
X861453Y838881D01*
X861033Y838783D01*
Y838788D01*
X861029Y838798D01*
X861024Y838817D01*
X861014Y838842D01*
X860999Y838871D01*
X860985Y838905D01*
X860950Y838978D01*
X860907Y839061D01*
X860848Y839149D01*
X860785Y839227D01*
X860707Y839295D01*
X860697Y839300D01*
X860668Y839320D01*
X860624Y839344D01*
X860560Y839378D01*
X860487Y839407D01*
X860395Y839432D01*
X860292Y839451D01*
X860175Y839456D01*
X860141D01*
X860117Y839451D01*
X860082D01*
X860048Y839446D01*
X859960Y839432D01*
X859863Y839412D01*
X859761Y839378D01*
X859658Y839334D01*
X859561Y839276D01*
X859556D01*
X859551Y839266D01*
X859522Y839242D01*
X859478Y839203D01*
X859424Y839149D01*
X859370Y839081D01*
X859312Y839003D01*
X859258Y838905D01*
X859214Y838798D01*
Y838793D01*
X859210Y838783D01*
X859205Y838769D01*
X859200Y838744D01*
X859190Y838720D01*
X859185Y838686D01*
X859166Y838608D01*
X859146Y838515D01*
X859131Y838412D01*
X859122Y838300D01*
X859117Y838183D01*
Y838178D01*
Y838164D01*
Y838144D01*
Y838115D01*
X859122Y838081D01*
Y838037D01*
X859127Y837993D01*
X859131Y837944D01*
X859146Y837832D01*
X859166Y837710D01*
X859195Y837588D01*
X859234Y837471D01*
Y837466D01*
X859239Y837457D01*
X859249Y837442D01*
X859258Y837423D01*
X859283Y837364D01*
X859322Y837301D01*
X859375Y837223D01*
X859439Y837150D01*
X859512Y837076D01*
X859600Y837013D01*
X859604D01*
X859609Y837008D01*
X859624Y836998D01*
X859643Y836989D01*
X859697Y836969D01*
X859765Y836940D01*
X859844Y836915D01*
X859936Y836891D01*
X860039Y836871D01*
X860146Y836867D01*
X860180D01*
X860204Y836871D01*
X860234D01*
X860273Y836876D01*
X860356Y836891D01*
X860448Y836915D01*
X860551Y836954D01*
X860648Y837003D01*
X860746Y837071D01*
X860751Y837076D01*
X860755Y837081D01*
X860785Y837110D01*
X860829Y837159D01*
X860882Y837223D01*
X860936Y837310D01*
X860994Y837413D01*
X861043Y837540D01*
X861082Y837681D01*
X861507Y837574D01*
Y837569D01*
X861502Y837549D01*
X861492Y837525D01*
X861482Y837486D01*
X861463Y837447D01*
X861443Y837393D01*
X861424Y837340D01*
X861394Y837281D01*
X861331Y837150D01*
X861243Y837018D01*
X861146Y836891D01*
X861087Y836833D01*
X861024Y836779D01*
X861019Y836774D01*
X861009Y836769D01*
X860990Y836754D01*
X860960Y836735D01*
X860926Y836715D01*
X860887Y836691D01*
X860843Y836667D01*
X860790Y836642D01*
X860731Y836618D01*
X860668Y836593D01*
X860594Y836569D01*
X860521Y836550D01*
X860360Y836516D01*
X860273Y836511D01*
X860180Y836506D01*
X860131D01*
X860092Y836511D01*
X860048D01*
X860000Y836516D01*
X859941Y836525D01*
X859883Y836530D01*
X859746Y836559D01*
X859604Y836593D01*
X859468Y836647D01*
X859400Y836676D01*
X859336Y836715D01*
X859331Y836720D01*
X859322Y836725D01*
X859307Y836740D01*
X859283Y836754D01*
X859224Y836803D01*
X859156Y836871D01*
X859073Y836954D01*
X858995Y837062D01*
X858912Y837184D01*
X858844Y837325D01*
Y837330D01*
X858839Y837345D01*
X858829Y837364D01*
X858819Y837393D01*
X858805Y837432D01*
X858790Y837476D01*
X858775Y837525D01*
X858761Y837583D01*
X858746Y837642D01*
X858732Y837710D01*
X858702Y837857D01*
X858683Y838013D01*
X858678Y838183D01*
Y838188D01*
Y838208D01*
Y838232D01*
X858683Y838266D01*
Y838310D01*
X858688Y838364D01*
X858693Y838417D01*
X858702Y838481D01*
X858727Y838617D01*
X858756Y838764D01*
X858805Y838915D01*
X858868Y839056D01*
Y839061D01*
X858878Y839071D01*
X858888Y839090D01*
X858902Y839120D01*
X858922Y839149D01*
X858946Y839183D01*
X859010Y839266D01*
X859083Y839359D01*
X859175Y839451D01*
X859287Y839544D01*
X859409Y839622D01*
X859414D01*
X859424Y839632D01*
X859444Y839641D01*
X859473Y839651D01*
X859502Y839666D01*
X859541Y839685D01*
X859590Y839700D01*
X859639Y839719D01*
X859692Y839739D01*
X859751Y839754D01*
X859883Y839788D01*
X860029Y839807D01*
X860185Y839817D01*
X860234D01*
X860268Y839812D01*
D02*
G37*
G36*
X866578Y837915D02*
Y836559D01*
X866154D01*
Y837915D01*
X864920Y839763D01*
X865432D01*
X866066Y838793D01*
Y838788D01*
X866076Y838783D01*
X866086Y838769D01*
X866096Y838749D01*
X866130Y838695D01*
X866174Y838627D01*
X866222Y838544D01*
X866276Y838452D01*
X866335Y838354D01*
X866393Y838252D01*
Y838257D01*
X866398Y838261D01*
X866408Y838276D01*
X866417Y838296D01*
X866447Y838349D01*
X866491Y838417D01*
X866539Y838500D01*
X866603Y838598D01*
X866671Y838705D01*
X866744Y838817D01*
X867364Y839763D01*
X867856D01*
X866578Y837915D01*
D02*
G37*
G36*
X869563Y836559D02*
X869168D01*
Y839066D01*
X869163Y839061D01*
X869144Y839042D01*
X869109Y839017D01*
X869065Y838983D01*
X869012Y838939D01*
X868949Y838895D01*
X868875Y838842D01*
X868792Y838793D01*
X868788D01*
X868783Y838788D01*
X868753Y838769D01*
X868709Y838744D01*
X868656Y838715D01*
X868593Y838681D01*
X868524Y838652D01*
X868451Y838617D01*
X868383Y838588D01*
Y838973D01*
X868388D01*
X868397Y838978D01*
X868417Y838988D01*
X868436Y839003D01*
X868466Y839017D01*
X868500Y839032D01*
X868578Y839076D01*
X868666Y839129D01*
X868763Y839193D01*
X868861Y839266D01*
X868953Y839344D01*
X868958Y839349D01*
X868963Y839354D01*
X868992Y839383D01*
X869036Y839427D01*
X869090Y839481D01*
X869148Y839549D01*
X869207Y839622D01*
X869261Y839700D01*
X869305Y839778D01*
X869563D01*
Y836559D01*
D02*
G37*
G36*
X863560Y839759D02*
X863599D01*
X863696Y839754D01*
X863799Y839744D01*
X863906Y839724D01*
X864008Y839705D01*
X864057Y839690D01*
X864101Y839676D01*
X864106D01*
X864111Y839671D01*
X864140Y839661D01*
X864179Y839637D01*
X864228Y839603D01*
X864286Y839564D01*
X864345Y839510D01*
X864403Y839446D01*
X864457Y839368D01*
X864462Y839359D01*
X864476Y839329D01*
X864501Y839286D01*
X864525Y839227D01*
X864550Y839154D01*
X864574Y839071D01*
X864589Y838983D01*
X864594Y838886D01*
Y838881D01*
Y838871D01*
Y838851D01*
X864589Y838827D01*
Y838798D01*
X864584Y838764D01*
X864564Y838686D01*
X864540Y838593D01*
X864501Y838500D01*
X864442Y838403D01*
X864408Y838354D01*
X864369Y838310D01*
X864359Y838300D01*
X864345Y838291D01*
X864330Y838271D01*
X864306Y838257D01*
X864277Y838232D01*
X864242Y838213D01*
X864203Y838188D01*
X864159Y838164D01*
X864106Y838139D01*
X864052Y838115D01*
X863989Y838091D01*
X863925Y838066D01*
X863852Y838047D01*
X863774Y838032D01*
X863691Y838018D01*
X863701Y838013D01*
X863720Y838003D01*
X863750Y837988D01*
X863784Y837969D01*
X863867Y837915D01*
X863911Y837886D01*
X863945Y837857D01*
X863955Y837847D01*
X863979Y837827D01*
X864013Y837788D01*
X864057Y837739D01*
X864111Y837676D01*
X864169Y837603D01*
X864233Y837520D01*
X864296Y837427D01*
X864852Y836559D01*
X864320D01*
X863896Y837223D01*
Y837227D01*
X863886Y837237D01*
X863877Y837252D01*
X863867Y837271D01*
X863833Y837320D01*
X863789Y837383D01*
X863740Y837457D01*
X863686Y837530D01*
X863638Y837598D01*
X863589Y837662D01*
X863584Y837666D01*
X863569Y837686D01*
X863545Y837715D01*
X863521Y837749D01*
X863447Y837818D01*
X863413Y837852D01*
X863374Y837876D01*
X863369Y837881D01*
X863360Y837886D01*
X863340Y837896D01*
X863316Y837910D01*
X863257Y837940D01*
X863184Y837964D01*
X863179D01*
X863169Y837969D01*
X863150D01*
X863126Y837974D01*
X863091Y837979D01*
X863052D01*
X863004Y837983D01*
X862458D01*
Y836559D01*
X862033D01*
Y839763D01*
X863521D01*
X863560Y839759D01*
D02*
G37*
G36*
X903609Y755347D02*
X903648Y755342D01*
X903692Y755337D01*
X903746Y755332D01*
X903800Y755318D01*
X903921Y755288D01*
X904043Y755244D01*
X904107Y755215D01*
X904165Y755181D01*
X904224Y755137D01*
X904277Y755093D01*
X904282Y755088D01*
X904292Y755083D01*
X904302Y755069D01*
X904321Y755049D01*
X904341Y755025D01*
X904365Y754996D01*
X904419Y754922D01*
X904473Y754830D01*
X904516Y754727D01*
X904536Y754669D01*
X904550Y754606D01*
X904555Y754542D01*
X904560Y754474D01*
Y754464D01*
Y754440D01*
X904555Y754401D01*
X904546Y754347D01*
X904536Y754289D01*
X904516Y754225D01*
X904492Y754157D01*
X904458Y754089D01*
X904453Y754079D01*
X904438Y754059D01*
X904414Y754020D01*
X904375Y753972D01*
X904321Y753908D01*
X904258Y753835D01*
X904175Y753752D01*
X904077Y753660D01*
X904068Y753650D01*
X904048Y753630D01*
X904014Y753601D01*
X903975Y753562D01*
X903931Y753523D01*
X903887Y753479D01*
X903853Y753440D01*
X903824Y753406D01*
Y753401D01*
X903814Y753391D01*
X903804Y753377D01*
X903790Y753352D01*
X903775Y753328D01*
X903760Y753294D01*
X903736Y753221D01*
Y753216D01*
X903731Y753201D01*
X903726Y753177D01*
X903721Y753142D01*
X903717Y753094D01*
X903712Y753035D01*
X903707Y752967D01*
Y752884D01*
X903331D01*
Y752889D01*
Y752899D01*
Y752928D01*
X903326Y752967D01*
Y753001D01*
Y753006D01*
Y753011D01*
Y753040D01*
X903331Y753084D01*
X903336Y753138D01*
X903341Y753201D01*
X903356Y753264D01*
X903370Y753333D01*
X903390Y753401D01*
X903395Y753406D01*
X903400Y753425D01*
X903409Y753450D01*
X903429Y753479D01*
X903448Y753518D01*
X903478Y753562D01*
X903507Y753606D01*
X903546Y753655D01*
X903551Y753660D01*
X903560Y753674D01*
X903580Y753694D01*
X903609Y753723D01*
X903648Y753762D01*
X903697Y753811D01*
X903756Y753864D01*
X903829Y753928D01*
X903839Y753937D01*
X903863Y753957D01*
X903897Y753991D01*
X903941Y754030D01*
X903985Y754079D01*
X904029Y754128D01*
X904063Y754172D01*
X904092Y754215D01*
X904097Y754220D01*
X904102Y754235D01*
X904112Y754254D01*
X904126Y754284D01*
X904136Y754318D01*
X904146Y754362D01*
X904151Y754406D01*
X904156Y754449D01*
Y754454D01*
Y754459D01*
X904151Y754489D01*
X904146Y754532D01*
X904131Y754586D01*
X904112Y754649D01*
X904077Y754718D01*
X904034Y754786D01*
X903975Y754854D01*
X903965Y754864D01*
X903941Y754883D01*
X903907Y754908D01*
X903853Y754942D01*
X903790Y754976D01*
X903712Y755001D01*
X903629Y755020D01*
X903536Y755030D01*
X903497D01*
X903448Y755020D01*
X903390Y755010D01*
X903326Y754991D01*
X903253Y754962D01*
X903185Y754922D01*
X903117Y754869D01*
X903112Y754864D01*
X903092Y754840D01*
X903063Y754801D01*
X903029Y754752D01*
X902990Y754684D01*
X902956Y754596D01*
X902926Y754498D01*
X902902Y754381D01*
X902497Y754430D01*
Y754435D01*
X902502Y754449D01*
Y754474D01*
X902512Y754503D01*
X902517Y754542D01*
X902527Y754581D01*
X902556Y754684D01*
X902600Y754791D01*
X902658Y754903D01*
X902727Y755015D01*
X902770Y755064D01*
X902819Y755113D01*
X902824Y755118D01*
X902834Y755123D01*
X902849Y755137D01*
X902868Y755152D01*
X902897Y755166D01*
X902926Y755191D01*
X902965Y755210D01*
X903009Y755235D01*
X903058Y755254D01*
X903112Y755279D01*
X903170Y755298D01*
X903234Y755313D01*
X903375Y755342D01*
X903448Y755347D01*
X903531Y755352D01*
X903575D01*
X903609Y755347D01*
D02*
G37*
G36*
X901951Y753113D02*
Y753108D01*
Y753094D01*
Y753074D01*
Y753045D01*
X901946Y753011D01*
Y752972D01*
X901941Y752884D01*
X901927Y752782D01*
X901912Y752679D01*
X901888Y752577D01*
X901854Y752489D01*
X901849Y752479D01*
X901834Y752455D01*
X901810Y752416D01*
X901780Y752367D01*
X901737Y752309D01*
X901683Y752255D01*
X901615Y752201D01*
X901542Y752152D01*
X901532Y752148D01*
X901503Y752133D01*
X901459Y752118D01*
X901400Y752099D01*
X901327Y752075D01*
X901244Y752060D01*
X901146Y752045D01*
X901044Y752040D01*
X901005D01*
X900976Y752045D01*
X900942Y752050D01*
X900898Y752055D01*
X900805Y752070D01*
X900703Y752099D01*
X900595Y752143D01*
X900542Y752167D01*
X900493Y752201D01*
X900444Y752235D01*
X900400Y752279D01*
Y752284D01*
X900391Y752289D01*
X900381Y752304D01*
X900366Y752323D01*
X900347Y752353D01*
X900332Y752382D01*
X900308Y752421D01*
X900288Y752460D01*
X900269Y752508D01*
X900249Y752562D01*
X900230Y752621D01*
X900215Y752689D01*
X900200Y752757D01*
X900191Y752835D01*
X900186Y752913D01*
Y753001D01*
X900566Y753055D01*
Y753050D01*
Y753040D01*
Y753021D01*
X900571Y752996D01*
Y752967D01*
X900576Y752933D01*
X900591Y752855D01*
X900605Y752767D01*
X900630Y752684D01*
X900664Y752611D01*
X900683Y752577D01*
X900703Y752548D01*
X900708Y752543D01*
X900727Y752528D01*
X900751Y752504D01*
X900790Y752484D01*
X900839Y752460D01*
X900898Y752435D01*
X900966Y752421D01*
X901044Y752416D01*
X901073D01*
X901103Y752421D01*
X901137Y752426D01*
X901181Y752435D01*
X901229Y752445D01*
X901273Y752465D01*
X901317Y752489D01*
X901322Y752494D01*
X901337Y752504D01*
X901356Y752518D01*
X901381Y752543D01*
X901410Y752567D01*
X901434Y752601D01*
X901459Y752640D01*
X901478Y752684D01*
Y752689D01*
X901488Y752709D01*
X901493Y752738D01*
X901503Y752782D01*
X901512Y752840D01*
X901517Y752908D01*
X901527Y752991D01*
Y753089D01*
Y755298D01*
X901951D01*
Y753113D01*
D02*
G37*
G36*
X903707Y752094D02*
X903258D01*
Y752543D01*
X903707D01*
Y752094D01*
D02*
G37*
G36*
X956937Y881273D02*
X956542D01*
Y883779D01*
X956537Y883774D01*
X956517Y883755D01*
X956483Y883730D01*
X956439Y883696D01*
X956385Y883652D01*
X956322Y883609D01*
X956249Y883555D01*
X956166Y883506D01*
X956161D01*
X956156Y883501D01*
X956127Y883482D01*
X956083Y883457D01*
X956030Y883428D01*
X955966Y883394D01*
X955898Y883365D01*
X955825Y883331D01*
X955756Y883301D01*
Y883687D01*
X955761D01*
X955771Y883691D01*
X955790Y883701D01*
X955810Y883716D01*
X955839Y883730D01*
X955873Y883745D01*
X955952Y883789D01*
X956039Y883843D01*
X956137Y883906D01*
X956234Y883979D01*
X956327Y884057D01*
X956332Y884062D01*
X956337Y884067D01*
X956366Y884096D01*
X956410Y884140D01*
X956463Y884194D01*
X956522Y884262D01*
X956581Y884335D01*
X956634Y884413D01*
X956678Y884491D01*
X956937D01*
Y881273D01*
D02*
G37*
G36*
X953918Y884472D02*
X953957D01*
X954054Y884467D01*
X954157Y884457D01*
X954264Y884438D01*
X954367Y884418D01*
X954415Y884404D01*
X954459Y884389D01*
X954464D01*
X954469Y884384D01*
X954498Y884374D01*
X954537Y884350D01*
X954586Y884316D01*
X954644Y884277D01*
X954703Y884223D01*
X954762Y884160D01*
X954815Y884082D01*
X954820Y884072D01*
X954835Y884043D01*
X954859Y883999D01*
X954883Y883940D01*
X954908Y883867D01*
X954932Y883784D01*
X954947Y883696D01*
X954952Y883599D01*
Y883594D01*
Y883584D01*
Y883565D01*
X954947Y883540D01*
Y883511D01*
X954942Y883477D01*
X954922Y883399D01*
X954898Y883306D01*
X954859Y883214D01*
X954800Y883116D01*
X954766Y883067D01*
X954727Y883023D01*
X954718Y883014D01*
X954703Y883004D01*
X954688Y882984D01*
X954664Y882970D01*
X954635Y882945D01*
X954601Y882926D01*
X954562Y882902D01*
X954518Y882877D01*
X954464Y882853D01*
X954410Y882828D01*
X954347Y882804D01*
X954284Y882779D01*
X954210Y882760D01*
X954132Y882745D01*
X954050Y882731D01*
X954059Y882726D01*
X954079Y882716D01*
X954108Y882701D01*
X954142Y882682D01*
X954225Y882628D01*
X954269Y882599D01*
X954303Y882570D01*
X954313Y882560D01*
X954337Y882541D01*
X954371Y882502D01*
X954415Y882453D01*
X954469Y882389D01*
X954527Y882316D01*
X954591Y882233D01*
X954654Y882141D01*
X955210Y881273D01*
X954679D01*
X954254Y881936D01*
Y881941D01*
X954245Y881951D01*
X954235Y881965D01*
X954225Y881985D01*
X954191Y882033D01*
X954147Y882097D01*
X954098Y882170D01*
X954045Y882243D01*
X953996Y882311D01*
X953947Y882375D01*
X953942Y882380D01*
X953928Y882399D01*
X953903Y882428D01*
X953879Y882462D01*
X953806Y882531D01*
X953772Y882565D01*
X953733Y882589D01*
X953728Y882594D01*
X953718Y882599D01*
X953698Y882609D01*
X953674Y882624D01*
X953615Y882653D01*
X953542Y882677D01*
X953537D01*
X953528Y882682D01*
X953508D01*
X953484Y882687D01*
X953450Y882692D01*
X953411D01*
X953362Y882697D01*
X952816D01*
Y881273D01*
X952391D01*
Y884477D01*
X953879D01*
X953918Y884472D01*
D02*
G37*
G36*
X788366Y904433D02*
Y904428D01*
Y904413D01*
Y904394D01*
Y904365D01*
X788362Y904331D01*
Y904292D01*
X788357Y904204D01*
X788342Y904101D01*
X788327Y903999D01*
X788303Y903896D01*
X788269Y903809D01*
X788264Y903799D01*
X788249Y903774D01*
X788225Y903736D01*
X788196Y903687D01*
X788152Y903628D01*
X788098Y903575D01*
X788030Y903521D01*
X787957Y903472D01*
X787947Y903467D01*
X787918Y903453D01*
X787874Y903438D01*
X787815Y903419D01*
X787742Y903394D01*
X787659Y903380D01*
X787562Y903365D01*
X787459Y903360D01*
X787420D01*
X787391Y903365D01*
X787357Y903370D01*
X787313Y903375D01*
X787220Y903389D01*
X787118Y903419D01*
X787011Y903462D01*
X786957Y903487D01*
X786908Y903521D01*
X786859Y903555D01*
X786815Y903599D01*
Y903604D01*
X786806Y903609D01*
X786796Y903623D01*
X786781Y903643D01*
X786762Y903672D01*
X786747Y903701D01*
X786723Y903740D01*
X786703Y903779D01*
X786684Y903828D01*
X786664Y903882D01*
X786645Y903940D01*
X786630Y904009D01*
X786616Y904077D01*
X786606Y904155D01*
X786601Y904233D01*
Y904321D01*
X786981Y904374D01*
Y904370D01*
Y904360D01*
Y904340D01*
X786986Y904316D01*
Y904287D01*
X786991Y904252D01*
X787006Y904174D01*
X787020Y904087D01*
X787045Y904004D01*
X787079Y903931D01*
X787098Y903896D01*
X787118Y903867D01*
X787123Y903862D01*
X787142Y903848D01*
X787167Y903823D01*
X787206Y903804D01*
X787254Y903779D01*
X787313Y903755D01*
X787381Y903740D01*
X787459Y903736D01*
X787488D01*
X787518Y903740D01*
X787552Y903745D01*
X787596Y903755D01*
X787645Y903765D01*
X787689Y903784D01*
X787732Y903809D01*
X787737Y903813D01*
X787752Y903823D01*
X787771Y903838D01*
X787796Y903862D01*
X787825Y903887D01*
X787849Y903921D01*
X787874Y903960D01*
X787893Y904004D01*
Y904009D01*
X787903Y904028D01*
X787908Y904057D01*
X787918Y904101D01*
X787927Y904160D01*
X787932Y904228D01*
X787942Y904311D01*
Y904408D01*
Y906618D01*
X788366D01*
Y904433D01*
D02*
G37*
G36*
X790380Y903414D02*
X789986D01*
Y905920D01*
X789981Y905915D01*
X789961Y905896D01*
X789927Y905872D01*
X789883Y905837D01*
X789829Y905794D01*
X789766Y905750D01*
X789693Y905696D01*
X789610Y905647D01*
X789605D01*
X789600Y905642D01*
X789571Y905623D01*
X789527Y905598D01*
X789473Y905569D01*
X789410Y905535D01*
X789342Y905506D01*
X789269Y905472D01*
X789200Y905442D01*
Y905828D01*
X789205D01*
X789215Y905833D01*
X789234Y905842D01*
X789254Y905857D01*
X789283Y905872D01*
X789317Y905886D01*
X789395Y905930D01*
X789483Y905984D01*
X789581Y906047D01*
X789678Y906120D01*
X789771Y906198D01*
X789776Y906203D01*
X789781Y906208D01*
X789810Y906237D01*
X789854Y906281D01*
X789907Y906335D01*
X789966Y906403D01*
X790024Y906476D01*
X790078Y906554D01*
X790122Y906632D01*
X790380D01*
Y903414D01*
D02*
G37*
G36*
X983211Y880999D02*
X983250Y880994D01*
X983299Y880989D01*
X983353Y880984D01*
X983411Y880974D01*
X983538Y880945D01*
X983674Y880901D01*
X983743Y880872D01*
X983811Y880838D01*
X983875Y880799D01*
X983938Y880755D01*
X983943Y880750D01*
X983952Y880745D01*
X983967Y880731D01*
X983991Y880711D01*
X984016Y880687D01*
X984050Y880652D01*
X984084Y880618D01*
X984118Y880579D01*
X984157Y880531D01*
X984192Y880482D01*
X984230Y880423D01*
X984269Y880360D01*
X984304Y880296D01*
X984338Y880223D01*
X984396Y880067D01*
X983977Y879970D01*
Y879975D01*
X983972Y879984D01*
X983967Y880004D01*
X983957Y880028D01*
X983943Y880058D01*
X983928Y880092D01*
X983894Y880165D01*
X983850Y880248D01*
X983792Y880336D01*
X983728Y880414D01*
X983650Y880482D01*
X983640Y880487D01*
X983611Y880506D01*
X983567Y880531D01*
X983504Y880565D01*
X983431Y880594D01*
X983338Y880618D01*
X983236Y880638D01*
X983119Y880643D01*
X983084D01*
X983060Y880638D01*
X983026D01*
X982992Y880633D01*
X982904Y880618D01*
X982806Y880599D01*
X982704Y880565D01*
X982602Y880521D01*
X982504Y880462D01*
X982499D01*
X982494Y880453D01*
X982465Y880428D01*
X982421Y880389D01*
X982368Y880336D01*
X982314Y880267D01*
X982255Y880189D01*
X982202Y880092D01*
X982158Y879984D01*
Y879979D01*
X982153Y879970D01*
X982148Y879955D01*
X982143Y879931D01*
X982133Y879906D01*
X982129Y879872D01*
X982109Y879794D01*
X982090Y879702D01*
X982075Y879599D01*
X982065Y879487D01*
X982060Y879370D01*
Y879365D01*
Y879350D01*
Y879331D01*
Y879302D01*
X982065Y879268D01*
Y879224D01*
X982070Y879180D01*
X982075Y879131D01*
X982090Y879019D01*
X982109Y878897D01*
X982138Y878775D01*
X982177Y878658D01*
Y878653D01*
X982182Y878643D01*
X982192Y878629D01*
X982202Y878609D01*
X982226Y878551D01*
X982265Y878487D01*
X982319Y878409D01*
X982382Y878336D01*
X982455Y878263D01*
X982543Y878199D01*
X982548D01*
X982553Y878195D01*
X982568Y878185D01*
X982587Y878175D01*
X982641Y878156D01*
X982709Y878126D01*
X982787Y878102D01*
X982880Y878078D01*
X982982Y878058D01*
X983089Y878053D01*
X983123D01*
X983148Y878058D01*
X983177D01*
X983216Y878063D01*
X983299Y878078D01*
X983392Y878102D01*
X983494Y878141D01*
X983592Y878190D01*
X983689Y878258D01*
X983694Y878263D01*
X983699Y878268D01*
X983728Y878297D01*
X983772Y878346D01*
X983826Y878409D01*
X983879Y878497D01*
X983938Y878599D01*
X983987Y878726D01*
X984026Y878868D01*
X984450Y878760D01*
Y878755D01*
X984445Y878736D01*
X984435Y878712D01*
X984426Y878673D01*
X984406Y878633D01*
X984387Y878580D01*
X984367Y878526D01*
X984338Y878468D01*
X984274Y878336D01*
X984187Y878204D01*
X984089Y878078D01*
X984031Y878019D01*
X983967Y877965D01*
X983962Y877961D01*
X983952Y877956D01*
X983933Y877941D01*
X983904Y877922D01*
X983870Y877902D01*
X983831Y877878D01*
X983787Y877853D01*
X983733Y877829D01*
X983674Y877804D01*
X983611Y877780D01*
X983538Y877756D01*
X983465Y877736D01*
X983304Y877702D01*
X983216Y877697D01*
X983123Y877692D01*
X983075D01*
X983036Y877697D01*
X982992D01*
X982943Y877702D01*
X982885Y877712D01*
X982826Y877717D01*
X982689Y877746D01*
X982548Y877780D01*
X982411Y877834D01*
X982343Y877863D01*
X982280Y877902D01*
X982275Y877907D01*
X982265Y877912D01*
X982251Y877926D01*
X982226Y877941D01*
X982168Y877990D01*
X982099Y878058D01*
X982016Y878141D01*
X981938Y878248D01*
X981855Y878370D01*
X981787Y878512D01*
Y878516D01*
X981782Y878531D01*
X981773Y878551D01*
X981763Y878580D01*
X981748Y878619D01*
X981734Y878663D01*
X981719Y878712D01*
X981704Y878770D01*
X981690Y878829D01*
X981675Y878897D01*
X981646Y879043D01*
X981626Y879199D01*
X981621Y879370D01*
Y879375D01*
Y879394D01*
Y879419D01*
X981626Y879453D01*
Y879497D01*
X981631Y879550D01*
X981636Y879604D01*
X981646Y879667D01*
X981670Y879804D01*
X981699Y879950D01*
X981748Y880101D01*
X981812Y880243D01*
Y880248D01*
X981821Y880257D01*
X981831Y880277D01*
X981846Y880306D01*
X981865Y880336D01*
X981890Y880370D01*
X981953Y880453D01*
X982026Y880545D01*
X982119Y880638D01*
X982231Y880731D01*
X982353Y880809D01*
X982358D01*
X982368Y880818D01*
X982387Y880828D01*
X982416Y880838D01*
X982446Y880853D01*
X982485Y880872D01*
X982533Y880887D01*
X982582Y880906D01*
X982636Y880926D01*
X982694Y880940D01*
X982826Y880974D01*
X982972Y880994D01*
X983128Y881004D01*
X983177D01*
X983211Y880999D01*
D02*
G37*
G36*
X985947Y880960D02*
X985986Y880955D01*
X986030Y880950D01*
X986079Y880945D01*
X986132Y880930D01*
X986249Y880901D01*
X986371Y880857D01*
X986435Y880828D01*
X986493Y880794D01*
X986547Y880750D01*
X986601Y880706D01*
X986606Y880701D01*
X986610Y880696D01*
X986625Y880682D01*
X986645Y880662D01*
X986664Y880633D01*
X986688Y880604D01*
X986737Y880531D01*
X986786Y880438D01*
X986830Y880331D01*
X986864Y880209D01*
X986869Y880141D01*
X986874Y880072D01*
Y880062D01*
Y880038D01*
X986869Y879999D01*
X986864Y879950D01*
X986854Y879892D01*
X986840Y879828D01*
X986820Y879760D01*
X986791Y879692D01*
X986786Y879682D01*
X986776Y879658D01*
X986757Y879623D01*
X986727Y879575D01*
X986693Y879516D01*
X986649Y879448D01*
X986591Y879380D01*
X986527Y879302D01*
X986518Y879292D01*
X986493Y879263D01*
X986449Y879219D01*
X986420Y879190D01*
X986386Y879155D01*
X986347Y879116D01*
X986298Y879072D01*
X986249Y879029D01*
X986196Y878975D01*
X986137Y878921D01*
X986069Y878863D01*
X986001Y878804D01*
X985923Y878736D01*
X985918Y878731D01*
X985908Y878721D01*
X985889Y878707D01*
X985864Y878687D01*
X985806Y878638D01*
X985732Y878575D01*
X985659Y878507D01*
X985581Y878438D01*
X985518Y878380D01*
X985494Y878356D01*
X985469Y878331D01*
X985464Y878326D01*
X985455Y878312D01*
X985435Y878292D01*
X985411Y878263D01*
X985357Y878199D01*
X985303Y878121D01*
X986879D01*
Y877746D01*
X984757D01*
Y877751D01*
Y877770D01*
Y877800D01*
X984762Y877834D01*
X984767Y877873D01*
X984772Y877917D01*
X984786Y877965D01*
X984801Y878014D01*
Y878019D01*
X984806Y878024D01*
X984816Y878053D01*
X984835Y878092D01*
X984865Y878151D01*
X984899Y878214D01*
X984947Y878287D01*
X984996Y878360D01*
X985060Y878438D01*
Y878443D01*
X985069Y878448D01*
X985094Y878477D01*
X985133Y878521D01*
X985191Y878580D01*
X985264Y878648D01*
X985352Y878731D01*
X985459Y878824D01*
X985576Y878926D01*
X985581Y878931D01*
X985601Y878946D01*
X985625Y878965D01*
X985659Y878999D01*
X985703Y879033D01*
X985752Y879077D01*
X985859Y879170D01*
X985976Y879282D01*
X986093Y879394D01*
X986152Y879448D01*
X986201Y879502D01*
X986245Y879555D01*
X986284Y879604D01*
Y879609D01*
X986293Y879614D01*
X986303Y879628D01*
X986313Y879648D01*
X986342Y879697D01*
X986376Y879760D01*
X986410Y879833D01*
X986440Y879911D01*
X986459Y879999D01*
X986469Y880082D01*
Y880087D01*
Y880092D01*
X986464Y880121D01*
X986459Y880165D01*
X986449Y880219D01*
X986425Y880282D01*
X986396Y880345D01*
X986357Y880414D01*
X986298Y880477D01*
X986289Y880482D01*
X986269Y880501D01*
X986230Y880526D01*
X986181Y880560D01*
X986118Y880589D01*
X986045Y880613D01*
X985957Y880633D01*
X985859Y880638D01*
X985830D01*
X985811Y880633D01*
X985762Y880628D01*
X985698Y880618D01*
X985625Y880594D01*
X985547Y880565D01*
X985474Y880521D01*
X985406Y880462D01*
X985401Y880453D01*
X985381Y880433D01*
X985352Y880394D01*
X985323Y880340D01*
X985289Y880272D01*
X985264Y880194D01*
X985245Y880101D01*
X985235Y879994D01*
X984830Y880038D01*
Y880043D01*
Y880058D01*
X984835Y880082D01*
X984840Y880111D01*
X984850Y880150D01*
X984855Y880194D01*
X984884Y880292D01*
X984923Y880404D01*
X984977Y880516D01*
X985050Y880628D01*
X985089Y880677D01*
X985138Y880726D01*
X985143Y880731D01*
X985152Y880735D01*
X985167Y880750D01*
X985186Y880765D01*
X985216Y880779D01*
X985250Y880804D01*
X985289Y880823D01*
X985333Y880848D01*
X985381Y880867D01*
X985435Y880891D01*
X985499Y880911D01*
X985562Y880926D01*
X985708Y880955D01*
X985786Y880960D01*
X985869Y880965D01*
X985913D01*
X985947Y880960D01*
D02*
G37*
G36*
X925785Y881380D02*
X925824Y881376D01*
X925873Y881371D01*
X925927Y881366D01*
X925985Y881356D01*
X926112Y881327D01*
X926248Y881283D01*
X926317Y881254D01*
X926385Y881219D01*
X926448Y881180D01*
X926512Y881137D01*
X926517Y881132D01*
X926526Y881127D01*
X926541Y881112D01*
X926565Y881093D01*
X926590Y881068D01*
X926624Y881034D01*
X926658Y881000D01*
X926692Y880961D01*
X926731Y880912D01*
X926765Y880863D01*
X926804Y880805D01*
X926843Y880742D01*
X926878Y880678D01*
X926912Y880605D01*
X926970Y880449D01*
X926551Y880351D01*
Y880356D01*
X926546Y880366D01*
X926541Y880386D01*
X926531Y880410D01*
X926517Y880439D01*
X926502Y880473D01*
X926468Y880546D01*
X926424Y880629D01*
X926366Y880717D01*
X926302Y880795D01*
X926224Y880863D01*
X926214Y880868D01*
X926185Y880888D01*
X926141Y880912D01*
X926078Y880946D01*
X926005Y880976D01*
X925912Y881000D01*
X925810Y881020D01*
X925693Y881024D01*
X925658D01*
X925634Y881020D01*
X925600D01*
X925566Y881015D01*
X925478Y881000D01*
X925380Y880981D01*
X925278Y880946D01*
X925176Y880902D01*
X925078Y880844D01*
X925073D01*
X925068Y880834D01*
X925039Y880810D01*
X924995Y880771D01*
X924941Y880717D01*
X924888Y880649D01*
X924829Y880571D01*
X924776Y880473D01*
X924732Y880366D01*
Y880361D01*
X924727Y880351D01*
X924722Y880337D01*
X924717Y880312D01*
X924707Y880288D01*
X924703Y880254D01*
X924683Y880176D01*
X924663Y880083D01*
X924649Y879981D01*
X924639Y879869D01*
X924634Y879752D01*
Y879747D01*
Y879732D01*
Y879713D01*
Y879683D01*
X924639Y879649D01*
Y879605D01*
X924644Y879561D01*
X924649Y879513D01*
X924663Y879400D01*
X924683Y879278D01*
X924712Y879157D01*
X924751Y879040D01*
Y879035D01*
X924756Y879025D01*
X924766Y879010D01*
X924776Y878991D01*
X924800Y878932D01*
X924839Y878869D01*
X924893Y878791D01*
X924956Y878718D01*
X925029Y878644D01*
X925117Y878581D01*
X925122D01*
X925127Y878576D01*
X925142Y878567D01*
X925161Y878557D01*
X925215Y878537D01*
X925283Y878508D01*
X925361Y878484D01*
X925454Y878459D01*
X925556Y878440D01*
X925663Y878435D01*
X925697D01*
X925722Y878440D01*
X925751D01*
X925790Y878445D01*
X925873Y878459D01*
X925966Y878484D01*
X926068Y878523D01*
X926166Y878571D01*
X926263Y878640D01*
X926268Y878644D01*
X926273Y878649D01*
X926302Y878679D01*
X926346Y878727D01*
X926400Y878791D01*
X926453Y878879D01*
X926512Y878981D01*
X926561Y879108D01*
X926600Y879249D01*
X927024Y879142D01*
Y879137D01*
X927019Y879118D01*
X927009Y879093D01*
X927000Y879054D01*
X926980Y879015D01*
X926961Y878961D01*
X926941Y878908D01*
X926912Y878849D01*
X926848Y878718D01*
X926761Y878586D01*
X926663Y878459D01*
X926605Y878401D01*
X926541Y878347D01*
X926536Y878342D01*
X926526Y878337D01*
X926507Y878323D01*
X926478Y878303D01*
X926444Y878284D01*
X926404Y878259D01*
X926361Y878235D01*
X926307Y878211D01*
X926248Y878186D01*
X926185Y878162D01*
X926112Y878137D01*
X926039Y878118D01*
X925878Y878084D01*
X925790Y878079D01*
X925697Y878074D01*
X925649D01*
X925610Y878079D01*
X925566D01*
X925517Y878084D01*
X925458Y878093D01*
X925400Y878098D01*
X925263Y878128D01*
X925122Y878162D01*
X924985Y878215D01*
X924917Y878245D01*
X924854Y878284D01*
X924849Y878288D01*
X924839Y878293D01*
X924825Y878308D01*
X924800Y878323D01*
X924742Y878371D01*
X924673Y878440D01*
X924590Y878523D01*
X924512Y878630D01*
X924429Y878752D01*
X924361Y878893D01*
Y878898D01*
X924356Y878913D01*
X924346Y878932D01*
X924337Y878961D01*
X924322Y879000D01*
X924307Y879044D01*
X924293Y879093D01*
X924278Y879152D01*
X924264Y879210D01*
X924249Y879278D01*
X924220Y879425D01*
X924200Y879581D01*
X924195Y879752D01*
Y879756D01*
Y879776D01*
Y879800D01*
X924200Y879835D01*
Y879878D01*
X924205Y879932D01*
X924210Y879986D01*
X924220Y880049D01*
X924244Y880186D01*
X924273Y880332D01*
X924322Y880483D01*
X924386Y880624D01*
Y880629D01*
X924395Y880639D01*
X924405Y880659D01*
X924420Y880688D01*
X924439Y880717D01*
X924464Y880751D01*
X924527Y880834D01*
X924600Y880927D01*
X924693Y881020D01*
X924805Y881112D01*
X924927Y881190D01*
X924932D01*
X924941Y881200D01*
X924961Y881210D01*
X924990Y881219D01*
X925020Y881234D01*
X925059Y881254D01*
X925107Y881268D01*
X925156Y881288D01*
X925210Y881307D01*
X925268Y881322D01*
X925400Y881356D01*
X925546Y881376D01*
X925702Y881385D01*
X925751D01*
X925785Y881380D01*
D02*
G37*
G36*
X928867Y878128D02*
X928472D01*
Y880634D01*
X928467Y880629D01*
X928448Y880610D01*
X928414Y880585D01*
X928370Y880551D01*
X928316Y880508D01*
X928253Y880464D01*
X928180Y880410D01*
X928097Y880361D01*
X928092D01*
X928087Y880356D01*
X928058Y880337D01*
X928014Y880312D01*
X927960Y880283D01*
X927897Y880249D01*
X927829Y880220D01*
X927755Y880186D01*
X927687Y880156D01*
Y880542D01*
X927692D01*
X927702Y880546D01*
X927721Y880556D01*
X927741Y880571D01*
X927770Y880585D01*
X927804Y880600D01*
X927882Y880644D01*
X927970Y880698D01*
X928067Y880761D01*
X928165Y880834D01*
X928258Y880912D01*
X928263Y880917D01*
X928268Y880922D01*
X928297Y880951D01*
X928341Y880995D01*
X928394Y881049D01*
X928453Y881117D01*
X928511Y881190D01*
X928565Y881268D01*
X928609Y881346D01*
X928867D01*
Y878128D01*
D02*
G37*
%LPC*%
G36*
X1115728Y839577D02*
Y839572D01*
X1115723Y839563D01*
Y839548D01*
X1115718Y839523D01*
X1115708Y839494D01*
X1115699Y839460D01*
X1115679Y839382D01*
X1115655Y839285D01*
X1115625Y839182D01*
X1115591Y839070D01*
X1115552Y838958D01*
X1115201Y838021D01*
X1116289D01*
X1115957Y838904D01*
Y838909D01*
X1115952Y838924D01*
X1115942Y838943D01*
X1115933Y838972D01*
X1115918Y839007D01*
X1115903Y839046D01*
X1115874Y839138D01*
X1115835Y839246D01*
X1115796Y839358D01*
X1115762Y839470D01*
X1115728Y839577D01*
D02*
G37*
G36*
X1109861Y839553D02*
X1108851D01*
Y838494D01*
X1109807D01*
X1109861Y838499D01*
X1109924Y838504D01*
X1109998Y838509D01*
X1110076Y838519D01*
X1110149Y838534D01*
X1110212Y838553D01*
X1110222Y838558D01*
X1110241Y838563D01*
X1110271Y838577D01*
X1110305Y838597D01*
X1110344Y838626D01*
X1110388Y838660D01*
X1110427Y838699D01*
X1110461Y838743D01*
X1110466Y838748D01*
X1110475Y838768D01*
X1110490Y838792D01*
X1110505Y838831D01*
X1110519Y838870D01*
X1110534Y838919D01*
X1110544Y838972D01*
X1110549Y839031D01*
Y839036D01*
Y839041D01*
Y839070D01*
X1110539Y839109D01*
X1110529Y839163D01*
X1110510Y839221D01*
X1110480Y839285D01*
X1110436Y839348D01*
X1110383Y839407D01*
X1110373Y839411D01*
X1110354Y839431D01*
X1110310Y839455D01*
X1110256Y839480D01*
X1110183Y839509D01*
X1110095Y839528D01*
X1109988Y839548D01*
X1109861Y839553D01*
D02*
G37*
G36*
X1115728Y814177D02*
Y814172D01*
X1115723Y814163D01*
Y814148D01*
X1115718Y814124D01*
X1115708Y814094D01*
X1115699Y814060D01*
X1115679Y813982D01*
X1115655Y813885D01*
X1115625Y813782D01*
X1115591Y813670D01*
X1115552Y813558D01*
X1115201Y812622D01*
X1116289D01*
X1115957Y813504D01*
Y813509D01*
X1115952Y813524D01*
X1115942Y813543D01*
X1115933Y813572D01*
X1115918Y813607D01*
X1115903Y813646D01*
X1115874Y813738D01*
X1115835Y813846D01*
X1115796Y813958D01*
X1115762Y814070D01*
X1115728Y814177D01*
D02*
G37*
G36*
X1109861Y814153D02*
X1108851D01*
Y813094D01*
X1109807D01*
X1109861Y813099D01*
X1109924Y813104D01*
X1109998Y813109D01*
X1110076Y813119D01*
X1110149Y813134D01*
X1110212Y813153D01*
X1110222Y813158D01*
X1110241Y813163D01*
X1110271Y813177D01*
X1110305Y813197D01*
X1110344Y813226D01*
X1110388Y813260D01*
X1110427Y813299D01*
X1110461Y813343D01*
X1110466Y813348D01*
X1110475Y813368D01*
X1110490Y813392D01*
X1110505Y813431D01*
X1110519Y813470D01*
X1110534Y813519D01*
X1110544Y813572D01*
X1110549Y813631D01*
Y813636D01*
Y813641D01*
Y813670D01*
X1110539Y813709D01*
X1110529Y813763D01*
X1110510Y813821D01*
X1110480Y813885D01*
X1110436Y813948D01*
X1110383Y814007D01*
X1110373Y814011D01*
X1110354Y814031D01*
X1110310Y814055D01*
X1110256Y814080D01*
X1110183Y814109D01*
X1110095Y814128D01*
X1109988Y814148D01*
X1109861Y814153D01*
D02*
G37*
G36*
X1115728Y788777D02*
Y788772D01*
X1115723Y788763D01*
Y788748D01*
X1115718Y788724D01*
X1115708Y788694D01*
X1115699Y788660D01*
X1115679Y788582D01*
X1115655Y788485D01*
X1115625Y788382D01*
X1115591Y788270D01*
X1115552Y788158D01*
X1115201Y787222D01*
X1116289D01*
X1115957Y788104D01*
Y788109D01*
X1115952Y788124D01*
X1115942Y788143D01*
X1115933Y788173D01*
X1115918Y788207D01*
X1115903Y788246D01*
X1115874Y788338D01*
X1115835Y788446D01*
X1115796Y788558D01*
X1115762Y788670D01*
X1115728Y788777D01*
D02*
G37*
G36*
X1109861Y788753D02*
X1108851D01*
Y787694D01*
X1109807D01*
X1109861Y787699D01*
X1109924Y787704D01*
X1109998Y787709D01*
X1110076Y787719D01*
X1110149Y787734D01*
X1110212Y787753D01*
X1110222Y787758D01*
X1110241Y787763D01*
X1110271Y787777D01*
X1110305Y787797D01*
X1110344Y787826D01*
X1110388Y787860D01*
X1110427Y787899D01*
X1110461Y787943D01*
X1110466Y787948D01*
X1110475Y787968D01*
X1110490Y787992D01*
X1110505Y788031D01*
X1110519Y788070D01*
X1110534Y788119D01*
X1110544Y788173D01*
X1110549Y788231D01*
Y788236D01*
Y788241D01*
Y788270D01*
X1110539Y788309D01*
X1110529Y788363D01*
X1110510Y788421D01*
X1110480Y788485D01*
X1110436Y788548D01*
X1110383Y788606D01*
X1110373Y788611D01*
X1110354Y788631D01*
X1110310Y788655D01*
X1110256Y788680D01*
X1110183Y788709D01*
X1110095Y788728D01*
X1109988Y788748D01*
X1109861Y788753D01*
D02*
G37*
G36*
X1118717Y764335D02*
X1117713Y762901D01*
X1118717D01*
Y764335D01*
D02*
G37*
G36*
X1115728Y764647D02*
Y764642D01*
X1115723Y764633D01*
Y764618D01*
X1115718Y764594D01*
X1115708Y764564D01*
X1115699Y764530D01*
X1115679Y764452D01*
X1115655Y764355D01*
X1115625Y764252D01*
X1115591Y764140D01*
X1115552Y764028D01*
X1115201Y763092D01*
X1116289D01*
X1115957Y763974D01*
Y763979D01*
X1115952Y763994D01*
X1115942Y764013D01*
X1115933Y764043D01*
X1115918Y764077D01*
X1115903Y764116D01*
X1115874Y764208D01*
X1115835Y764316D01*
X1115796Y764428D01*
X1115762Y764540D01*
X1115728Y764647D01*
D02*
G37*
G36*
X1109861Y764623D02*
X1108851D01*
Y763565D01*
X1109807D01*
X1109861Y763569D01*
X1109924Y763574D01*
X1109998Y763579D01*
X1110076Y763589D01*
X1110149Y763604D01*
X1110212Y763623D01*
X1110222Y763628D01*
X1110241Y763633D01*
X1110271Y763647D01*
X1110305Y763667D01*
X1110344Y763696D01*
X1110388Y763730D01*
X1110427Y763769D01*
X1110461Y763813D01*
X1110466Y763818D01*
X1110475Y763838D01*
X1110490Y763862D01*
X1110505Y763901D01*
X1110519Y763940D01*
X1110534Y763989D01*
X1110544Y764043D01*
X1110549Y764101D01*
Y764106D01*
Y764111D01*
Y764140D01*
X1110539Y764179D01*
X1110529Y764233D01*
X1110510Y764291D01*
X1110480Y764355D01*
X1110436Y764418D01*
X1110383Y764476D01*
X1110373Y764481D01*
X1110354Y764501D01*
X1110310Y764525D01*
X1110256Y764550D01*
X1110183Y764579D01*
X1110095Y764598D01*
X1109988Y764618D01*
X1109861Y764623D01*
D02*
G37*
G36*
X1115728Y737977D02*
Y737972D01*
X1115723Y737963D01*
Y737948D01*
X1115718Y737924D01*
X1115708Y737894D01*
X1115699Y737860D01*
X1115679Y737782D01*
X1115655Y737685D01*
X1115625Y737582D01*
X1115591Y737470D01*
X1115552Y737358D01*
X1115201Y736422D01*
X1116289D01*
X1115957Y737304D01*
Y737309D01*
X1115952Y737324D01*
X1115942Y737343D01*
X1115933Y737373D01*
X1115918Y737407D01*
X1115903Y737446D01*
X1115874Y737538D01*
X1115835Y737646D01*
X1115796Y737758D01*
X1115762Y737870D01*
X1115728Y737977D01*
D02*
G37*
G36*
X1109861Y737953D02*
X1108851D01*
Y736895D01*
X1109807D01*
X1109861Y736899D01*
X1109924Y736904D01*
X1109998Y736909D01*
X1110076Y736919D01*
X1110149Y736934D01*
X1110212Y736953D01*
X1110222Y736958D01*
X1110241Y736963D01*
X1110271Y736977D01*
X1110305Y736997D01*
X1110344Y737026D01*
X1110388Y737060D01*
X1110427Y737099D01*
X1110461Y737143D01*
X1110466Y737148D01*
X1110475Y737168D01*
X1110490Y737192D01*
X1110505Y737231D01*
X1110519Y737270D01*
X1110534Y737319D01*
X1110544Y737373D01*
X1110549Y737431D01*
Y737436D01*
Y737441D01*
Y737470D01*
X1110539Y737509D01*
X1110529Y737563D01*
X1110510Y737621D01*
X1110480Y737685D01*
X1110436Y737748D01*
X1110383Y737806D01*
X1110373Y737811D01*
X1110354Y737831D01*
X1110310Y737855D01*
X1110256Y737880D01*
X1110183Y737909D01*
X1110095Y737928D01*
X1109988Y737948D01*
X1109861Y737953D01*
D02*
G37*
G36*
X1054768Y737977D02*
Y737972D01*
X1054763Y737963D01*
Y737948D01*
X1054758Y737924D01*
X1054748Y737894D01*
X1054739Y737860D01*
X1054719Y737782D01*
X1054695Y737685D01*
X1054665Y737582D01*
X1054631Y737470D01*
X1054592Y737358D01*
X1054241Y736422D01*
X1055329D01*
X1054997Y737304D01*
Y737309D01*
X1054992Y737324D01*
X1054982Y737343D01*
X1054973Y737373D01*
X1054958Y737407D01*
X1054943Y737446D01*
X1054914Y737538D01*
X1054875Y737646D01*
X1054836Y737758D01*
X1054802Y737870D01*
X1054768Y737977D01*
D02*
G37*
G36*
X1052027Y737933D02*
X1051115D01*
Y736787D01*
X1051978D01*
X1052008Y736792D01*
X1052042D01*
X1052076Y736797D01*
X1052164Y736807D01*
X1052261Y736826D01*
X1052359Y736851D01*
X1052447Y736890D01*
X1052486Y736914D01*
X1052520Y736938D01*
X1052529Y736943D01*
X1052549Y736968D01*
X1052573Y737002D01*
X1052607Y737051D01*
X1052642Y737109D01*
X1052666Y737182D01*
X1052685Y737270D01*
X1052695Y737368D01*
Y737377D01*
Y737402D01*
X1052690Y737441D01*
X1052681Y737489D01*
X1052671Y737543D01*
X1052651Y737602D01*
X1052627Y737660D01*
X1052593Y737714D01*
X1052588Y737719D01*
X1052573Y737738D01*
X1052554Y737763D01*
X1052520Y737792D01*
X1052481Y737821D01*
X1052437Y737855D01*
X1052383Y737880D01*
X1052325Y737904D01*
X1052320D01*
X1052305Y737909D01*
X1052276Y737914D01*
X1052237Y737919D01*
X1052183Y737924D01*
X1052115Y737928D01*
X1052027Y737933D01*
D02*
G37*
G36*
X1048901Y737953D02*
X1047891D01*
Y736895D01*
X1048847D01*
X1048901Y736899D01*
X1048964Y736904D01*
X1049038Y736909D01*
X1049116Y736919D01*
X1049189Y736934D01*
X1049252Y736953D01*
X1049262Y736958D01*
X1049281Y736963D01*
X1049311Y736977D01*
X1049345Y736997D01*
X1049384Y737026D01*
X1049428Y737060D01*
X1049467Y737099D01*
X1049501Y737143D01*
X1049506Y737148D01*
X1049516Y737168D01*
X1049530Y737192D01*
X1049545Y737231D01*
X1049559Y737270D01*
X1049574Y737319D01*
X1049584Y737373D01*
X1049589Y737431D01*
Y737436D01*
Y737441D01*
Y737470D01*
X1049579Y737509D01*
X1049569Y737563D01*
X1049550Y737621D01*
X1049520Y737685D01*
X1049476Y737748D01*
X1049423Y737806D01*
X1049413Y737811D01*
X1049394Y737831D01*
X1049350Y737855D01*
X1049296Y737880D01*
X1049223Y737909D01*
X1049135Y737928D01*
X1049028Y737948D01*
X1048901Y737953D01*
D02*
G37*
G36*
X1053491Y763431D02*
Y763426D01*
X1053486Y763416D01*
Y763402D01*
X1053482Y763377D01*
X1053472Y763348D01*
X1053462Y763314D01*
X1053443Y763236D01*
X1053418Y763138D01*
X1053389Y763036D01*
X1053355Y762924D01*
X1053316Y762812D01*
X1052965Y761875D01*
X1054052D01*
X1053720Y762758D01*
Y762763D01*
X1053716Y762777D01*
X1053706Y762797D01*
X1053696Y762826D01*
X1053681Y762860D01*
X1053667Y762899D01*
X1053638Y762992D01*
X1053599Y763099D01*
X1053560Y763211D01*
X1053525Y763324D01*
X1053491Y763431D01*
D02*
G37*
G36*
Y788777D02*
Y788772D01*
X1053486Y788763D01*
Y788748D01*
X1053482Y788724D01*
X1053472Y788694D01*
X1053462Y788660D01*
X1053443Y788582D01*
X1053418Y788485D01*
X1053389Y788382D01*
X1053355Y788270D01*
X1053316Y788158D01*
X1052965Y787222D01*
X1054052D01*
X1053720Y788104D01*
Y788109D01*
X1053716Y788124D01*
X1053706Y788143D01*
X1053696Y788173D01*
X1053681Y788207D01*
X1053667Y788246D01*
X1053638Y788338D01*
X1053599Y788446D01*
X1053560Y788558D01*
X1053525Y788670D01*
X1053491Y788777D01*
D02*
G37*
G36*
X1054557Y814187D02*
X1053889D01*
Y811734D01*
X1054621D01*
X1054674Y811739D01*
X1054747Y811744D01*
X1054826Y811749D01*
X1054908Y811758D01*
X1054986Y811773D01*
X1055060Y811792D01*
X1055069Y811797D01*
X1055089Y811802D01*
X1055123Y811817D01*
X1055162Y811836D01*
X1055211Y811861D01*
X1055260Y811885D01*
X1055303Y811919D01*
X1055347Y811958D01*
X1055352Y811963D01*
X1055372Y811988D01*
X1055401Y812022D01*
X1055435Y812066D01*
X1055469Y812124D01*
X1055508Y812192D01*
X1055547Y812275D01*
X1055581Y812363D01*
Y812368D01*
X1055586Y812373D01*
X1055591Y812387D01*
X1055596Y812407D01*
X1055601Y812431D01*
X1055611Y812461D01*
X1055625Y812534D01*
X1055640Y812626D01*
X1055655Y812734D01*
X1055664Y812851D01*
X1055669Y812982D01*
Y812987D01*
Y813007D01*
Y813031D01*
Y813065D01*
X1055664Y813109D01*
X1055659Y813158D01*
X1055655Y813212D01*
X1055650Y813265D01*
X1055630Y813392D01*
X1055601Y813519D01*
X1055557Y813641D01*
X1055533Y813699D01*
X1055503Y813753D01*
Y813758D01*
X1055494Y813763D01*
X1055489Y813777D01*
X1055474Y813797D01*
X1055440Y813846D01*
X1055391Y813899D01*
X1055333Y813963D01*
X1055264Y814021D01*
X1055186Y814075D01*
X1055104Y814119D01*
X1055094Y814124D01*
X1055069Y814128D01*
X1055030Y814138D01*
X1054972Y814153D01*
X1054894Y814167D01*
X1054801Y814177D01*
X1054689Y814182D01*
X1054557Y814187D01*
D02*
G37*
G36*
X805164Y815056D02*
X804496D01*
Y812603D01*
X805228D01*
X805282Y812608D01*
X805355Y812613D01*
X805433Y812618D01*
X805516Y812627D01*
X805594Y812642D01*
X805667Y812662D01*
X805677Y812666D01*
X805696Y812671D01*
X805730Y812686D01*
X805769Y812706D01*
X805818Y812730D01*
X805867Y812754D01*
X805911Y812788D01*
X805955Y812828D01*
X805959Y812832D01*
X805979Y812857D01*
X806008Y812891D01*
X806042Y812935D01*
X806077Y812993D01*
X806115Y813062D01*
X806154Y813145D01*
X806189Y813232D01*
Y813237D01*
X806193Y813242D01*
X806198Y813257D01*
X806203Y813276D01*
X806208Y813300D01*
X806218Y813330D01*
X806233Y813403D01*
X806247Y813496D01*
X806262Y813603D01*
X806272Y813720D01*
X806276Y813852D01*
Y813857D01*
Y813876D01*
Y813900D01*
Y813934D01*
X806272Y813978D01*
X806267Y814027D01*
X806262Y814081D01*
X806257Y814135D01*
X806237Y814261D01*
X806208Y814388D01*
X806164Y814510D01*
X806140Y814568D01*
X806111Y814622D01*
Y814627D01*
X806101Y814632D01*
X806096Y814647D01*
X806081Y814666D01*
X806047Y814715D01*
X805998Y814768D01*
X805940Y814832D01*
X805872Y814890D01*
X805794Y814944D01*
X805711Y814988D01*
X805701Y814993D01*
X805677Y814998D01*
X805638Y815007D01*
X805579Y815022D01*
X805501Y815037D01*
X805408Y815046D01*
X805296Y815051D01*
X805164Y815056D01*
D02*
G37*
G36*
X802829Y789700D02*
Y789695D01*
X802824Y789685D01*
Y789671D01*
X802819Y789646D01*
X802809Y789617D01*
X802799Y789583D01*
X802780Y789505D01*
X802755Y789408D01*
X802726Y789305D01*
X802692Y789193D01*
X802653Y789081D01*
X802302Y788144D01*
X803389D01*
X803058Y789027D01*
Y789032D01*
X803053Y789047D01*
X803043Y789066D01*
X803033Y789095D01*
X803019Y789129D01*
X803004Y789168D01*
X802975Y789261D01*
X802936Y789368D01*
X802897Y789481D01*
X802863Y789593D01*
X802829Y789700D01*
D02*
G37*
G36*
X803904Y738856D02*
X802992D01*
Y737710D01*
X803856D01*
X803885Y737715D01*
X803919D01*
X803953Y737720D01*
X804041Y737730D01*
X804138Y737749D01*
X804236Y737774D01*
X804324Y737812D01*
X804363Y737837D01*
X804397Y737861D01*
X804407Y737866D01*
X804426Y737891D01*
X804451Y737925D01*
X804485Y737973D01*
X804519Y738032D01*
X804543Y738105D01*
X804563Y738193D01*
X804572Y738290D01*
Y738300D01*
Y738325D01*
X804567Y738364D01*
X804558Y738412D01*
X804548Y738466D01*
X804529Y738525D01*
X804504Y738583D01*
X804470Y738637D01*
X804465Y738642D01*
X804451Y738661D01*
X804431Y738686D01*
X804397Y738715D01*
X804358Y738744D01*
X804314Y738778D01*
X804260Y738802D01*
X804202Y738827D01*
X804197D01*
X804182Y738832D01*
X804153Y738837D01*
X804114Y738841D01*
X804060Y738846D01*
X803992Y738851D01*
X803904Y738856D01*
D02*
G37*
G36*
X800778Y738876D02*
X799769D01*
Y737817D01*
X800725D01*
X800778Y737822D01*
X800842Y737827D01*
X800915Y737832D01*
X800993Y737842D01*
X801066Y737856D01*
X801129Y737876D01*
X801139Y737881D01*
X801159Y737886D01*
X801188Y737900D01*
X801222Y737920D01*
X801261Y737949D01*
X801305Y737983D01*
X801344Y738022D01*
X801378Y738066D01*
X801383Y738071D01*
X801393Y738091D01*
X801407Y738115D01*
X801422Y738154D01*
X801437Y738193D01*
X801451Y738242D01*
X801461Y738295D01*
X801466Y738354D01*
Y738359D01*
Y738364D01*
Y738393D01*
X801456Y738432D01*
X801446Y738485D01*
X801427Y738544D01*
X801398Y738607D01*
X801354Y738671D01*
X801300Y738729D01*
X801290Y738734D01*
X801271Y738754D01*
X801227Y738778D01*
X801173Y738802D01*
X801100Y738832D01*
X801012Y738851D01*
X800905Y738871D01*
X800778Y738876D01*
D02*
G37*
G36*
X801559Y764300D02*
Y764295D01*
X801554Y764285D01*
Y764271D01*
X801549Y764246D01*
X801539Y764217D01*
X801529Y764183D01*
X801510Y764105D01*
X801485Y764007D01*
X801456Y763905D01*
X801422Y763793D01*
X801383Y763681D01*
X801032Y762744D01*
X802119D01*
X801788Y763627D01*
Y763632D01*
X801783Y763647D01*
X801773Y763666D01*
X801763Y763695D01*
X801749Y763729D01*
X801734Y763768D01*
X801705Y763861D01*
X801666Y763968D01*
X801627Y764081D01*
X801593Y764193D01*
X801559Y764300D01*
D02*
G37*
G36*
X864278Y737606D02*
X863269D01*
Y736547D01*
X864225D01*
X864278Y736552D01*
X864342Y736557D01*
X864415Y736562D01*
X864493Y736572D01*
X864566Y736586D01*
X864629Y736606D01*
X864639Y736611D01*
X864659Y736616D01*
X864688Y736630D01*
X864722Y736650D01*
X864761Y736679D01*
X864805Y736713D01*
X864844Y736752D01*
X864878Y736796D01*
X864883Y736801D01*
X864893Y736821D01*
X864907Y736845D01*
X864922Y736884D01*
X864937Y736923D01*
X864951Y736972D01*
X864961Y737025D01*
X864966Y737084D01*
Y737089D01*
Y737094D01*
Y737123D01*
X864956Y737162D01*
X864946Y737215D01*
X864927Y737274D01*
X864898Y737337D01*
X864854Y737401D01*
X864800Y737459D01*
X864790Y737464D01*
X864771Y737484D01*
X864727Y737508D01*
X864673Y737533D01*
X864600Y737562D01*
X864512Y737581D01*
X864405Y737601D01*
X864278Y737606D01*
D02*
G37*
G36*
X864249Y789024D02*
X863239D01*
Y787966D01*
X864195D01*
X864249Y787971D01*
X864312Y787976D01*
X864385Y787981D01*
X864463Y787990D01*
X864536Y788005D01*
X864600Y788025D01*
X864609Y788029D01*
X864629Y788034D01*
X864658Y788049D01*
X864692Y788068D01*
X864731Y788098D01*
X864775Y788132D01*
X864814Y788171D01*
X864848Y788215D01*
X864853Y788220D01*
X864863Y788239D01*
X864878Y788263D01*
X864892Y788303D01*
X864907Y788342D01*
X864921Y788390D01*
X864931Y788444D01*
X864936Y788503D01*
Y788507D01*
Y788512D01*
Y788541D01*
X864926Y788580D01*
X864917Y788634D01*
X864897Y788693D01*
X864868Y788756D01*
X864824Y788820D01*
X864770Y788878D01*
X864761Y788883D01*
X864741Y788902D01*
X864697Y788927D01*
X864643Y788951D01*
X864570Y788980D01*
X864482Y789000D01*
X864375Y789019D01*
X864249Y789024D01*
D02*
G37*
G36*
X869495Y763572D02*
X868490Y762138D01*
X869495D01*
Y763572D01*
D02*
G37*
G36*
X863623Y763859D02*
X862614D01*
Y762801D01*
X863570D01*
X863623Y762806D01*
X863687Y762811D01*
X863760Y762816D01*
X863838Y762826D01*
X863911Y762840D01*
X863974Y762860D01*
X863984Y762865D01*
X864004Y762869D01*
X864033Y762884D01*
X864067Y762904D01*
X864106Y762933D01*
X864150Y762967D01*
X864189Y763006D01*
X864223Y763050D01*
X864228Y763055D01*
X864238Y763074D01*
X864252Y763099D01*
X864267Y763138D01*
X864282Y763177D01*
X864296Y763225D01*
X864306Y763279D01*
X864311Y763338D01*
Y763343D01*
Y763347D01*
Y763377D01*
X864301Y763416D01*
X864291Y763469D01*
X864272Y763528D01*
X864243Y763591D01*
X864199Y763655D01*
X864145Y763713D01*
X864135Y763718D01*
X864116Y763738D01*
X864072Y763762D01*
X864018Y763786D01*
X863945Y763816D01*
X863857Y763835D01*
X863750Y763855D01*
X863623Y763859D01*
D02*
G37*
G36*
X864405Y815127D02*
X863395D01*
Y814069D01*
X864351D01*
X864405Y814073D01*
X864468Y814078D01*
X864541Y814083D01*
X864619Y814093D01*
X864693Y814108D01*
X864756Y814127D01*
X864766Y814132D01*
X864785Y814137D01*
X864814Y814152D01*
X864848Y814171D01*
X864887Y814200D01*
X864931Y814234D01*
X864970Y814273D01*
X865005Y814317D01*
X865009Y814322D01*
X865019Y814342D01*
X865034Y814366D01*
X865049Y814405D01*
X865063Y814444D01*
X865078Y814493D01*
X865088Y814547D01*
X865092Y814605D01*
Y814610D01*
Y814615D01*
Y814644D01*
X865083Y814683D01*
X865073Y814737D01*
X865053Y814795D01*
X865024Y814859D01*
X864980Y814922D01*
X864927Y814980D01*
X864917Y814985D01*
X864897Y815005D01*
X864853Y815029D01*
X864800Y815054D01*
X864727Y815083D01*
X864639Y815102D01*
X864531Y815122D01*
X864405Y815127D01*
D02*
G37*
G36*
X863467Y839407D02*
X862458D01*
Y838349D01*
X863413D01*
X863467Y838354D01*
X863530Y838359D01*
X863604Y838364D01*
X863681Y838373D01*
X863755Y838388D01*
X863818Y838408D01*
X863828Y838412D01*
X863847Y838417D01*
X863877Y838432D01*
X863911Y838452D01*
X863950Y838481D01*
X863994Y838515D01*
X864033Y838554D01*
X864067Y838598D01*
X864072Y838603D01*
X864081Y838622D01*
X864096Y838647D01*
X864111Y838686D01*
X864125Y838725D01*
X864140Y838773D01*
X864150Y838827D01*
X864155Y838886D01*
Y838891D01*
Y838895D01*
Y838925D01*
X864145Y838964D01*
X864135Y839017D01*
X864116Y839076D01*
X864086Y839139D01*
X864042Y839203D01*
X863989Y839261D01*
X863979Y839266D01*
X863960Y839286D01*
X863916Y839310D01*
X863862Y839334D01*
X863789Y839363D01*
X863701Y839383D01*
X863594Y839402D01*
X863467Y839407D01*
D02*
G37*
G36*
X953825Y884121D02*
X952816D01*
Y883062D01*
X953772D01*
X953825Y883067D01*
X953889Y883072D01*
X953962Y883077D01*
X954040Y883087D01*
X954113Y883101D01*
X954176Y883121D01*
X954186Y883126D01*
X954206Y883131D01*
X954235Y883145D01*
X954269Y883165D01*
X954308Y883194D01*
X954352Y883228D01*
X954391Y883267D01*
X954425Y883311D01*
X954430Y883316D01*
X954440Y883335D01*
X954454Y883360D01*
X954469Y883399D01*
X954483Y883438D01*
X954498Y883487D01*
X954508Y883540D01*
X954513Y883599D01*
Y883604D01*
Y883609D01*
Y883638D01*
X954503Y883677D01*
X954493Y883730D01*
X954474Y883789D01*
X954445Y883852D01*
X954401Y883916D01*
X954347Y883974D01*
X954337Y883979D01*
X954318Y883999D01*
X954274Y884023D01*
X954220Y884047D01*
X954147Y884077D01*
X954059Y884096D01*
X953952Y884116D01*
X953825Y884121D01*
D02*
G37*
%LPD*%
D10*
X903138Y720798D02*
G03*
X903138Y720798I-1000J0D01*
G01*
X821647Y896298D02*
G03*
X821647Y896298I-1000J0D01*
G01*
X918290Y830020D02*
X933040D01*
X936540Y762520D02*
Y827520D01*
Y762520D02*
X973540D01*
Y827520D01*
X936540D02*
X973540D01*
X943186Y862838D02*
X953686D01*
D11*
X1009138Y686798D02*
Y744298D01*
X910138D02*
X1009138D01*
X910138Y686798D02*
Y744298D01*
Y686798D02*
X1009138D01*
X880347D02*
Y888798D01*
X789347Y686798D02*
X880347D01*
X789347D02*
Y888798D01*
X880347D01*
M02*
