G04*
G04 #@! TF.GenerationSoftware,Altium Limited,Altium Designer,24.5.2 (23)*
G04*
G04 Layer_Physical_Order=1*
G04 Layer_Color=255*
%FSLAX44Y44*%
%MOMM*%
G71*
G04*
G04 #@! TF.SameCoordinates,4DB7235B-6A34-4685-BFB2-834AB5D4ADCE*
G04*
G04*
G04 #@! TF.FilePolarity,Positive*
G04*
G01*
G75*
%ADD10C,0.2000*%
%ADD12R,1.4750X0.4500*%
%ADD13R,1.4478X0.9144*%
%ADD14R,1.4500X1.0000*%
%ADD22C,0.2540*%
%ADD23C,0.5000*%
%ADD24R,1.5080X1.5080*%
%ADD25C,1.5080*%
%ADD26R,1.5080X1.5080*%
%ADD27C,0.5000*%
G36*
X1123390Y687630D02*
X789590D01*
Y888440D01*
X1123390D01*
Y687630D01*
D02*
G37*
%LPC*%
G36*
X930001Y861822D02*
X910443D01*
Y847598D01*
X919822D01*
Y842638D01*
X920213Y840671D01*
X921328Y839004D01*
X930098Y830233D01*
X929613Y829060D01*
X924512D01*
X924471Y829068D01*
X918476D01*
X906792Y840752D01*
X905621Y841535D01*
X904240Y841809D01*
X855622D01*
X855440Y842489D01*
X854113Y844787D01*
X852236Y846664D01*
X849937Y847991D01*
X847374Y848678D01*
X844720D01*
X842156Y847991D01*
X839857Y846664D01*
X837981Y844787D01*
X836654Y842489D01*
X835967Y839925D01*
Y837271D01*
X836654Y834707D01*
X837981Y832409D01*
X839857Y830532D01*
X842156Y829205D01*
X844720Y828518D01*
X847374D01*
X849937Y829205D01*
X852236Y830532D01*
X854113Y832409D01*
X855372Y834591D01*
X902745D01*
X914429Y822907D01*
X915600Y822124D01*
X915745Y822095D01*
Y817560D01*
X914763Y816754D01*
X914495Y816807D01*
X855515D01*
X855440Y817089D01*
X854113Y819387D01*
X852236Y821264D01*
X849937Y822591D01*
X847374Y823278D01*
X844720D01*
X842156Y822591D01*
X839857Y821264D01*
X837981Y819387D01*
X836654Y817089D01*
X835967Y814525D01*
Y811871D01*
X836654Y809307D01*
X837981Y807009D01*
X839857Y805132D01*
X842156Y803805D01*
X844720Y803118D01*
X847374D01*
X849937Y803805D01*
X852236Y805132D01*
X854113Y807009D01*
X855440Y809307D01*
X855515Y809589D01*
X862588D01*
X862714Y808319D01*
X861637Y808105D01*
X860466Y807322D01*
X850190Y797045D01*
X849937Y797191D01*
X847374Y797878D01*
X844720D01*
X842156Y797191D01*
X839857Y795864D01*
X837981Y793987D01*
X836654Y791689D01*
X835967Y789125D01*
Y786471D01*
X836654Y783907D01*
X837981Y781609D01*
X839857Y779732D01*
X842156Y778405D01*
X844720Y777718D01*
X847374D01*
X849937Y778405D01*
X852236Y779732D01*
X854113Y781609D01*
X855440Y783907D01*
X856127Y786471D01*
Y789125D01*
X855440Y791689D01*
X855294Y791941D01*
X864514Y801161D01*
X877909D01*
X878435Y799891D01*
X850190Y771645D01*
X849937Y771791D01*
X847374Y772478D01*
X844720D01*
X842156Y771791D01*
X839857Y770464D01*
X837981Y768587D01*
X836654Y766289D01*
X835967Y763725D01*
Y761071D01*
X836654Y758507D01*
X837981Y756209D01*
X839857Y754332D01*
X842156Y753005D01*
X844720Y752318D01*
X847374D01*
X849937Y753005D01*
X852236Y754332D01*
X854113Y756209D01*
X855440Y758507D01*
X856127Y761071D01*
Y763725D01*
X855440Y766289D01*
X855294Y766541D01*
X883414Y794661D01*
X896809D01*
X897335Y793391D01*
X850190Y746245D01*
X849937Y746391D01*
X847374Y747078D01*
X844720D01*
X842156Y746391D01*
X839857Y745064D01*
X837981Y743187D01*
X836654Y740889D01*
X835967Y738325D01*
Y735671D01*
X836654Y733107D01*
X837981Y730809D01*
X839857Y728932D01*
X842156Y727605D01*
X844720Y726918D01*
X847374D01*
X849937Y727605D01*
X852236Y728932D01*
X854113Y730809D01*
X855440Y733107D01*
X856127Y735671D01*
Y738325D01*
X855440Y740889D01*
X855294Y741141D01*
X902314Y788161D01*
X912070D01*
X912596Y786891D01*
X849405Y723699D01*
X839050D01*
X829894Y732855D01*
X830040Y733107D01*
X830727Y735671D01*
Y738325D01*
X830040Y740889D01*
X828713Y743187D01*
X826836Y745064D01*
X824537Y746391D01*
X821974Y747078D01*
X819320D01*
X816756Y746391D01*
X814457Y745064D01*
X812581Y743187D01*
X811254Y740889D01*
X810567Y738325D01*
Y735671D01*
X811254Y733107D01*
X812581Y730809D01*
X814457Y728932D01*
X816756Y727605D01*
X819320Y726918D01*
X821974D01*
X824537Y727605D01*
X824790Y727751D01*
X835002Y717538D01*
X836173Y716755D01*
X837555Y716481D01*
X837555Y716481D01*
X850900D01*
X852281Y716755D01*
X853452Y717538D01*
X914572Y778657D01*
X915745Y778171D01*
Y767480D01*
Y760980D01*
X935575D01*
Y762077D01*
X936845D01*
X938332Y762372D01*
X938471Y762466D01*
X939741Y761787D01*
Y753110D01*
X940132Y751143D01*
X941246Y749476D01*
X954499Y736223D01*
Y729471D01*
X953449Y728864D01*
X951572Y726987D01*
X950245Y724689D01*
X949558Y722125D01*
Y719471D01*
X950245Y716907D01*
X951572Y714609D01*
X953449Y712732D01*
X955747Y711405D01*
X958311Y710718D01*
X960965D01*
X963529Y711405D01*
X965827Y712732D01*
X967704Y714609D01*
X969031Y716907D01*
X969718Y719471D01*
Y722125D01*
X969031Y724689D01*
X967704Y726987D01*
X965827Y728864D01*
X964777Y729471D01*
Y738352D01*
X964386Y740318D01*
X963272Y741985D01*
X950019Y755238D01*
Y772438D01*
X949920Y772934D01*
Y773440D01*
X949857Y773593D01*
X950204Y774362D01*
X950732Y774863D01*
X950733Y774863D01*
X953552D01*
X955039Y775159D01*
X956299Y776001D01*
X957787Y777489D01*
X958629Y778749D01*
X958925Y780236D01*
Y829310D01*
X958629Y830797D01*
X957787Y832057D01*
X951427Y838417D01*
Y845798D01*
X958226D01*
Y860878D01*
X938646D01*
Y845798D01*
X943657D01*
Y836808D01*
X943953Y835321D01*
X944795Y834061D01*
X951155Y827701D01*
Y782633D01*
X942266D01*
X940780Y782337D01*
X939520Y781495D01*
X936845Y778820D01*
X935575Y779346D01*
Y786980D01*
Y793480D01*
Y799980D01*
Y806480D01*
Y814161D01*
X937715D01*
Y806933D01*
X937813Y806436D01*
Y805930D01*
X938007Y805463D01*
X938106Y804966D01*
X938387Y804546D01*
X938581Y804078D01*
X938939Y803720D01*
X939220Y803299D01*
X939640Y803018D01*
X939998Y802660D01*
X940466Y802466D01*
X940887Y802185D01*
X941383Y802086D01*
X941851Y801893D01*
X942357D01*
X942853Y801794D01*
X943350Y801893D01*
X943856D01*
X944323Y802086D01*
X944820Y802185D01*
X945241Y802466D01*
X945708Y802660D01*
X946066Y803018D01*
X946487Y803299D01*
X946768Y803720D01*
X947126Y804078D01*
X947320Y804546D01*
X947601Y804966D01*
X947700Y805463D01*
X947893Y805930D01*
Y806436D01*
X947992Y806933D01*
Y824746D01*
X947601Y826712D01*
X946487Y828379D01*
X930100Y844766D01*
Y852638D01*
X930001Y853134D01*
Y861822D01*
D02*
G37*
G36*
X830727Y848678D02*
X810567D01*
Y828518D01*
X830727D01*
Y848678D01*
D02*
G37*
G36*
X988527Y861822D02*
X968969D01*
Y847598D01*
X969481D01*
X969967Y846425D01*
X962310Y838768D01*
X961196Y837101D01*
X960805Y835134D01*
Y818624D01*
Y753636D01*
X961196Y751669D01*
X962310Y750002D01*
X979499Y732813D01*
Y729471D01*
X978449Y728864D01*
X976572Y726987D01*
X975245Y724689D01*
X974558Y722125D01*
Y719471D01*
X975245Y716907D01*
X976572Y714609D01*
X978449Y712732D01*
X980747Y711405D01*
X983311Y710718D01*
X985965D01*
X988529Y711405D01*
X990827Y712732D01*
X992704Y714609D01*
X994031Y716907D01*
X994718Y719471D01*
Y722125D01*
X994031Y724689D01*
X992704Y726987D01*
X990827Y728864D01*
X989777Y729471D01*
Y734942D01*
X989386Y736908D01*
X988272Y738576D01*
X971083Y755765D01*
Y814271D01*
X974505D01*
Y806480D01*
Y799980D01*
Y793480D01*
Y786980D01*
Y780480D01*
Y773980D01*
Y767480D01*
X994335D01*
Y776723D01*
X995508Y777209D01*
X1008581Y764136D01*
Y755876D01*
X1007917Y755213D01*
X1007150Y753361D01*
Y751356D01*
X1007917Y749503D01*
X1009335Y748085D01*
X1011188Y747318D01*
X1013193D01*
X1015045Y748085D01*
X1016463Y749503D01*
X1017230Y751356D01*
Y753361D01*
X1016463Y755213D01*
X1015799Y755876D01*
Y763057D01*
X1016973Y763543D01*
X1060438Y720078D01*
X1061609Y719295D01*
X1062990Y719021D01*
X1078145D01*
X1079526Y719295D01*
X1080697Y720078D01*
X1088370Y727751D01*
X1088623Y727605D01*
X1091186Y726918D01*
X1093840D01*
X1096404Y727605D01*
X1098702Y728932D01*
X1100579Y730809D01*
X1101906Y733107D01*
X1102593Y735671D01*
Y738325D01*
X1101906Y740889D01*
X1100579Y743187D01*
X1098702Y745064D01*
X1096404Y746391D01*
X1093840Y747078D01*
X1091186D01*
X1088623Y746391D01*
X1086324Y745064D01*
X1084447Y743187D01*
X1083120Y740889D01*
X1082433Y738325D01*
Y735671D01*
X1083120Y733107D01*
X1083266Y732855D01*
X1076650Y726239D01*
X1070814D01*
X1070647Y727509D01*
X1071004Y727605D01*
X1073303Y728932D01*
X1075179Y730809D01*
X1076506Y733107D01*
X1077193Y735671D01*
Y738325D01*
X1076506Y740889D01*
X1075179Y743187D01*
X1073783Y744583D01*
X1074310Y745853D01*
X1079577D01*
X1080959Y746128D01*
X1082130Y746910D01*
X1088370Y753151D01*
X1088623Y753005D01*
X1091186Y752318D01*
X1093840D01*
X1096404Y753005D01*
X1098702Y754332D01*
X1100579Y756209D01*
X1101906Y758507D01*
X1102593Y761071D01*
Y763725D01*
X1101906Y766289D01*
X1100579Y768587D01*
X1098702Y770464D01*
X1096404Y771791D01*
X1093840Y772478D01*
X1091186D01*
X1088623Y771791D01*
X1086324Y770464D01*
X1084447Y768587D01*
X1083120Y766289D01*
X1082433Y763725D01*
Y761071D01*
X1083120Y758507D01*
X1083266Y758255D01*
X1078083Y753072D01*
X1073573D01*
X1073315Y754033D01*
X1073312Y754342D01*
X1075179Y756209D01*
X1076506Y758507D01*
X1077193Y761071D01*
Y763725D01*
X1076506Y766289D01*
X1075179Y768587D01*
X1073303Y770464D01*
X1073097Y770583D01*
X1073437Y771853D01*
X1080177D01*
X1081558Y772127D01*
X1082729Y772910D01*
X1088370Y778551D01*
X1088623Y778405D01*
X1091186Y777718D01*
X1093840D01*
X1096404Y778405D01*
X1098702Y779732D01*
X1100579Y781609D01*
X1101906Y783907D01*
X1102593Y786471D01*
Y789125D01*
X1101906Y791689D01*
X1100579Y793987D01*
X1098702Y795864D01*
X1096404Y797191D01*
X1093840Y797878D01*
X1091186D01*
X1088623Y797191D01*
X1086324Y795864D01*
X1084447Y793987D01*
X1083120Y791689D01*
X1082433Y789125D01*
Y786471D01*
X1083120Y783907D01*
X1083266Y783655D01*
X1078682Y779071D01*
X1074438D01*
X1073912Y780341D01*
X1075179Y781609D01*
X1076506Y783907D01*
X1077193Y786471D01*
Y789125D01*
X1076506Y791689D01*
X1075179Y793987D01*
X1073438Y795729D01*
X1073629Y796999D01*
X1079923D01*
X1081304Y797273D01*
X1082475Y798056D01*
X1088370Y803951D01*
X1088623Y803805D01*
X1091186Y803118D01*
X1093840D01*
X1096404Y803805D01*
X1098702Y805132D01*
X1100579Y807009D01*
X1101906Y809307D01*
X1102593Y811871D01*
Y814525D01*
X1101906Y817089D01*
X1100579Y819387D01*
X1098702Y821264D01*
X1096404Y822591D01*
X1093840Y823278D01*
X1091186D01*
X1088623Y822591D01*
X1086324Y821264D01*
X1084447Y819387D01*
X1083120Y817089D01*
X1082433Y814525D01*
Y811871D01*
X1083120Y809307D01*
X1083266Y809055D01*
X1078428Y804217D01*
X1038475D01*
X1028870Y813822D01*
X1027699Y814605D01*
X1026318Y814879D01*
X994335D01*
Y822399D01*
X1079923D01*
X1081304Y822673D01*
X1082475Y823456D01*
X1087538Y828518D01*
X1102593D01*
Y848678D01*
X1082433D01*
Y833622D01*
X1078428Y829617D01*
X1074160D01*
X1073658Y830887D01*
X1075179Y832409D01*
X1076506Y834707D01*
X1077193Y837271D01*
Y839925D01*
X1076506Y842489D01*
X1075179Y844787D01*
X1073303Y846664D01*
X1071004Y847991D01*
X1068440Y848678D01*
X1065786D01*
X1063223Y847991D01*
X1060924Y846664D01*
X1059047Y844787D01*
X1057720Y842489D01*
X1057033Y839925D01*
Y837271D01*
X1057720Y834707D01*
X1059047Y832409D01*
X1060569Y830887D01*
X1060066Y829617D01*
X991283D01*
X989902Y829343D01*
X989479Y829060D01*
X974505D01*
Y821489D01*
X971083D01*
Y833005D01*
X982381Y844304D01*
X983495Y845971D01*
X983819Y847598D01*
X988527D01*
Y861822D01*
D02*
G37*
G36*
X821974Y797878D02*
X819320D01*
X816756Y797191D01*
X814457Y795864D01*
X812581Y793987D01*
X811254Y791689D01*
X810567Y789125D01*
Y786471D01*
X811254Y783907D01*
X812581Y781609D01*
X814457Y779732D01*
X816756Y778405D01*
X819320Y777718D01*
X821974D01*
X824537Y778405D01*
X826836Y779732D01*
X828713Y781609D01*
X830040Y783907D01*
X830727Y786471D01*
Y789125D01*
X830040Y791689D01*
X828713Y793987D01*
X826836Y795864D01*
X824537Y797191D01*
X821974Y797878D01*
D02*
G37*
G36*
Y772478D02*
X819320D01*
X816756Y771791D01*
X814457Y770464D01*
X812581Y768587D01*
X811254Y766289D01*
X810567Y763725D01*
Y761071D01*
X811254Y758507D01*
X812581Y756209D01*
X814457Y754332D01*
X816756Y753005D01*
X819320Y752318D01*
X821974D01*
X824537Y753005D01*
X826836Y754332D01*
X828713Y756209D01*
X830040Y758507D01*
X830727Y761071D01*
Y763725D01*
X830040Y766289D01*
X828713Y768587D01*
X826836Y770464D01*
X824537Y771791D01*
X821974Y772478D01*
D02*
G37*
%LPD*%
G36*
X1034428Y798056D02*
X1035599Y797273D01*
X1036980Y796999D01*
X1060597D01*
X1060789Y795729D01*
X1059047Y793987D01*
X1057720Y791689D01*
X1057033Y789125D01*
Y786471D01*
X1057720Y783907D01*
X1059047Y781609D01*
X1060315Y780341D01*
X1059789Y779071D01*
X1047671D01*
X1020352Y806391D01*
X1020878Y807661D01*
X1024823D01*
X1034428Y798056D01*
D02*
G37*
G36*
X1043624Y772910D02*
X1044795Y772127D01*
X1046176Y771853D01*
X1060789D01*
X1061130Y770583D01*
X1060924Y770464D01*
X1059047Y768587D01*
X1057720Y766289D01*
X1057033Y763725D01*
Y761071D01*
X1057720Y758507D01*
X1059047Y756209D01*
X1060914Y754342D01*
X1060911Y754033D01*
X1060654Y753072D01*
X1057721D01*
X1010902Y799891D01*
X1011428Y801161D01*
X1015373D01*
X1043624Y772910D01*
D02*
G37*
G36*
X1053673Y746910D02*
X1054844Y746128D01*
X1056226Y745853D01*
X1059917D01*
X1060443Y744583D01*
X1059047Y743187D01*
X1057720Y740889D01*
X1057033Y738325D01*
Y735671D01*
X1057101Y735420D01*
X1055962Y734763D01*
X997334Y793391D01*
X997860Y794661D01*
X1005923D01*
X1053673Y746910D01*
D02*
G37*
D10*
X850900Y720090D02*
X916080Y785270D01*
X837555Y720090D02*
X850900D01*
X846047Y736998D02*
X900819Y791770D01*
X925660D01*
X1012190Y752358D02*
Y765631D01*
X993261Y784560D02*
X1012190Y765631D01*
X820647Y736998D02*
X837555Y720090D01*
X1062990Y722630D02*
X1078145D01*
X1092513Y736998D01*
X1007418Y798270D02*
X1056226Y749462D01*
X1079577D01*
X1092513Y762398D01*
X1016868Y804770D02*
X1046176Y775462D01*
X1080177D02*
X1092513Y787798D01*
X1046176Y775462D02*
X1080177D01*
X1026318Y811270D02*
X1036980Y800608D01*
X1079923D02*
X1092513Y813198D01*
X1036980Y800608D02*
X1079923D01*
Y826008D02*
X1092513Y838598D01*
X991283Y826008D02*
X1079923D01*
X989545Y824270D02*
X991283Y826008D01*
X984420Y824270D02*
X989545D01*
X904240Y838200D02*
X916981Y825459D01*
X846445Y838200D02*
X904240D01*
X924471Y825459D02*
X925465Y824465D01*
X916981Y825459D02*
X924471D01*
X846047Y838598D02*
X846445Y838200D01*
X993850Y791770D02*
X1062990Y722630D01*
X984420Y791770D02*
X993850D01*
X984420Y785270D02*
X985130Y784560D01*
X993261D01*
X984420Y798270D02*
X1007418D01*
X984420Y804770D02*
X1016868D01*
X984420Y811270D02*
X1026318D01*
X916080Y785270D02*
X925660D01*
X881919Y798270D02*
X925660D01*
X846047Y762398D02*
X881919Y798270D01*
X863019Y804770D02*
X925660D01*
X846047Y787798D02*
X863019Y804770D01*
X916423Y811270D02*
X925660D01*
X914495Y813198D02*
X916423Y811270D01*
X846047Y813198D02*
X914495D01*
X965944Y818624D02*
X966688Y817880D01*
X984421D01*
X925660Y817770D02*
X942704D01*
D12*
X984420Y824270D02*
D03*
Y817770D02*
D03*
Y811270D02*
D03*
Y804770D02*
D03*
Y798270D02*
D03*
Y791770D02*
D03*
Y785270D02*
D03*
Y778770D02*
D03*
Y772270D02*
D03*
Y765770D02*
D03*
X925660D02*
D03*
Y772270D02*
D03*
Y778770D02*
D03*
Y785270D02*
D03*
Y791770D02*
D03*
Y798270D02*
D03*
Y804770D02*
D03*
Y811270D02*
D03*
Y817770D02*
D03*
Y824270D02*
D03*
D13*
X920222Y854710D02*
D03*
Y870966D02*
D03*
X978748Y854710D02*
D03*
Y870966D02*
D03*
D14*
X948436Y853338D02*
D03*
Y872338D02*
D03*
D22*
X953552Y778748D02*
X955040Y780236D01*
X942266Y778748D02*
X953552D01*
X938570Y767686D02*
Y775052D01*
X936845Y765961D02*
X938570Y767686D01*
Y775052D02*
X942266Y778748D01*
X925743Y765961D02*
X936845D01*
X955040Y780236D02*
Y829310D01*
X947542Y836808D02*
X955040Y829310D01*
X947542Y836808D02*
Y850566D01*
D23*
X944880Y753110D02*
Y772438D01*
Y753110D02*
X959638Y738352D01*
X920222Y855472D02*
X922127D01*
X924961Y842638D02*
Y852638D01*
X922127Y855472D02*
X924961Y852638D01*
X942853Y806933D02*
Y824746D01*
X924961Y842638D02*
X942853Y824746D01*
X965944Y753636D02*
Y818624D01*
Y835134D01*
Y753636D02*
X984638Y734942D01*
X965944Y835134D02*
X978748Y847938D01*
X959638Y720798D02*
Y738352D01*
X984638Y720798D02*
Y734942D01*
X978748Y847938D02*
Y855472D01*
D24*
X934638Y720798D02*
D03*
D25*
X959638D02*
D03*
X984638D02*
D03*
X1067113Y736998D02*
D03*
X1092513D02*
D03*
X1067113Y762398D02*
D03*
X1092513D02*
D03*
X1067113Y787798D02*
D03*
X1092513D02*
D03*
X1067113Y813198D02*
D03*
X1092513D02*
D03*
X1067113Y838598D02*
D03*
X846047Y736998D02*
D03*
X820647D02*
D03*
X846047Y762398D02*
D03*
X820647D02*
D03*
X846047Y787798D02*
D03*
X820647D02*
D03*
X846047Y813198D02*
D03*
X820647D02*
D03*
X846047Y838598D02*
D03*
D26*
X1092513D02*
D03*
X820647D02*
D03*
D27*
X944880Y772438D02*
D03*
X1012190Y752358D02*
D03*
X942853Y806933D02*
D03*
M02*
